<svg width="64" height="65" viewBox="0 0 64 65" fill="none" xmlns="http://www.w3.org/2000/svg">
<path d="M58.6667 32.5H18.6667V59.1667H58.6667V32.5Z" fill="#A435F0" fill-opacity="0.5"/>
<path d="M58.6666 13.8333H5.33325V19.1666H58.6666V13.8333Z" fill="#A435F0" fill-opacity="0.5"/>
<path d="M5.33325 22.5V15.8333C5.33325 14.9493 5.7346 14.1014 6.44904 13.4763C7.16346 12.8512 8.13244 12.5 9.14277 12.5H12.9523V9.16665C12.9523 8.28259 13.3537 7.43475 14.0681 6.80963C14.7825 6.18451 15.7515 5.83331 16.7618 5.83331C17.7722 5.83331 18.7411 6.18451 19.4556 6.80963C20.17 7.43475 20.5713 8.28259 20.5713 9.16665V12.5H43.4284V9.16665C43.4284 8.28259 43.8298 7.43475 44.5442 6.80963C45.2586 6.18451 46.2276 5.83331 47.2381 5.83331C48.2483 5.83331 49.2173 6.18451 49.9317 6.80963C50.6461 7.43475 51.0475 8.28259 51.0475 9.16665V12.5H54.8572C55.8674 12.5 56.8364 12.8512 57.5508 13.4763C58.2652 14.1014 58.6666 14.9493 58.6666 15.8333V22.5H5.33325ZM5.33325 28.5V55.8333C5.33325 56.7173 5.7346 57.5653 6.44904 58.1904C7.16346 58.8154 8.13244 59.1666 9.14277 59.1666H54.8572C55.8674 59.1666 56.8364 58.8154 57.5508 58.1904C58.2652 57.5653 58.6666 56.7173 58.6666 55.8333V28.5H5.33325Z" stroke="black" stroke-width="2"/>
</svg>
