<svg width="35" height="28" viewBox="0 0 35 28" fill="none" xmlns="http://www.w3.org/2000/svg">
<path d="M5.11879 13.4129H9.58976V18.5717C9.58976 21.048 5.92131 21.667 4.08708 21.667V26.4819C12.5705 26.4819 16.1243 21.667 16.1243 18.5717V4.47097C16.1243 0.894195 15.4365 0 13.7169 0H5.11879C2.64251 0 2.02348 2.29281 2.0235 3.43921C1.90886 5.27345 1.74836 9.35465 2.0235 11.0055C2.29864 12.6563 4.20167 13.2983 5.11879 13.4129Z" fill="#A435F0"/>
<path d="M3.24721 14.7886H7.71818V19.9475C7.71818 22.4237 4.04973 23.0428 2.2155 23.0428V27.8576C10.6989 27.8576 14.2527 23.0428 14.2527 19.9475V5.8467C14.2527 2.26993 13.5649 1.37573 11.8453 1.37573H3.24721C0.770927 1.37573 0.151897 3.66854 0.151917 4.81494C0.0372769 6.64919 -0.12322 10.7304 0.151917 12.3812C0.427054 14.032 2.33008 14.674 3.24721 14.7886Z" fill="#1F1D0D"/>
<path d="M23.9945 13.4129H28.4655V18.5717C28.4655 21.048 24.797 21.667 22.9628 21.667V26.4819C31.4462 26.4819 35 21.667 35 18.5717V4.47097C35 0.894195 34.3122 0 32.5926 0H23.9945C21.5182 0 20.8992 2.29281 20.8992 3.43921C20.7846 5.27345 20.6241 9.35465 20.8992 11.0055C21.1744 12.6563 23.0774 13.2983 23.9945 13.4129Z" fill="#A435F0"/>
<path d="M22.1229 14.7886H26.5939V19.9475C26.5939 22.4237 22.9255 23.0428 21.0912 23.0428V27.8576C29.5746 27.8576 33.1285 23.0428 33.1285 19.9475V5.8467C33.1285 2.26993 32.4406 1.37573 30.721 1.37573H22.1229C19.6467 1.37573 19.0276 3.66854 19.0276 4.81494C18.913 6.64919 18.7525 10.7304 19.0276 12.3812C19.3028 14.032 21.2058 14.674 22.1229 14.7886Z" fill="#1F1D0D"/>
</svg>
