<svg width="64" height="65" viewBox="0 0 64 65" fill="none" xmlns="http://www.w3.org/2000/svg">
<path d="M17.3334 5.83331H53.3334V48.7603M17.3334 5.83331V49.1877V5.83331ZM17.3334 5.83331C15.1112 5.83331 10.6667 7.13411 10.6667 12.3374C10.6667 17.5406 10.6667 42.256 10.6667 53.9634M17.3334 49.1877L53.3334 48.7603L17.3334 49.1877ZM17.3334 49.1877C14.9109 49.1877 10.6667 50.2765 10.6667 53.9634L17.3334 49.1877ZM53.3334 48.7603V53.9634V48.7603ZM10.6667 53.9634C10.6667 59.1666 14.6667 59.1666 16.0001 59.1666H53.3334V53.9634M53.3334 53.9634H37.3334H53.3334Z" fill="#A435F0" fill-opacity="0.5"/>
<path d="M17.3334 5.83331H53.3334V48.7603M17.3334 5.83331V49.1877M17.3334 5.83331C15.1112 5.83331 10.6667 7.13411 10.6667 12.3374C10.6667 17.5406 10.6667 42.256 10.6667 53.9634M53.3334 48.7603L17.3334 49.1877M53.3334 48.7603V53.9634M17.3334 49.1877C14.9109 49.1877 10.6667 50.2765 10.6667 53.9634M10.6667 53.9634C10.6667 59.1666 14.6667 59.1666 16.0001 59.1666H53.3334V53.9634M53.3334 53.9634H37.3334" stroke="#1F1D0D" stroke-width="2" stroke-linecap="round" stroke-linejoin="round"/>
</svg>
