<svg width="35" height="43" viewBox="0 0 35 43" fill="none" xmlns="http://www.w3.org/2000/svg">
<path d="M19.8652 13.9975L19.7077 13.8217L19.5039 13.7026L14.7394 10.9211C14.2575 10.3906 13.6999 9.52715 13.3703 8.53742C13.0141 7.46821 12.9717 6.40745 13.3815 5.49237C14.0371 4.02845 15.003 3.13109 16.0604 2.68039C17.0945 2.23964 18.3254 2.17989 19.6274 2.5819L24.1931 5.03472C26.4998 6.91905 29.5581 10.3812 31.2836 14.6617C33.0151 18.957 33.3929 24.0198 30.3894 29.2489C27.2478 34.7186 23.6941 37.6549 20.5641 39.2608C17.4735 40.8465 14.7063 41.1812 12.975 41.2814L10.2154 41.1143L7.12515 40.751C6.08922 40.5281 4.68219 39.9911 3.61355 39.1189C2.56588 38.2639 1.93293 37.1811 2.09173 35.7241C2.27244 34.066 2.52125 33.2459 2.69571 32.8475C2.80789 32.5914 2.86725 32.5294 2.97935 32.4124C3.01061 32.3797 3.04597 32.3428 3.08772 32.2962C3.48962 31.8475 5.39112 30.4915 8.6013 30.833C9.03475 30.8791 9.49593 30.936 9.95492 30.9927C10.5879 31.0708 11.2167 31.1485 11.7629 31.1964C12.777 31.2855 13.8154 31.3102 14.8715 31.1149C17.0816 30.7061 19.0184 29.4042 21.1227 26.7027C23.0453 24.2345 23.1813 21.514 22.6226 19.2326C22.0749 16.9962 20.8497 15.0973 19.8652 13.9975Z" fill="#A435F0" stroke="#1F1D0D" stroke-width="3"/>
</svg>
