<svg width="211" height="114" viewBox="0 0 211 114" fill="none" xmlns="http://www.w3.org/2000/svg">
<path d="M208.631 21.1332C208.849 20.6258 209.437 20.3914 209.944 20.6095C210.452 20.8277 210.686 21.4158 210.468 21.9232L208.631 21.1332ZM66.8653 40.0115L67.854 39.8621L66.8653 40.0115ZM139.287 90.9138L140.228 90.5744L139.287 90.9138ZM4.14514 1.26563C4.3757 0.763775 4.96945 0.543856 5.4713 0.774419L13.6495 4.53171C14.1513 4.76227 14.3713 5.35602 14.1407 5.85787C13.9101 6.35972 13.3164 6.57965 12.8145 6.34908L5.54504 3.00927L2.20522 10.2788C1.97467 10.7806 1.38092 11.0006 0.879064 10.77C0.377203 10.5394 0.157287 9.94568 0.387845 9.44382L4.14514 1.26563ZM210.468 21.9232C197.333 52.4745 163.145 69.7573 131.448 73.1433C115.58 74.8385 100.217 73.0684 88.3022 67.6541C76.3636 62.2292 67.8327 53.1093 65.8765 40.1609L67.854 39.8621C69.6857 51.9857 77.6489 60.6164 89.1296 65.8332C100.634 71.0606 115.616 72.8233 131.236 71.1546C162.516 67.8131 195.883 50.7822 208.631 21.1332L210.468 21.9232ZM65.8765 40.1609C65.1514 35.3611 65.481 31.7038 66.8337 29.1659C68.2305 26.5453 70.6291 25.2777 73.5799 25.1146C76.4721 24.9547 79.9243 25.8444 83.663 27.4919C87.4184 29.1468 91.5445 31.6028 95.8115 34.6714C112.842 46.9179 132.527 69.2247 140.228 90.5744L138.346 91.2531C130.818 70.3809 111.442 48.375 94.6439 36.2951C90.4539 33.282 86.4499 30.9056 82.8565 29.3221C79.2462 27.7312 76.1307 26.9766 73.6903 27.1115C71.3086 27.2432 69.6099 28.2094 68.5987 30.1066C67.5434 32.0866 67.1544 35.2311 67.854 39.8621L65.8765 40.1609ZM140.228 90.5744C141.911 95.2398 141.795 99.5015 140.089 103.079C138.389 106.645 135.169 109.402 130.887 111.193C122.347 114.764 109.393 114.591 94.6738 109.262C65.1742 98.5822 28.2137 67.0888 4.11608 2.03045L5.99156 1.33577C29.9338 65.9746 66.5284 96.9454 95.3546 107.381C109.798 112.61 122.2 112.658 130.115 109.348C134.06 107.698 136.844 105.238 138.284 102.218C139.719 99.2084 139.883 95.5122 138.346 91.2531L140.228 90.5744Z" fill="#1F1D0D"/>
</svg>
