<svg width="86" height="86" viewBox="0 0 86 86" fill="none" xmlns="http://www.w3.org/2000/svg">
<path d="M60.521 36.0437L56.2365 43.5031C53.3879 46.0898 46.1648 50.0919 40.0616 45.4067C32.4326 39.5502 33.9121 35.5739 34.5979 28.6616C35.1465 23.1318 32.8228 19.5763 31.5924 18.4897C32.0471 18.2817 31.3998 17.5881 25.1733 16.4785C18.9469 15.369 15.9467 22.3506 15.225 25.9802L14.4622 35.1272C13.7584 40.3981 16.6524 53.3704 33.8585 63.092C51.0646 72.8137 67.2178 60.2892 73.1436 52.8118L76.9734 45.5604C77.1274 41.0909 76.1641 36.5829 71.3556 33.2848C67.5087 30.6463 62.5296 34.0247 60.521 36.0437Z" fill="#8607DD"/>
<path d="M52.9998 53.3204L53.1746 53.1617L53.2922 52.957L57.4733 45.6774C58.3348 44.858 59.7551 43.9147 61.3906 43.3571C63.1064 42.7721 64.9036 42.6603 66.5071 43.3649C68.8669 44.4017 70.3732 45.9716 71.1441 47.7454C71.9041 49.4942 71.9972 51.5523 71.3385 53.6867L67.6377 60.6938C64.7803 64.262 59.4969 69.0138 52.9154 71.7211C46.3186 74.4348 38.474 75.0823 30.3513 70.4929C21.9871 65.7669 17.435 60.3596 14.9202 55.5424C12.4263 50.7651 11.8889 46.4781 11.7196 43.827L11.9448 39.6169L12.4635 34.9179C12.7997 33.2742 13.6324 31.0173 15.034 29.275C16.4193 27.5529 18.2678 26.4221 20.7763 26.6776C23.3054 26.9352 24.6235 27.3111 25.3216 27.6109C25.8296 27.8292 25.9992 27.9891 26.2017 28.1801C26.2492 28.225 26.2986 28.2715 26.3545 28.3209C27.2168 29.0823 29.362 32.1614 28.8601 37.2203C28.7923 37.9046 28.7105 38.6062 28.6301 39.2961C28.5214 40.2284 28.4152 41.1392 28.3493 41.9567C28.2286 43.451 28.2077 44.933 28.4936 46.4201C29.0843 49.4921 30.9132 52.2404 34.9032 55.3033C38.4038 57.9906 42.2376 58.1643 45.4916 57.343C48.7006 56.5331 51.4315 54.7445 52.9998 53.3204Z" fill="#A435F0" stroke="#1F1D0D" stroke-width="3"/>
</svg>
