<svg width="78" height="78" viewBox="0 0 78 78" fill="none" xmlns="http://www.w3.org/2000/svg">
<path d="M19.9875 41.7846L25.7823 35.427C29.1225 33.5168 37.0396 31.1698 41.9864 37.0628C48.17 44.4292 45.8664 47.992 43.7035 54.5929C41.9731 59.8736 43.4737 63.8472 44.4403 65.1739C43.9515 65.2788 44.4337 66.0958 50.2734 68.5244C56.1131 70.9529 60.5507 64.7843 62.0395 61.3964L64.7605 52.6302C66.5864 47.6358 66.5633 34.3447 51.8639 21.1353C37.1645 7.92594 18.687 16.6648 11.2856 22.6855L5.97963 28.9382C4.86359 33.2688 4.83021 37.8785 8.81269 42.1376C11.9987 45.5448 17.59 43.322 19.9875 41.7846Z" fill="#8607DD"/>
<path d="M31.0634 26.5408L30.8585 26.658L30.6995 26.8325L25.0444 33.0368C24.0262 33.6507 22.4356 34.2649 20.7183 34.456C18.9166 34.6565 17.1377 34.3773 15.7243 33.343C13.6443 31.8209 12.5127 29.9626 12.1432 28.0641C11.7789 26.1924 12.1327 24.1628 13.2369 22.2212L18.3642 16.179C21.925 13.3125 28.1103 9.81432 35.1212 8.59283C42.1485 7.3685 49.9477 8.43108 56.8871 14.667C64.0328 21.0884 67.3091 27.3514 68.7237 32.5982C70.1266 37.8015 69.7252 42.1033 69.3177 44.7284L68.1883 48.7904L66.6666 53.2663C65.9832 54.7986 64.6827 56.8223 62.9377 58.2207C61.2131 59.6028 59.164 60.3075 56.7699 59.5161C54.3562 58.7182 53.1504 58.0664 52.5335 57.6228C52.0847 57.3 51.9537 57.1072 51.7972 56.8769C51.7605 56.8229 51.7224 56.7668 51.6785 56.7065C51.001 55.7767 49.5717 52.3069 51.1547 47.4759C51.3688 46.8225 51.6002 46.1551 51.8278 45.4988C52.1353 44.612 52.4357 43.7456 52.6767 42.9618C53.1174 41.5288 53.458 40.0863 53.5001 38.5726C53.587 35.4455 52.3951 32.367 49.1611 28.5144C46.3237 25.1343 42.618 24.1364 39.2634 24.2353C35.9552 24.3328 32.9024 25.4891 31.0634 26.5408Z" fill="#A435F0" stroke="#1F1D0D" stroke-width="3"/>
</svg>
