<svg width="64" height="65" viewBox="0 0 64 65" fill="none" xmlns="http://www.w3.org/2000/svg">
<path d="M53.3046 31.4494C53.4911 30.4711 52.745 29.2972 51.8124 29.2972L41.1806 27.732L36.331 17.5584C36.1445 17.1671 35.9579 16.9714 35.5849 16.7758C34.6523 16.1888 33.5331 16.5801 32.9736 17.5584L28.3105 27.732L17.6787 29.2972C17.1191 29.2972 16.7461 29.4929 16.5596 29.8842C15.8135 30.6668 15.8135 31.8407 16.5596 32.6232L24.207 40.4492L22.3418 51.6011C22.3418 51.9924 22.3418 52.3837 22.5283 52.775C23.0879 53.7532 24.207 54.1445 25.1396 53.5576L34.6523 48.2751L44.1649 53.5576C44.3515 53.7532 44.7245 53.7532 45.0976 53.7532C45.2841 53.7532 45.2841 53.7532 45.4706 53.7532C46.4032 53.5576 47.1493 52.5793 46.9628 51.4054L45.0976 40.2535L52.745 32.4276C53.118 32.2319 53.3046 31.8407 53.3046 31.4494Z" fill="#A435F0" fill-opacity="0.5"/>
<path d="M30.4749 8.98618C31.0401 8.0728 32.0403 7.82392 32.8186 8.29086L32.8518 8.31039L32.886 8.32797C33.0922 8.4311 33.1923 8.50734 33.259 8.57407C33.3091 8.62414 33.3648 8.6929 33.4329 8.81137L33.5051 8.94711L40.4387 22.8143L40.6741 23.284L41.1946 23.3573L56.3938 25.4901L56.4631 25.4998H56.5334C56.7844 25.4999 57.1112 25.6587 57.3831 26.0438C57.6537 26.4273 57.7561 26.8855 57.6858 27.2372L57.6663 27.3348V27.4334C57.6662 27.6434 57.5668 27.7981 57.4192 27.8719L57.2795 27.9422L57.1682 28.0506L46.2346 38.7176L45.8567 39.0858L45.9485 39.6063L48.6145 54.8065C48.7788 55.8189 48.1327 56.6351 47.345 56.8338H46.9329C46.6479 56.8338 46.457 56.8317 46.3079 56.8104C46.2824 56.8068 46.2622 56.8021 46.2463 56.7987L46.2004 56.7528L46.0676 56.6825L32.468 49.4832L32.0002 49.2352L31.5325 49.4832L17.9319 56.6825L17.9084 56.6952L17.885 56.7088C17.1073 57.1753 16.1097 56.9269 15.5442 56.0155C15.4211 55.7486 15.4023 55.4668 15.4006 54.9832L18.052 39.8729L18.1428 39.3524L17.7649 38.9842L6.83813 28.3241C6.16419 27.648 6.16468 26.6821 6.84009 26.0067L6.95532 25.8924L7.02759 25.7469C7.06656 25.669 7.16191 25.4998 7.73364 25.4998H7.80298L7.87231 25.4901L23.0725 23.3573L23.6028 23.2821L23.8342 22.7997L30.4749 8.98618Z" stroke="black" stroke-width="2"/>
</svg>
