<svg width="22" height="23" viewBox="0 0 22 23" fill="none" xmlns="http://www.w3.org/2000/svg">
<path d="M8.91206 5.82818C8.62556 2.53268 5.18756 0.915675 5.04206 0.849675C4.90604 0.785736 4.75361 0.765307 4.60556 0.791175C0.636561 1.44968 0.0395608 3.75968 0.0155608 3.85568C-0.0170923 3.98945 -0.0118988 4.12968 0.0305607 4.26068C4.76456 18.9487 14.6031 21.6712 17.8371 22.5667C18.0861 22.6357 18.2916 22.6912 18.4476 22.7422C18.6256 22.8003 18.819 22.7891 18.9891 22.7107C19.0881 22.6657 21.4251 21.5647 21.9966 17.9737C22.0219 17.8169 21.9967 17.6561 21.9246 17.5147C21.8736 17.4157 20.6511 15.0892 17.2611 14.2672C17.1461 14.2378 17.0256 14.2367 16.9101 14.2642C16.7946 14.2916 16.6875 14.3467 16.5981 14.4247C15.5286 15.3382 14.0511 16.3117 13.4136 16.4122C9.14006 14.3227 6.75356 10.3132 6.66356 9.55268C6.61106 9.12517 7.59056 7.62368 8.71706 6.40268C8.78786 6.32583 8.84179 6.23501 8.87538 6.13607C8.90896 6.03712 8.92146 5.93224 8.91206 5.82818Z" fill="#A435F0"/>
</svg>
