<svg width="24" height="25" viewBox="0 0 24 25" fill="none" xmlns="http://www.w3.org/2000/svg">
<path d="M4 10.9236C4 6.42615 7.58172 2.78027 12 2.78027C16.4183 2.78027 20 6.42615 20 10.9236C20 15.3858 17.4467 20.5927 13.4629 22.4547C12.5343 22.8888 11.4657 22.8888 10.5371 22.4547C6.55332 20.5927 4 15.3858 4 10.9236Z" fill="#A435F0"/>
<path d="M12 13.7803C13.6569 13.7803 15 12.4371 15 10.7803C15 9.12342 13.6569 7.78027 12 7.78027C10.3431 7.78027 9 9.12342 9 10.7803C9 12.4371 10.3431 13.7803 12 13.7803Z" fill="#FFF8E7"/>
</svg>
