<svg width="24" height="25" viewBox="0 0 24 25" fill="none" xmlns="http://www.w3.org/2000/svg">
<rect x="1" y="4.78027" width="22" height="16" rx="3" fill="#A435F0"/>
<path d="M20.8598 4.65674H3.1416C2.52022 4.65745 1.92449 4.9046 1.4851 5.34399C1.04572 5.78337 0.798559 6.3791 0.797852 7.00049V18.5599C0.798559 19.1812 1.04572 19.777 1.4851 20.2164C1.92449 20.6557 2.52022 20.9029 3.1416 20.9036H20.8598C21.4812 20.9029 22.0769 20.6557 22.5163 20.2164C22.9557 19.777 23.2028 19.1812 23.2035 18.5599V7.00049C23.2029 6.3791 22.9557 5.78337 22.5163 5.34398C22.077 4.90459 21.4812 4.65743 20.8598 4.65674ZM16.6926 12.777L22.2661 8.40271V18.1873L16.6926 12.777ZM3.1416 5.59424H20.8598C21.2326 5.59466 21.5901 5.74295 21.8537 6.00659C22.1173 6.27022 22.2656 6.62766 22.266 7.00049V7.21096L13.2468 14.2899C12.9171 14.5474 12.5106 14.687 12.0923 14.6867C11.674 14.6864 11.2678 14.546 10.9384 14.2881L1.73535 7.20918V7.00049C1.73577 6.62766 1.88407 6.27022 2.1477 6.00659C2.41133 5.74295 2.76877 5.59466 3.1416 5.59424ZM7.47463 12.8064L1.73535 18.2062V8.39193L7.47463 12.8064ZM20.8598 19.9661H3.1416C2.90153 19.966 2.66548 19.9044 2.45594 19.7872C2.2464 19.67 2.07033 19.5012 1.94451 19.2967L8.22735 13.3858L10.364 15.0292C10.8581 15.4152 11.4672 15.6248 12.0942 15.6246C12.7212 15.6245 13.3302 15.4146 13.8241 15.0283L15.9485 13.3614L22.0593 19.293C21.9337 19.4985 21.7575 19.6683 21.5475 19.7861C21.3374 19.904 21.1007 19.966 20.8598 19.9661Z" fill="#FFF8E7"/>
</svg>
