<svg width="259" height="57" viewBox="0 0 259 57" fill="none" xmlns="http://www.w3.org/2000/svg">
<path d="M41.2267 48.6631L41.0975 48.4585L40.6775 47.7908L40.6667 47.7584L37.0267 41.9646H18.9775L15.3483 47.7584L15.3375 47.7908L14.9175 48.4585L14.7882 48.6631C14.4867 49.2231 14.3467 49.8262 14.3467 50.4615V51.7215C14.3467 52.3892 14.8851 52.9277 15.5529 52.9277H40.4514C41.1191 52.9277 41.6683 52.3892 41.6683 51.7215V50.4615C41.6683 49.8262 41.5175 49.2231 41.2267 48.6631Z" fill="#A435F0"/>
<path opacity="0.07" d="M41.0975 48.4589H14.9175L15.3375 47.7912L15.3482 47.7589L18.9775 41.9651H37.0267L40.6667 47.7589L40.6775 47.7912L41.0975 48.4589Z" fill="black"/>
<path d="M50.9406 4.62866H5.05929C3.45509 4.62866 2.15454 5.96679 2.15454 7.61748V42.0374C2.15454 43.6881 3.45508 45.0262 5.05929 45.0262H50.9406C52.5449 45.0262 53.8453 43.6881 53.8453 42.0374V7.61748C53.8453 5.9668 52.5449 4.62866 50.9406 4.62866Z" fill="white"/>
<path opacity="0.04" d="M53.8427 7.62254V42.041C53.8427 43.6887 52.5397 45.0241 50.9351 45.0241H5.05809C3.45349 45.0241 2.15039 43.6887 2.15039 42.041V38.0887H26.1765C37.6458 38.0887 46.9397 28.7948 46.9397 17.3256V4.62866H50.9351C52.5397 4.62866 53.8427 5.9641 53.8427 7.62254Z" fill="black"/>
<path d="M44.7244 31.3251C45.93 31.3251 46.9074 30.3477 46.9074 29.1422C46.9074 27.9366 45.93 26.9592 44.7244 26.9592C43.5188 26.9592 42.5415 27.9366 42.5415 29.1422C42.5415 30.3477 43.5188 31.3251 44.7244 31.3251Z" fill="#A435F0"/>
<path opacity="0.04" d="M46.9042 29.1456C46.9042 30.3511 45.9297 31.3257 44.7241 31.3257C43.7999 31.3257 43.0163 30.753 42.6948 29.9393C42.9359 30.0397 43.2072 30.0899 43.4885 30.0899C44.694 30.0899 45.6685 29.1054 45.6685 27.8998C45.6685 27.6186 45.6183 27.3473 45.5178 27.1062C46.3316 27.4277 46.9042 28.2213 46.9042 29.1456Z" fill="black"/>
<path d="M26.8186 11.8779L6.75122 20.2973L26.8186 27.6269L46.9075 20.2973L26.8186 11.8779Z" fill="#A435F0"/>
<path opacity="0.04" d="M46.9072 20.298L38.9057 23.2164C38.5826 23.0226 33.3057 19.8995 26.8334 19.8995C20.1565 19.8995 14.7503 23.2272 14.7503 23.2272L6.74878 20.298L10.4857 18.7256L14.1364 20.061C14.5134 20.201 14.9334 20.1795 15.2995 19.9856C16.8288 19.1564 21.4057 16.9595 26.8334 16.9595C32.2288 16.9595 36.795 19.1349 38.3457 19.9641C38.7118 20.158 39.1426 20.1902 39.5195 20.0502L43.1595 18.7256L46.9072 20.298Z" fill="black"/>
<path d="M26.8292 19.9048C20.1511 19.9048 14.7507 23.2272 14.7507 23.2272V32.8028H38.9189V23.2272C38.9189 23.2272 33.5074 19.9048 26.8292 19.9048Z" fill="#A435F0"/>
<path opacity="0.04" d="M38.9166 23.2272V32.8011H38.9059C38.572 32.6073 33.2951 29.4841 26.8336 29.4841C20.3613 29.4841 15.0843 32.6072 14.7613 32.8011H14.7505V29.4841H14.7613C15.0843 29.2903 20.3613 26.1672 26.8336 26.1672C28.0828 26.1672 29.2997 26.2857 30.4305 26.4796C32.7889 26.8672 34.932 25.0364 34.932 22.6457V21.4072C37.3767 22.2795 38.9166 23.2272 38.9166 23.2272Z" fill="black"/>
<path d="M38.9135 32.8066C38.9135 32.8066 33.5033 36.13 26.8294 36.13C20.1556 36.13 14.7454 32.8066 14.7454 32.8066C14.7454 32.8066 20.1556 29.4832 26.8294 29.4832C33.5033 29.4832 38.9135 32.8066 38.9135 32.8066Z" fill="#A435F0"/>
<path opacity="0.04" d="M38.9166 32.812C38.9166 32.812 33.4998 36.1288 26.8336 36.1288C20.1567 36.1288 14.7505 32.812 14.7505 32.812C14.7505 32.812 15.8598 32.1227 17.7228 31.3796C19.9305 32.2735 23.1936 33.2643 26.8336 33.2643C30.4628 33.2643 33.7259 32.2735 35.9443 31.3796C37.7967 32.1227 38.9166 32.812 38.9166 32.812Z" fill="black"/>
<path d="M50.9405 3.55176H5.05931C2.86393 3.55176 1.07764 5.3759 1.07764 7.61756V42.0376C1.07764 44.2792 2.86392 46.1034 5.05931 46.1034H15.1221L13.8377 48.1584C13.4586 48.8693 13.2661 49.6433 13.2661 50.4584V51.7199C13.2661 52.9819 14.2931 54.0089 15.5551 54.0089H40.4547C41.7168 54.0089 42.7437 52.9819 42.7437 51.7199V50.4584C42.7437 49.6428 42.5513 48.8688 42.1369 48.0974C42.0697 47.9893 40.8174 45.9759 40.8966 46.1034H50.9405C53.1359 46.1034 54.9222 44.2792 54.9222 42.0376V7.61756C54.9222 5.3759 53.1359 3.55176 50.9405 3.55176ZM40.2712 49.1722C40.7435 50.0557 40.5416 50.7508 40.5899 51.7199C40.5899 51.793 40.5278 51.855 40.4548 51.855H15.5551C15.482 51.855 15.42 51.793 15.42 51.7199V50.4584C15.42 50.0004 15.5272 49.5676 15.7034 49.2321L17.6599 46.1034H38.3572C38.4917 46.3189 40.3906 49.3636 40.2712 49.1722ZM52.7684 42.0376C52.7684 43.0919 51.9486 43.9495 50.9405 43.9495H5.05931C4.05127 43.9495 3.23148 43.0919 3.23148 42.0376V7.61756C3.23148 6.56325 4.05127 5.7056 5.05931 5.7056H50.9405C51.9486 5.7056 52.7684 6.56325 52.7684 7.61756V42.0376Z" fill="#1F1D0D"/>
<path d="M26.8389 12.759C26.8378 12.7585 26.8371 12.7583 26.8359 12.7578C26.841 12.76 26.8457 12.7618 26.8528 12.7648C26.8468 12.7623 26.8431 12.7607 26.8389 12.759ZM26.8958 12.7829C26.8916 12.7812 26.8874 12.7794 26.8831 12.7775C26.8813 12.7768 26.8785 12.7756 26.8768 12.7749C26.8831 12.7775 26.8888 12.78 26.8958 12.7829Z" fill="#292A66"/>
<path d="M47.1838 21.0539C47.4961 20.9462 47.7115 20.6446 47.7115 20.3108C47.7222 19.9877 47.5284 19.6862 47.2161 19.5569L27.1315 11.1354C26.9269 11.0493 26.7008 11.0493 26.5069 11.1354L6.44383 19.5569C6.13148 19.6862 5.93765 19.9877 5.94843 20.3108C5.94843 20.6446 6.16382 20.9462 6.47611 21.0539L13.9392 23.7785V32.7816C13.9392 32.7924 13.9392 32.8031 13.9392 32.8031C13.9392 33.1154 14.2192 33.4601 14.3269 33.4923C14.553 33.6323 20.0023 36.9385 26.83 36.9385C33.6576 36.9385 39.1069 33.6323 39.333 33.4923C39.5053 33.4062 39.7315 33.0831 39.7315 32.8031V23.7785L43.9207 22.2493V26.2554C42.6608 26.6108 41.7346 27.7739 41.7346 29.1416C41.7346 30.7892 43.0807 32.1354 44.7284 32.1354C46.3761 32.1354 47.7115 30.7892 47.7115 29.1416C47.7115 27.7739 46.7961 26.6108 45.5361 26.2554V21.657L47.1838 21.0539ZM26.83 35.3231C22.35 35.3231 18.4192 33.7508 16.47 32.8031C18.4192 31.8661 22.3392 30.2939 26.83 30.2939C31.31 30.2939 35.2408 31.8661 37.19 32.8031C35.2407 33.7508 31.3207 35.3231 26.83 35.3231ZM38.1161 31.457C36.1023 30.4554 31.8376 28.6785 26.83 28.6785C21.8223 28.6785 17.5684 30.4447 15.5546 31.4462C15.5546 31.3385 15.5546 23.6924 15.5546 23.6924C19.5822 21.5923 23.4269 20.7093 26.83 20.7093C30.6961 20.7093 34.8207 21.9154 38.1161 23.6924V31.457ZM38.9776 22.3354C37.6207 21.5708 32.7423 19.0939 26.83 19.0939C20.8961 19.0939 16.0069 21.5815 14.6823 22.3354L8.96379 20.2462L26.8192 12.7508C26.8259 12.7536 26.8294 12.7551 26.8359 12.7578L26.8319 12.7561C26.8319 12.7561 26.8368 12.7581 26.8388 12.759C26.8557 12.766 26.8681 12.7713 26.8831 12.7775C26.9064 12.7872 26.938 12.8005 26.9777 12.8172C26.9494 12.8053 26.921 12.7934 26.8957 12.7829C26.9608 12.8101 27.0132 12.8322 27.046 12.8459C27.05 12.8475 27.0524 12.8486 27.0565 12.8503C27.092 12.8651 27.1072 12.8715 27.1072 12.8715C28.0576 13.27 31.8278 14.8508 44.6961 20.2462C44.5838 20.2872 38.5976 22.4742 38.9776 22.3354ZM27.102 12.8693C27.0949 12.8663 27.0826 12.8611 27.065 12.8538C27.0759 12.8584 27.0903 12.8644 27.102 12.8693ZM46.0961 29.1416C46.0961 29.8954 45.4823 30.52 44.7284 30.52C43.9638 30.52 43.3499 29.8954 43.3499 29.1416C43.3499 28.3863 43.979 27.7631 44.7284 27.7631C45.4695 27.7631 46.0961 28.3661 46.0961 29.1416Z" fill="#1F1D0D"/>
<path d="M87.84 21.1403C87.84 21.2736 87.7867 21.3936 87.68 21.5003C87.6 21.5803 87.4933 21.6203 87.36 21.6203H74.28C74.1467 21.6203 74.08 21.6869 74.08 21.8203V28.0203C74.08 28.1536 74.1467 28.2203 74.28 28.2203H82.88C83.0133 28.2203 83.12 28.2736 83.2 28.3803C83.3067 28.4603 83.36 28.5669 83.36 28.7003V32.5803C83.36 32.7136 83.3067 32.8336 83.2 32.9403C83.12 33.0203 83.0133 33.0603 82.88 33.0603H74.28C74.1467 33.0603 74.08 33.1269 74.08 33.2603V44.3003C74.08 44.4336 74.0267 44.5536 73.92 44.6603C73.84 44.7403 73.7333 44.7803 73.6 44.7803H68.92C68.7867 44.7803 68.6667 44.7403 68.56 44.6603C68.48 44.5536 68.44 44.4336 68.44 44.3003V17.2603C68.44 17.1269 68.48 17.0203 68.56 16.9403C68.6667 16.8336 68.7867 16.7803 68.92 16.7803H87.36C87.4933 16.7803 87.6 16.8336 87.68 16.9403C87.7867 17.0203 87.84 17.1269 87.84 17.2603V21.1403ZM93.5028 21.9003C92.5961 21.9003 91.8361 21.6069 91.2228 21.0203C90.6361 20.4069 90.3428 19.6469 90.3428 18.7403C90.3428 17.8069 90.6361 17.0469 91.2228 16.4603C91.8095 15.8736 92.5695 15.5803 93.5028 15.5803C94.4361 15.5803 95.1961 15.8736 95.7828 16.4603C96.3695 17.0469 96.6628 17.8069 96.6628 18.7403C96.6628 19.6469 96.3561 20.4069 95.7428 21.0203C95.1561 21.6069 94.4095 21.9003 93.5028 21.9003ZM91.1028 44.7803C90.9695 44.7803 90.8495 44.7403 90.7428 44.6603C90.6628 44.5536 90.6228 44.4336 90.6228 44.3003V24.6603C90.6228 24.5269 90.6628 24.4203 90.7428 24.3403C90.8495 24.2336 90.9695 24.1803 91.1028 24.1803H95.7828C95.9161 24.1803 96.0228 24.2336 96.1028 24.3403C96.2095 24.4203 96.2628 24.5269 96.2628 24.6603V44.3003C96.2628 44.4336 96.2095 44.5536 96.1028 44.6603C96.0228 44.7403 95.9161 44.7803 95.7828 44.7803H91.1028ZM111.378 23.9003C113.511 23.9003 115.231 24.5536 116.538 25.8603C117.845 27.1669 118.498 28.9403 118.498 31.1803V44.3003C118.498 44.4336 118.445 44.5536 118.338 44.6603C118.258 44.7403 118.151 44.7803 118.018 44.7803H113.338C113.205 44.7803 113.085 44.7403 112.978 44.6603C112.898 44.5536 112.858 44.4336 112.858 44.3003V32.3403C112.858 31.2736 112.551 30.4069 111.938 29.7403C111.351 29.0736 110.565 28.7403 109.578 28.7403C108.591 28.7403 107.791 29.0736 107.178 29.7403C106.591 30.4069 106.298 31.2736 106.298 32.3403V44.3003C106.298 44.4336 106.245 44.5536 106.138 44.6603C106.058 44.7403 105.951 44.7803 105.818 44.7803H101.138C101.005 44.7803 100.885 44.7403 100.778 44.6603C100.698 44.5536 100.658 44.4336 100.658 44.3003V24.7003C100.658 24.5669 100.698 24.4603 100.778 24.3803C100.885 24.2736 101.005 24.2203 101.138 24.2203H105.818C105.951 24.2203 106.058 24.2736 106.138 24.3803C106.245 24.4603 106.298 24.5669 106.298 24.7003V26.1003C106.298 26.1803 106.325 26.2336 106.378 26.2603C106.431 26.2869 106.471 26.2736 106.498 26.2203C107.591 24.6736 109.218 23.9003 111.378 23.9003ZM135.176 17.2603C135.176 17.1269 135.216 17.0203 135.296 16.9403C135.403 16.8336 135.523 16.7803 135.656 16.7803H140.336C140.469 16.7803 140.576 16.8336 140.656 16.9403C140.763 17.0203 140.816 17.1269 140.816 17.2603V44.3003C140.816 44.4336 140.763 44.5536 140.656 44.6603C140.576 44.7403 140.469 44.7803 140.336 44.7803H135.656C135.523 44.7803 135.403 44.7403 135.296 44.6603C135.216 44.5536 135.176 44.4336 135.176 44.3003V42.9803C135.176 42.9003 135.149 42.8603 135.096 42.8603C135.043 42.8336 134.989 42.8469 134.936 42.9003C133.816 44.3669 132.283 45.1003 130.336 45.1003C128.469 45.1003 126.856 44.5803 125.496 43.5403C124.163 42.5003 123.203 41.0736 122.616 39.2603C122.163 37.8736 121.936 36.2603 121.936 34.4203C121.936 32.5269 122.176 30.8736 122.656 29.4603C123.269 27.7536 124.229 26.4069 125.536 25.4203C126.869 24.4069 128.509 23.9003 130.456 23.9003C132.376 23.9003 133.869 24.5669 134.936 25.9003C134.989 25.9803 135.043 26.0069 135.096 25.9803C135.149 25.9536 135.176 25.9003 135.176 25.8203V17.2603ZM134.336 38.5403C134.869 37.5536 135.136 36.2069 135.136 34.5003C135.136 32.7136 134.843 31.3136 134.256 30.3003C133.643 29.2603 132.749 28.7403 131.576 28.7403C130.323 28.7403 129.376 29.2603 128.736 30.3003C128.069 31.3403 127.736 32.7536 127.736 34.5403C127.736 36.1403 128.016 37.4736 128.576 38.5403C129.243 39.6869 130.229 40.2603 131.536 40.2603C132.736 40.2603 133.669 39.6869 134.336 38.5403ZM164.752 16.7803C164.886 16.7803 164.992 16.8336 165.072 16.9403C165.179 17.0203 165.232 17.1269 165.232 17.2603V21.1803C165.232 21.3136 165.179 21.4336 165.072 21.5403C164.992 21.6203 164.886 21.6603 164.752 21.6603H157.592C157.459 21.6603 157.392 21.7269 157.392 21.8603V44.3003C157.392 44.4336 157.339 44.5536 157.232 44.6603C157.152 44.7403 157.046 44.7803 156.912 44.7803H152.232C152.099 44.7803 151.979 44.7403 151.872 44.6603C151.792 44.5536 151.752 44.4336 151.752 44.3003V21.8603C151.752 21.7269 151.686 21.6603 151.552 21.6603H144.592C144.459 21.6603 144.339 21.6203 144.232 21.5403C144.152 21.4336 144.112 21.3136 144.112 21.1803V17.2603C144.112 17.1269 144.152 17.0203 144.232 16.9403C144.339 16.8336 144.459 16.7803 144.592 16.7803H164.752ZM178.596 24.7003C178.596 24.5669 178.636 24.4603 178.716 24.3803C178.822 24.2736 178.942 24.2203 179.076 24.2203H183.756C183.889 24.2203 183.996 24.2736 184.076 24.3803C184.182 24.4603 184.236 24.5669 184.236 24.7003V44.3003C184.236 44.4336 184.182 44.5536 184.076 44.6603C183.996 44.7403 183.889 44.7803 183.756 44.7803H179.076C178.942 44.7803 178.822 44.7403 178.716 44.6603C178.636 44.5536 178.596 44.4336 178.596 44.3003V42.9403C178.596 42.8603 178.569 42.8203 178.516 42.8203C178.462 42.7936 178.409 42.8203 178.356 42.9003C177.289 44.3403 175.636 45.0603 173.396 45.0603C171.369 45.0603 169.702 44.4469 168.396 43.2203C167.089 41.9936 166.436 40.2736 166.436 38.0603V24.7003C166.436 24.5669 166.476 24.4603 166.556 24.3803C166.662 24.2736 166.782 24.2203 166.916 24.2203H171.556C171.689 24.2203 171.796 24.2736 171.876 24.3803C171.982 24.4603 172.036 24.5669 172.036 24.7003V36.6603C172.036 37.7269 172.316 38.5936 172.876 39.2603C173.462 39.9269 174.262 40.2603 175.276 40.2603C176.182 40.2603 176.929 39.9936 177.516 39.4603C178.102 38.9003 178.462 38.1803 178.596 37.3003V24.7003ZM200.193 28.2603C200.193 28.3936 200.139 28.5136 200.033 28.6203C199.953 28.7003 199.846 28.7403 199.713 28.7403H195.873C195.739 28.7403 195.673 28.8069 195.673 28.9403V37.4203C195.673 38.3003 195.846 38.9536 196.193 39.3803C196.566 39.8069 197.153 40.0203 197.953 40.0203H199.273C199.406 40.0203 199.513 40.0736 199.593 40.1803C199.699 40.2603 199.753 40.3669 199.753 40.5003V44.3003C199.753 44.5936 199.593 44.7669 199.273 44.8203C198.153 44.8736 197.353 44.9003 196.872 44.9003C194.659 44.9003 193.006 44.5403 191.913 43.8203C190.819 43.0736 190.259 41.6869 190.233 39.6603V28.9403C190.233 28.8069 190.166 28.7403 190.033 28.7403H187.753C187.619 28.7403 187.499 28.7003 187.393 28.6203C187.313 28.5136 187.273 28.3936 187.273 28.2603V24.7003C187.273 24.5669 187.313 24.4603 187.393 24.3803C187.499 24.2736 187.619 24.2203 187.753 24.2203H190.033C190.166 24.2203 190.233 24.1536 190.233 24.0203V19.2603C190.233 19.1269 190.273 19.0203 190.353 18.9403C190.459 18.8336 190.579 18.7803 190.713 18.7803H195.193C195.326 18.7803 195.433 18.8336 195.513 18.9403C195.619 19.0203 195.673 19.1269 195.673 19.2603V24.0203C195.673 24.1536 195.739 24.2203 195.873 24.2203H199.713C199.846 24.2203 199.953 24.2736 200.033 24.3803C200.139 24.4603 200.193 24.5669 200.193 24.7003V28.2603ZM212.394 45.1003C210.154 45.1003 208.234 44.5136 206.634 43.3403C205.034 42.1669 203.941 40.5669 203.354 38.5403C202.981 37.2869 202.794 35.9269 202.794 34.4603C202.794 32.8869 202.981 31.4736 203.354 30.2203C203.968 28.2469 205.074 26.7003 206.674 25.5803C208.274 24.4603 210.194 23.9003 212.434 23.9003C214.621 23.9003 216.488 24.4603 218.034 25.5803C219.581 26.6736 220.674 28.2069 221.314 30.1803C221.741 31.5136 221.954 32.9136 221.954 34.3803C221.954 35.8203 221.768 37.1669 221.394 38.4203C220.808 40.5003 219.714 42.1403 218.114 43.3403C216.541 44.5136 214.634 45.1003 212.394 45.1003ZM212.394 40.2603C213.274 40.2603 214.021 39.9936 214.634 39.4603C215.248 38.9269 215.688 38.1936 215.954 37.2603C216.168 36.4069 216.274 35.4736 216.274 34.4603C216.274 33.3403 216.168 32.3936 215.954 31.6203C215.661 30.7136 215.208 30.0069 214.594 29.5003C213.981 28.9936 213.234 28.7403 212.354 28.7403C211.448 28.7403 210.688 28.9936 210.074 29.5003C209.488 30.0069 209.061 30.7136 208.794 31.6203C208.581 32.2603 208.474 33.2069 208.474 34.4603C208.474 35.6603 208.568 36.5936 208.754 37.2603C209.021 38.1936 209.461 38.9269 210.074 39.4603C210.714 39.9936 211.488 40.2603 212.394 40.2603ZM235.82 23.9403C236.78 23.9403 237.54 24.1269 238.1 24.5003C238.313 24.6069 238.393 24.8069 238.34 25.1003L237.5 29.6603C237.473 29.9803 237.287 30.0736 236.94 29.9403C236.54 29.8069 236.073 29.7403 235.54 29.7403C235.327 29.7403 235.033 29.7669 234.66 29.8203C233.7 29.9003 232.887 30.2603 232.22 30.9003C231.553 31.5136 231.22 32.3403 231.22 33.3803V44.3003C231.22 44.4336 231.167 44.5536 231.06 44.6603C230.98 44.7403 230.873 44.7803 230.74 44.7803H226.06C225.927 44.7803 225.807 44.7403 225.7 44.6603C225.62 44.5536 225.58 44.4336 225.58 44.3003V24.7003C225.58 24.5669 225.62 24.4603 225.7 24.3803C225.807 24.2736 225.927 24.2203 226.06 24.2203H230.74C230.873 24.2203 230.98 24.2736 231.06 24.3803C231.167 24.4603 231.22 24.5669 231.22 24.7003V26.2203C231.22 26.3003 231.247 26.3536 231.3 26.3803C231.353 26.4069 231.393 26.3936 231.42 26.3403C232.513 24.7403 233.98 23.9403 235.82 23.9403ZM248.78 45.0603C246.993 45.0603 245.433 44.8069 244.1 44.3003C242.767 43.7936 241.727 43.0869 240.98 42.1803C240.26 41.2736 239.9 40.2469 239.9 39.1003V38.7003C239.9 38.5669 239.94 38.4603 240.02 38.3803C240.127 38.2736 240.247 38.2203 240.38 38.2203H244.82C244.953 38.2203 245.06 38.2736 245.14 38.3803C245.247 38.4603 245.3 38.5669 245.3 38.7003V38.7403C245.3 39.3269 245.62 39.8336 246.26 40.2603C246.927 40.6603 247.753 40.8603 248.74 40.8603C249.647 40.8603 250.38 40.6869 250.94 40.3403C251.5 39.9669 251.78 39.5136 251.78 38.9803C251.78 38.5003 251.54 38.1403 251.06 37.9003C250.58 37.6603 249.793 37.4069 248.7 37.1403C247.447 36.8203 246.46 36.5136 245.74 36.2203C244.033 35.6336 242.673 34.9136 241.66 34.0603C240.647 33.2069 240.14 31.9803 240.14 30.3803C240.14 28.4069 240.9 26.8469 242.42 25.7003C243.967 24.5269 246.007 23.9403 248.54 23.9403C250.247 23.9403 251.74 24.2203 253.02 24.7803C254.3 25.3136 255.287 26.0736 255.98 27.0603C256.7 28.0469 257.06 29.1669 257.06 30.4203C257.06 30.5536 257.007 30.6736 256.9 30.7803C256.82 30.8603 256.713 30.9003 256.58 30.9003H252.3C252.167 30.9003 252.047 30.8603 251.94 30.7803C251.86 30.6736 251.82 30.5536 251.82 30.4203C251.82 29.8336 251.513 29.3403 250.9 28.9403C250.313 28.5403 249.527 28.3403 248.54 28.3403C247.66 28.3403 246.94 28.5003 246.38 28.8203C245.82 29.1403 245.54 29.5803 245.54 30.1403C245.54 30.6736 245.807 31.0736 246.34 31.3403C246.9 31.6069 247.82 31.8869 249.1 32.1803C249.393 32.2603 249.727 32.3536 250.1 32.4603C250.473 32.5403 250.873 32.6469 251.3 32.7803C253.193 33.3403 254.687 34.0603 255.78 34.9403C256.873 35.8203 257.42 37.1003 257.42 38.7803C257.42 40.7536 256.633 42.3003 255.06 43.4203C253.513 44.5136 251.42 45.0603 248.78 45.0603Z" fill="#1F1D0D"/>
</svg>
