<svg width="82" height="32" viewBox="0 0 82 32" fill="none" xmlns="http://www.w3.org/2000/svg">
<path d="M4.3741 21.3333H17.6103C20.5959 21.3333 22.9844 18.9629 22.9844 16C22.9844 13.037 20.5959 10.6667 17.6103 10.6667H11.44C8.45444 10.6667 6.06595 8.29629 6.06595 5.33333C6.06595 2.37037 8.45444 0 11.44 0H50.1535C53.1391 0 55.5276 2.37037 55.5276 5.33333C55.5276 8.29629 53.1391 10.6667 50.1535 10.6667H46.8693C43.8837 10.6667 41.4952 13.037 41.4952 16C41.4952 18.9629 43.8837 21.3333 46.8693 21.3333H76.6259C79.6115 21.3333 82 23.7037 82 26.6667C82 29.6296 79.6115 32 76.6259 32H4.3741C1.38849 32 -1 29.6296 -1 26.6667C-1 23.8025 1.38849 21.3333 4.3741 21.3333Z" fill="#8607DD"/>
</svg>
