<svg width="90" height="53" viewBox="0 0 90 53" fill="none" xmlns="http://www.w3.org/2000/svg">
<path d="M88.7778 31.8H41.4876C38.5864 31.8 36.1687 34.1555 36.1687 37.1C36.1687 40.0444 38.4897 42.4 41.4876 42.4H46.7099C49.6111 42.4 51.9321 44.7556 51.9321 47.7C51.9321 50.6445 49.6111 53 46.7099 53H14.893C11.9918 53 9.67078 50.6445 9.67078 47.7C9.67078 44.7556 11.9918 42.4 14.893 42.4H19.8251C22.7263 42.4 25.0473 40.0444 25.0473 37.1C25.0473 34.1555 22.7263 31.8 19.8251 31.8H5.22222C2.32098 31.8 0 29.4444 0 26.5C0 23.5556 2.32098 21.2 5.22222 21.2H38.4897C41.3909 21.2 43.7119 18.8445 43.7119 15.9C43.7119 12.9556 41.3909 10.6 38.4897 10.6H32.3971C29.4959 10.6 27.1749 8.24444 27.1749 5.29999C27.1749 2.35555 29.4959 0 32.3971 0H70.0164C72.9177 0 75.2387 2.35555 75.2387 5.29999C75.2387 8.24444 72.9177 10.6 70.0164 10.6H66.8251C63.9239 10.6 61.6029 12.9556 61.6029 15.9C61.6029 18.8445 63.9239 21.2 66.8251 21.2H88.7778C91.679 21.2 94 23.5556 94 26.5C94 29.4444 91.679 31.8 88.7778 31.8Z" fill="#8607DD"/>
</svg>
