<svg width="9" height="10" viewBox="0 0 9 10" fill="none" xmlns="http://www.w3.org/2000/svg">
<path d="M7.36301 8.14204L7.38105 8.15442L7.39794 8.16832C7.59715 8.33228 7.78522 8.36121 7.92092 8.33329C8.05458 8.30579 8.19289 8.21254 8.28222 8.01646L8.30009 7.97723L8.32441 7.94165C8.62113 7.50747 8.53364 6.96788 8.11821 6.62595C6.72738 5.48119 6.37326 3.56122 7.24827 2.02479L7.2584 2.00701L7.26995 1.99011C7.56665 1.55596 7.47915 1.01636 7.0637 0.674417C6.86862 0.513848 6.679 0.479076 6.5162 0.510609C6.34616 0.543543 6.15113 0.660366 5.98658 0.901144C4.95258 2.41414 3.15683 2.85557 1.69957 1.87431C1.51804 1.78128 1.27944 1.75387 1.05997 1.80739C0.837353 1.86168 0.680004 1.98567 0.605648 2.14887L0.593362 2.17584L0.577977 2.20116C0.512913 2.30827 0.469049 2.53982 0.526547 2.80802C0.583203 3.07228 0.711218 3.2494 0.843083 3.32175L0.884143 3.34428L0.920304 3.37405C2.31114 4.51881 2.66526 6.43878 1.79025 7.97521L1.78012 7.99299L1.76857 8.00989C1.47187 8.44404 1.55937 8.98364 1.97482 9.32558C2.1699 9.48615 2.35952 9.52092 2.52232 9.48939C2.69236 9.45646 2.88739 9.33963 3.05194 9.09886C4.09164 7.57752 5.9015 7.1396 7.36301 8.14204ZM3.33872 4.16178C3.57199 3.77778 3.9633 3.5438 4.35559 3.45771C4.74682 3.37185 5.2024 3.41996 5.5677 3.68723C5.92608 3.94943 6.12542 4.3704 6.19747 4.76571C6.26986 5.16288 6.23086 5.62535 6.0011 6.00355C5.76783 6.38755 5.37652 6.62153 4.98423 6.70762C4.593 6.79348 4.13742 6.74537 3.77212 6.4781C3.41374 6.2159 3.2144 5.79493 3.14235 5.39962C3.06996 5.00245 3.10897 4.53998 3.33872 4.16178Z" stroke="white"/>
</svg>
