<svg width="21" height="19" viewBox="0 0 21 19" fill="none" xmlns="http://www.w3.org/2000/svg">
<path d="M18.2694 7.47449C15.3753 7.47449 13.0238 5.42024 13.0238 2.89191V2.73388C13.0238 1.46972 11.9384 0.521606 10.4913 0.521606C9.04426 0.521606 7.95896 1.46972 7.95896 2.73388V2.89191C7.95896 5.42024 5.60746 7.47449 2.71328 7.47449C1.2662 7.47449 0 8.42263 0 9.68679C0 10.951 1.0853 12.0571 2.53239 12.0571H2.71328C5.60746 12.0571 7.95896 14.1113 7.95896 16.6397V16.7977C7.95896 18.0619 9.04426 19.01 10.4913 19.01C11.9384 19.01 13.0238 18.0619 13.0238 16.7977V16.6397C13.0238 14.1113 15.3753 12.0571 18.2694 12.0571H18.4503C19.8974 12.0571 21.1636 10.951 20.9827 9.68679C20.9827 8.42263 19.7165 7.47449 18.2694 7.47449ZM10.3105 11.7411C9.04428 11.7411 7.95896 10.7929 7.95896 9.68679C7.95896 8.58065 9.04428 7.63252 10.3105 7.63252C11.5767 7.63252 12.662 8.58065 12.662 9.68679C12.662 10.7929 11.5767 11.7411 10.3105 11.7411Z" fill="white"/>
</svg>
