<svg width="150" height="52" viewBox="0 0 150 52" fill="none" xmlns="http://www.w3.org/2000/svg">
<path d="M9.71223 17.8948H33.6331C39.0288 17.8948 43.3453 21.6773 43.3453 26.4054C43.3453 31.1334 39.0288 34.9159 33.6331 34.9159H22.482C17.0863 34.9159 12.7698 38.6983 12.7698 43.4264C12.7698 48.1545 17.0863 51.9369 22.482 51.9369H92.446C97.8417 51.9369 102.158 48.1545 102.158 43.4264C102.158 38.6983 97.8417 34.9159 92.446 34.9159H86.5108C81.1151 34.9159 76.7986 31.1334 76.7986 26.4054C76.7986 21.6773 81.1151 17.8948 86.5108 17.8948H140.288C145.683 17.8948 150 14.1124 150 9.38429C150 4.65622 145.683 0.873779 140.288 0.873779H9.71223C4.31655 0.873779 0 4.65622 0 9.38429C0 13.9548 4.31655 17.8948 9.71223 17.8948Z" fill="#8607DD"/>
</svg>
