<svg width="159" height="78" viewBox="0 0 159 78" fill="none" xmlns="http://www.w3.org/2000/svg">
<path d="M150.167 31.3556H70.1759C65.2685 31.3556 61.179 27.9123 61.179 23.6081C61.179 19.3039 65.1049 15.8606 70.1759 15.8606H79.0092C83.9166 15.8606 87.8426 12.4172 87.8426 8.11304C87.8426 3.80887 83.9166 0.36554 79.0092 0.36554H25.1913C20.2839 0.36554 16.358 3.80887 16.358 8.11304C16.358 12.4172 20.2839 15.8606 25.1913 15.8606H33.5339C38.4414 15.8606 42.3673 19.3039 42.3673 23.6081C42.3673 27.9123 38.4414 31.3556 33.5339 31.3556H8.83332C3.92592 31.3556 0 34.7989 0 39.1031C0 43.4073 3.92592 46.8506 8.83332 46.8506H65.1049C70.0123 46.8506 73.9383 50.2939 73.9383 54.5981C73.9383 58.9023 70.0123 62.3456 65.1049 62.3456H54.7994C49.892 62.3456 45.9661 65.7889 45.9661 70.0931C45.9661 74.3973 49.892 77.8406 54.7994 77.8406H118.432C123.339 77.8406 127.265 74.3973 127.265 70.0931C127.265 65.7889 123.339 62.3456 118.432 62.3456H113.034C108.127 62.3456 104.201 58.9023 104.201 54.5981C104.201 50.2939 108.127 46.8506 113.034 46.8506H150.167C155.074 46.8506 159 43.4073 159 39.1031C159 34.7989 155.074 31.3556 150.167 31.3556Z" fill="#8607DD"/>
</svg>
