<svg width="10" height="11" viewBox="0 0 10 11" fill="none" xmlns="http://www.w3.org/2000/svg">
<path d="M7.86688 1.97813C6.52784 2.77864 4.854 2.45843 3.84972 1.17761C3.34758 0.537205 2.51071 0.377083 1.84119 0.85739C1.17167 1.3377 1.00427 2.13823 1.50641 2.77864C2.34331 4.05946 2.00855 5.66047 0.669505 6.62109C-1.51645e-05 6.94129 -0.167375 7.90191 0.167385 8.38222C0.502146 9.02263 1.5064 9.18271 2.17592 8.86251C3.51496 8.062 5.1888 8.3822 6.19308 9.66302C6.69522 10.3034 7.53209 10.4636 8.20161 9.98324C8.87113 9.50294 9.03853 8.70241 8.53639 8.062C7.69949 6.78118 8.03425 5.18016 9.37329 4.21955C10.0428 3.73924 10.2102 2.93871 9.70802 2.2983C9.37326 1.65789 8.5364 1.49782 7.86688 1.97813ZM5.8583 6.30086C5.35616 6.62107 4.51926 6.46099 4.1845 5.98069C3.84974 5.50038 4.01714 4.69987 4.51928 4.37966C5.02142 4.05946 5.85832 4.21953 6.19308 4.69984C6.52784 5.18014 6.36044 5.98066 5.8583 6.30086Z" fill="white"/>
</svg>
