<svg width="36" height="37" viewBox="0 0 36 37" fill="none" xmlns="http://www.w3.org/2000/svg">
<path d="M26.5029 31.2818L26.4198 31.1503L26.1498 30.7211L26.1429 30.7003L23.8029 26.9756H12.1999L9.86678 30.7003L9.85985 30.7211L9.58984 31.1503L9.50677 31.2818C9.3129 31.6418 9.2229 32.0295 9.2229 32.438V33.2479C9.2229 33.6772 9.56905 34.0233 9.99833 34.0233H26.0045C26.4337 34.0233 26.7868 33.6772 26.7868 33.2479V32.438C26.7868 32.0295 26.6898 31.6418 26.5029 31.2818Z" fill="#8607DD"/>
<path opacity="0.07" d="M26.4198 31.1506H9.58984L9.85984 30.7213L9.86677 30.7006L12.1998 26.976H23.8029L26.1429 30.7006L26.1498 30.7213L26.4198 31.1506Z" fill="black"/>
<path d="M32.7475 2.974H3.25235C2.22108 2.974 1.38501 3.83423 1.38501 4.89538V27.0225C1.38501 28.0836 2.22107 28.9439 3.25235 28.9439H32.7475C33.7788 28.9439 34.6148 28.0836 34.6148 27.0225V4.89538C34.6148 3.83423 33.7788 2.974 32.7475 2.974Z" fill="white"/>
<path opacity="0.04" d="M34.6133 4.89864V27.0248C34.6133 28.084 33.7757 28.9425 32.7441 28.9425H3.25181C2.22027 28.9425 1.38257 28.084 1.38257 27.0248V24.484H16.828C24.201 24.484 30.1757 18.5094 30.1757 11.1363V2.974H32.7441C33.7757 2.974 34.6133 3.8325 34.6133 4.89864Z" fill="black"/>
<path d="M28.7517 20.1359C29.5267 20.1359 30.155 19.5076 30.155 18.7326C30.155 17.9576 29.5267 17.3293 28.7517 17.3293C27.9767 17.3293 27.3484 17.9576 27.3484 18.7326C27.3484 19.5076 27.9767 20.1359 28.7517 20.1359Z" fill="#8607DD"/>
<path opacity="0.04" d="M30.1528 18.7348C30.1528 19.5098 29.5264 20.1363 28.7513 20.1363C28.1572 20.1363 27.6535 19.7682 27.4468 19.245C27.6018 19.3096 27.7762 19.3419 27.957 19.3419C28.732 19.3419 29.3584 18.709 29.3584 17.934C29.3584 17.7531 29.3262 17.5788 29.2616 17.4238C29.7847 17.6304 30.1528 18.1406 30.1528 18.7348Z" fill="black"/>
<path d="M17.2405 7.63422L4.34009 13.0467L17.2405 17.7585L30.1549 13.0467L17.2405 7.63422Z" fill="#1F1D0D"/>
<path opacity="0.04" d="M30.1548 13.0471L25.0109 14.9232C24.8032 14.7986 21.411 12.7909 17.2502 12.7909C12.9579 12.7909 9.48246 14.9301 9.48246 14.9301L4.33862 13.0471L6.74095 12.0363L9.08784 12.8947C9.33018 12.9847 9.60014 12.9709 9.83555 12.8463C10.8186 12.3132 13.7609 10.9009 17.2502 10.9009C20.7186 10.9009 23.654 12.2994 24.6509 12.8324C24.8863 12.9571 25.1632 12.9778 25.4055 12.8878L27.7455 12.0363L30.1548 13.0471Z" fill="black"/>
<path d="M17.2474 12.7942C12.9543 12.7942 9.48267 14.93 9.48267 14.93V21.0858H25.0193V14.93C25.0193 14.93 21.5405 12.7942 17.2474 12.7942Z" fill="#8607DD"/>
<path opacity="0.04" d="M25.0178 14.9301V21.0848H25.0109C24.7963 20.9602 21.404 18.9524 17.2501 18.9524C13.0894 18.9524 9.69703 20.9601 9.48935 21.0848H9.48242V18.9524H9.48935C9.69704 18.8278 13.0894 16.8201 17.2501 16.8201C18.0532 16.8201 18.8355 16.8963 19.5624 17.0209C21.0786 17.2701 22.4563 16.0932 22.4563 14.5563V13.7601C24.0278 14.3209 25.0178 14.9301 25.0178 14.9301Z" fill="black"/>
<path d="M25.0159 21.0882C25.0159 21.0882 21.5379 23.2247 17.2476 23.2247C12.9572 23.2247 9.47925 21.0882 9.47925 21.0882C9.47925 21.0882 12.9572 18.9517 17.2476 18.9517C21.5379 18.9517 25.0159 21.0882 25.0159 21.0882Z" fill="#8607DD"/>
<path opacity="0.04" d="M25.0178 21.0917C25.0178 21.0917 21.5355 23.224 17.2501 23.224C12.9578 23.224 9.48242 21.0917 9.48242 21.0917C9.48242 21.0917 10.1955 20.6486 11.3932 20.1709C12.8124 20.7455 14.9101 21.3824 17.2501 21.3824C19.5832 21.3824 21.6809 20.7455 23.107 20.1709C24.2978 20.6486 25.0178 21.0917 25.0178 21.0917Z" fill="black"/>
<path d="M32.7476 2.28162H3.25252C1.8412 2.28162 0.692871 3.45428 0.692871 4.89535V27.0225C0.692871 28.4636 1.84119 29.6362 3.25252 29.6362H9.72144L8.89577 30.9573C8.65204 31.4143 8.52832 31.9119 8.52832 32.4359V33.2468C8.52832 34.0581 9.18851 34.7183 9.99981 34.7183H26.0067C26.818 34.7183 27.4782 34.0581 27.4782 33.2468V32.4359C27.4782 31.9116 27.3545 31.414 27.0881 30.9181C27.0449 30.8486 26.2398 29.5543 26.2908 29.6362H32.7476C34.1589 29.6362 35.3072 28.4636 35.3072 27.0225V4.89535C35.3072 3.45428 34.1589 2.28162 32.7476 2.28162ZM25.8888 31.609C26.1924 32.177 26.0626 32.6239 26.0936 33.2468C26.0936 33.2938 26.0537 33.3337 26.0067 33.3337H9.99981C9.95283 33.3337 9.91293 33.2938 9.91293 33.2468V32.4359C9.91293 32.1414 9.9819 31.8632 10.0951 31.6476L11.3529 29.6362H24.6583C24.7448 29.7748 25.9655 31.7321 25.8888 31.609ZM33.9226 27.0225C33.9226 27.7003 33.3956 28.2516 32.7476 28.2516H3.25252C2.60449 28.2516 2.07749 27.7003 2.07749 27.0225V4.89535C2.07749 4.21758 2.60449 3.66623 3.25252 3.66623H32.7476C33.3956 3.66623 33.9226 4.21758 33.9226 4.89535V27.0225Z" fill="#1F1D0D"/>
<path d="M17.2536 8.20053C17.2529 8.20023 17.2524 8.20007 17.2517 8.19977C17.255 8.20116 17.258 8.20234 17.2626 8.20429C17.2587 8.20268 17.2563 8.20163 17.2536 8.20053ZM17.2902 8.21587C17.2875 8.21477 17.2848 8.21364 17.282 8.21245C17.2809 8.21195 17.2791 8.21122 17.278 8.21076C17.282 8.21244 17.2857 8.21401 17.2902 8.21587Z" fill="#292A66"/>
<path d="M30.3327 13.533C30.5335 13.4638 30.672 13.2699 30.672 13.0553C30.6789 12.8476 30.5542 12.6537 30.3535 12.5707L17.4419 7.15681C17.3104 7.10146 17.165 7.10146 17.0404 7.15681L4.14272 12.5707C3.94193 12.6537 3.81732 12.8476 3.82425 13.0553C3.82425 13.2699 3.96272 13.4638 4.16347 13.533L8.96116 15.2845V21.0722C8.96116 21.0792 8.96116 21.0861 8.96116 21.0861C8.96116 21.2868 9.14117 21.5084 9.21042 21.5291C9.35578 21.6191 12.8589 23.7445 17.2481 23.7445C21.6373 23.7445 25.1404 21.6191 25.2858 21.5291C25.3965 21.4738 25.5419 21.2661 25.5419 21.0861V15.2845L28.235 14.3014V16.8768C27.425 17.1053 26.8296 17.853 26.8296 18.7322C26.8296 19.7914 27.695 20.6568 28.7543 20.6568C29.8135 20.6568 30.672 19.7914 30.672 18.7322C30.672 17.853 30.0835 17.1053 29.2735 16.8768V13.9207L30.3327 13.533ZM17.2481 22.7061C14.3681 22.7061 11.8412 21.6953 10.5881 21.0861C11.8412 20.4837 14.3612 19.473 17.2481 19.473C20.1281 19.473 22.655 20.4837 23.9081 21.0861C22.655 21.6953 20.135 22.7061 17.2481 22.7061ZM24.5035 20.2207C23.2089 19.5768 20.4673 18.4345 17.2481 18.4345C14.0289 18.4345 11.2942 19.5699 9.99963 20.2138C9.99963 20.1445 9.99963 15.2291 9.99963 15.2291C12.5889 13.8791 15.0604 13.3114 17.2481 13.3114C19.7335 13.3114 22.385 14.0868 24.5035 15.2291V20.2207ZM25.0573 14.3568C24.185 13.8653 21.0489 12.273 17.2481 12.273C13.4335 12.273 10.2904 13.8722 9.43885 14.3568L5.7627 13.0138L17.2412 8.19527C17.2455 8.19709 17.2478 8.19806 17.2519 8.1998L17.2493 8.19869C17.2493 8.19869 17.2525 8.2 17.2538 8.20056C17.2646 8.20508 17.2726 8.20846 17.2822 8.21247C17.2972 8.21872 17.3175 8.22726 17.3431 8.238C17.3249 8.23035 17.3066 8.2227 17.2904 8.2159C17.3322 8.23343 17.3659 8.24759 17.387 8.25642C17.3895 8.25748 17.3911 8.25815 17.3937 8.25925C17.4166 8.2688 17.4263 8.2729 17.4263 8.2729C18.0373 8.52909 20.461 9.54528 28.7335 13.0138C28.6613 13.0401 24.813 14.4461 25.0573 14.3568ZM17.423 8.2715C17.4184 8.26956 17.4105 8.26622 17.3992 8.26154C17.4062 8.26449 17.4154 8.26833 17.423 8.2715ZM29.6335 18.7322C29.6335 19.2168 29.2389 19.6184 28.7543 19.6184C28.2627 19.6184 27.8681 19.2168 27.8681 18.7322C27.8681 18.2467 28.2725 17.846 28.7543 17.846C29.2307 17.846 29.6335 18.2337 29.6335 18.7322Z" fill="#1F1D0D"/>
</svg>
