<svg width="560" height="261" viewBox="0 0 560 261" fill="none" xmlns="http://www.w3.org/2000/svg">
<path d="M145.897 209.483C137.898 209.483 130.172 207.843 123.062 204.837V235.652H162.989V206.955C157.588 208.595 151.845 209.483 145.897 209.483Z" fill="#1F1D0D"/>
<path d="M400.156 146.488C398.379 165.619 394.482 183.93 390.653 191.992C387.098 199.44 375.407 219.254 351.547 230.391C335.002 238.111 319.824 238.111 313.124 238.043C308.749 237.975 291.452 237.565 276.479 230.391C238.945 209.278 232.45 164.799 231.015 144.302C233.954 145.053 236.21 146.215 236.826 146.556H274.701C276.206 161.793 280.923 184.818 296.442 196.775C303.826 201.626 312.304 201.899 314.423 201.968C317.705 202.036 325.157 202.036 333.293 196.775C344.984 189.259 350.795 175.936 352.504 170.948C354.076 166.37 355.717 157.01 356.674 146.556C357.495 137.742 357.905 128.109 357.495 119.978C357.426 118.748 357.358 117.518 357.29 116.22C356.743 107.748 355.717 97.1576 351.684 84.9958C351.615 84.7225 351.547 84.5175 351.41 84.3126C343.821 61.9704 326.114 49.1254 308.475 53.7715C308.202 53.8398 307.928 53.9081 307.586 53.9764C298.904 56.5045 292.409 62.312 287.76 68.1196C282.222 75.0887 278.393 84.1076 276.479 94.083C275.18 100.71 274.428 108.158 274.086 116.22H236.894C236.21 116.562 233.749 117.792 230.604 118.543C231.015 103.443 232.655 89.7785 235.869 77.8901C239.834 63.1319 247.628 49.7403 258.84 39.4233C268.207 30.8144 281.47 22.2055 299.177 18.3793C299.792 18.2427 300.339 18.1743 300.955 18.0377C336.916 11.0003 372.878 30.0628 388.397 63.2686C388.534 63.6102 388.739 63.9518 388.876 64.3618C398.31 85.0641 399.746 102.76 400.703 116.152C400.703 116.22 400.703 116.288 400.703 116.288C401.387 125.649 401.113 136.171 400.156 146.488Z" fill="#1F1D0D"/>
<path d="M546.463 20.7024V234.695H502.708V146.488H510.57C516.518 146.488 521.372 141.637 521.372 135.693V126.947C521.372 121.003 516.518 116.152 510.57 116.152H502.708V68.188C497.922 73.1073 490.607 79.4615 480.625 84.9275C469.139 91.2133 458.542 93.878 451.295 95.1762C449.313 82.6045 447.262 70.0327 445.279 57.461C453.688 56.0262 466.2 52.8149 479.736 45.3675C494.367 37.2369 504.212 27.4665 509.955 20.7024H546.463Z" fill="#1F1D0D"/>
<path d="M521.372 126.947V127.904C521.372 121.413 516.108 116.152 509.613 116.152H510.57C516.518 116.152 521.372 121.003 521.372 126.947Z" stroke="black" stroke-miterlimit="10"/>
<path d="M521.372 134.736V135.693C521.372 141.705 516.518 146.488 510.57 146.488H509.613C516.108 146.488 521.372 141.227 521.372 134.736Z" stroke="black" stroke-miterlimit="10"/>
<path d="M431.674 146.488V145.736C431.674 146.01 431.674 146.283 431.605 146.488H431.674ZM431.605 116.152C431.674 116.425 431.674 116.698 431.674 116.972V116.152H431.605ZM509.613 146.488H510.57C516.518 146.488 521.372 141.637 521.372 135.693V134.736C521.372 141.227 516.108 146.488 509.613 146.488ZM510.57 116.152H509.613C516.108 116.152 521.372 121.413 521.372 127.904V126.947C521.372 121.003 516.518 116.152 510.57 116.152Z" stroke="black" stroke-miterlimit="10"/>
<path d="M415.06 145.736C415.06 146.01 415.06 146.283 415.129 146.488H400.156C401.113 136.171 401.387 125.649 400.772 116.288C400.772 116.22 400.772 116.152 400.772 116.152H415.197C415.129 116.425 415.129 116.698 415.129 116.972V145.736H415.06Z" fill="#A435F0"/>
<path d="M356.743 146.488H236.894C236.279 146.146 233.954 144.985 231.083 144.233C227.596 143.345 223.152 143.003 219.46 145.258C217.273 146.625 215.837 148.538 214.606 150.314C210.914 155.37 209.821 160.29 209.342 161.998C208.316 165.824 205.992 170.948 200.317 176.961C191.361 191.446 178.303 202.241 163.057 206.887C157.588 208.595 151.845 209.483 145.965 209.483C137.966 209.483 130.241 207.843 123.13 204.837C113.149 200.601 104.329 193.7 97.2189 184.886C89.9719 175.868 84.5025 164.867 81.4943 152.637C79.8535 145.805 78.9647 138.562 78.9647 131.115C78.9647 128.177 79.1015 125.239 79.3749 122.369L123.13 57.8709V84.5175C114.516 90.8034 108.978 100.505 108.978 111.437C108.978 118.748 111.508 125.581 115.747 131.183C111.508 136.718 108.978 143.55 108.978 150.861C108.978 151.476 108.978 152.022 109.047 152.637C110.072 170.675 126.207 185.023 146.033 185.023C165.86 185.023 181.995 170.675 183.02 152.637C183.02 152.022 183.089 151.476 183.089 150.861C183.089 143.55 180.559 136.718 176.32 131.183C180.559 125.581 183.089 118.816 183.089 111.437C183.089 98.2508 175.021 86.8406 163.194 81.1013V55.2746C178.85 60.1257 192.25 71.3992 201.206 86.4989C206.265 92.1016 208.453 96.8843 209.41 100.574C209.889 102.282 210.983 107.201 214.675 112.257C215.974 114.034 217.341 116.015 219.529 117.313C223.084 119.5 227.254 119.226 230.673 118.407C233.818 117.655 236.279 116.425 236.963 116.083H357.426C357.495 117.382 357.563 118.612 357.632 119.841C357.973 128.109 357.563 137.674 356.743 146.488Z" fill="#A435F0"/>
<path d="M182.884 152.569C181.858 170.607 165.723 184.955 145.897 184.955C126.07 184.955 109.935 170.607 108.91 152.569H123.062V57.8709L79.3066 122.369L58.7963 152.569H81.426C84.3658 164.799 89.8352 175.799 97.1506 184.818H15.7246V159.265L20.3052 152.569L109.525 21.044H163.057V152.569H182.884Z" fill="#1F1D0D"/>
<path d="M521.372 127.904V134.736C521.372 141.227 516.108 146.488 509.613 146.488H502.708V193.154C502.434 193.222 502.229 193.29 501.956 193.29H500.452C499.016 193.29 497.785 192.129 497.785 190.626V163.227H486.3V173.954C486.3 175.389 485.137 176.619 483.633 176.619H482.129C480.694 176.619 479.463 175.458 479.463 173.954V163.227H467.909V173.954C467.909 175.389 466.746 176.619 465.242 176.619H463.738C462.303 176.619 461.072 175.458 461.072 173.954V163.227H449.928V190.626C449.928 192.06 448.766 193.29 447.262 193.29H445.758C444.322 193.29 443.091 192.129 443.091 190.626V146.488H431.605V116.152H509.545C516.108 116.152 521.372 121.413 521.372 127.904Z" fill="#A435F0"/>
<path d="M500.383 163.159H497.785" stroke="black" stroke-width="0.6282" stroke-miterlimit="10"/>
<path d="M449.996 163.159H448.629" stroke="black" stroke-width="0.6282" stroke-miterlimit="10"/>
<path d="M431.674 116.903V145.668C431.674 145.941 431.674 146.215 431.605 146.42C431.264 148.674 429.281 150.451 426.888 150.451H419.915C417.522 150.451 415.539 148.674 415.197 146.42C415.129 146.146 415.129 145.873 415.129 145.668V116.903C415.129 116.63 415.129 116.357 415.197 116.084C415.539 113.829 417.522 112.052 419.915 112.052H426.888C429.281 112.052 431.264 113.76 431.605 116.084C431.674 116.357 431.674 116.63 431.674 116.903Z" fill="#8607DD"/>
</svg>
