<svg width="100" height="100" viewBox="0 0 100 100" fill="none" xmlns="http://www.w3.org/2000/svg">
<g clip-path="url(#clip0_4658_36026)">
<path d="M31.7755 44.3588H43.9911C45.9409 44.3588 47.7897 45.2261 49.0362 46.7257L56.9411 56.2363C58.6961 58.348 57.9705 61.5497 55.4764 62.6983C53.9258 63.4124 52.0967 63.1108 50.8575 61.9366L45.3456 56.2365L24.1379 75.9694L16.2227 71.2971L31.7755 44.3588Z" fill="#FFCDAC"/>
<path d="M68.0413 44.3589H62.3679C60.6222 44.3589 58.9486 45.0546 57.7174 46.2921L52.4176 50.7944L56.9406 56.2364C58.6957 58.3481 57.9701 61.5498 55.476 62.6985C53.9254 63.4125 52.0963 63.111 50.857 61.9367L45.6457 56.5473L38.3526 62.743L24.4276 75.6998C23.9032 76.9439 24.0913 78.4308 25.0423 79.513C26.3677 81.0214 28.6647 81.1701 30.1731 79.8447C28.6647 81.1701 28.5165 83.4671 29.8419 84.9753C31.1673 86.4837 33.4643 86.6323 34.9727 85.307C33.4643 86.6322 33.3161 88.9292 34.6413 90.4374C35.9669 91.946 38.2637 92.0944 39.7721 90.7691C38.2637 92.0944 38.1155 94.3913 39.4409 95.8997C40.7663 97.4081 43.0633 97.5565 44.5715 96.2313L44.5631 96.2405L49.9984 91.4284L82.4714 70.6144L68.0413 44.3589Z" fill="#FFB487"/>
<path d="M66.8999 42.0654L84.9395 73.31L98.0458 65.7428L80.0062 34.4983L66.8999 42.0654Z" fill="#A435F0"/>
<path d="M19.9927 34.4989L1.95312 65.7434L15.0594 73.3106L33.099 42.066L19.9927 34.4989Z" fill="#8607DD"/>
<path d="M58.8209 96.9615C57.3716 98.4107 55.022 98.4107 53.5728 96.9615L51.0869 94.4756C49.6377 93.0264 49.6377 90.6767 51.0869 89.2275C52.5361 87.7783 54.8857 87.7783 56.3349 89.2275L58.8209 91.7135C60.2701 93.1627 60.2701 95.5123 58.8209 96.9615Z" fill="#FFCDAC"/>
<path d="M64.0728 91.7133C62.6236 93.1625 60.274 93.1625 58.8248 91.7133L56.3389 89.2273C54.8896 87.7781 54.8896 85.4285 56.3389 83.9793C57.7881 82.5301 60.1377 82.5301 61.5869 83.9793L64.0728 86.4652C65.522 87.9144 65.522 90.264 64.0728 91.7133Z" fill="#FFCDAC"/>
<path d="M69.317 86.4655C67.8677 87.9147 65.5181 87.9147 64.0689 86.4655L61.583 83.9795C60.1338 82.5303 60.1338 80.1807 61.583 78.7315C63.0322 77.2823 65.3818 77.2823 66.831 78.7315L69.317 81.2174C70.7662 82.6666 70.7662 85.0162 69.317 86.4655Z" fill="#FFCDAC"/>
<path d="M74.5631 81.2175C73.1138 82.6667 70.7642 82.6667 69.315 81.2175L66.8291 78.7315C65.3799 77.2823 65.3799 74.9327 66.8291 73.4835C68.2783 72.0343 70.6279 72.0343 72.0771 73.4835L74.5631 75.9694C76.0123 77.4187 76.0123 79.7683 74.5631 81.2175Z" fill="#FFCDAC"/>
<path d="M49.996 37.527C59.8195 37.527 67.7831 29.5635 67.7831 19.74C67.7831 9.91647 59.8195 1.95294 49.996 1.95294C40.1725 1.95294 32.209 9.91647 32.209 19.74C32.209 29.5635 40.1725 37.527 49.996 37.527Z" fill="#FFC91D"/>
<path d="M99.7379 64.7681L81.6977 33.5216C81.1583 32.5874 79.9639 32.2671 79.0298 32.8067L65.9224 40.3743C65.4738 40.6333 65.1464 41.0598 65.0124 41.5602C64.9378 41.8387 64.9286 42.1272 64.9781 42.4057H62.3695C60.1205 42.4057 57.9209 43.3202 56.3344 44.9145L52.9223 48.344L50.5396 45.4772C48.9172 43.525 46.5309 42.4055 43.9926 42.4055H35.0219C35.0712 42.1268 35.0622 41.8385 34.9876 41.56C34.8534 41.0596 34.5262 40.6331 34.0776 40.3741L20.9702 32.8065C20.0359 32.2673 18.8415 32.5872 18.3023 33.5214L13.9486 41.0622C13.4091 41.9963 13.7292 43.1909 14.6634 43.7301C15.5976 44.2696 16.7923 43.9496 17.3314 43.0153L20.7085 37.1659L30.4331 42.7803L14.3456 70.6443L4.62108 65.0298L8.24548 58.7521C8.78493 57.818 8.46481 56.6234 7.53064 56.0842C6.59685 55.5449 5.40213 55.8648 4.86268 56.799L0.261718 64.7681C0.00273496 65.2168 -0.0675773 65.7498 0.0666019 66.2501C0.200781 66.7505 0.527928 67.1771 0.976559 67.4361L14.0839 75.0036C14.3835 75.1765 14.7206 75.2653 15.0605 75.2653C15.2298 75.2653 15.3997 75.2433 15.566 75.1987C16.0663 75.0646 16.4929 74.7374 16.7519 74.2888L16.9294 73.9814L22.1892 77.086C22.1819 78.4065 22.6386 79.7345 23.5767 80.8022C24.4915 81.8434 25.7104 82.4624 26.9858 82.6436C27.0001 83.9788 27.4856 85.251 28.3763 86.2645C29.2669 87.278 30.4661 87.9235 31.7882 88.1092C31.8038 89.3971 32.2608 90.6856 33.1757 91.7266C34.0913 92.7686 35.3114 93.3879 36.5877 93.5686C36.6026 94.8575 37.0598 96.1473 37.9752 97.1893C39.0784 98.4447 40.6241 99.0865 42.177 99.0865C43.4524 99.0865 44.7326 98.6537 45.7768 97.7723C45.8049 97.7502 45.8324 97.7272 45.8594 97.7031L48.9689 94.9498C49.1787 95.2707 49.424 95.5752 49.7057 95.8569L52.1916 98.3428C53.2959 99.4469 54.7463 99.999 56.1967 99.999C57.647 99.999 59.0976 99.4469 60.2017 98.3428C61.2048 97.3397 61.7507 96.0506 61.8425 94.7356C63.1576 94.6438 64.4466 94.0979 65.4497 93.0948C66.4529 92.0916 66.9988 90.8026 67.0906 89.4876C68.4056 89.3958 69.6946 88.8499 70.6978 87.8467C71.7009 86.8436 72.2468 85.5546 72.3386 84.2395C73.6536 84.1477 74.9427 83.6018 75.9458 82.5987C77.5827 80.9618 78.005 78.5642 77.2151 76.5335L82.4837 72.9657L83.2477 74.289C83.5067 74.7376 83.9333 75.065 84.4337 75.1989C84.6001 75.2435 84.77 75.2655 84.9391 75.2655C85.279 75.2655 85.6163 75.1767 85.9157 75.0038L99.023 67.4363C99.9572 66.8968 100.277 65.7023 99.7379 64.7681ZM57.4396 95.5805C56.7543 96.266 55.639 96.266 54.9537 95.5805L52.4678 93.0946C52.1357 92.7625 51.9529 92.3211 51.9529 91.8516C51.9529 91.3821 52.1357 90.9407 52.4678 90.6086C52.7998 90.2766 53.2412 90.0938 53.7107 90.0938C54.1803 90.0938 54.6217 90.2766 54.9537 90.6086L57.4396 93.0946C58.125 93.7799 58.125 94.8951 57.4396 95.5805ZM62.6876 90.3325C62.0023 91.018 60.8871 91.018 60.2017 90.3325L57.7158 87.8465C57.3838 87.5145 57.2009 87.0731 57.2009 86.6036C57.2009 86.134 57.3838 85.6926 57.7158 85.3606C58.0478 85.0286 58.4892 84.8458 58.9588 84.8458C59.4283 84.8458 59.8697 85.0286 60.2017 85.3606L62.6876 87.8465C63.373 88.5319 63.373 89.6471 62.6876 90.3325ZM67.9357 85.0843C67.2503 85.7696 66.1353 85.7698 65.4497 85.0843L62.9638 82.5983C62.6318 82.2663 62.449 81.8249 62.449 81.3554C62.449 80.8858 62.6318 80.4444 62.9638 80.1124C63.2958 79.7804 63.7373 79.5975 64.2068 79.5975C64.6763 79.5975 65.1177 79.7804 65.4497 80.1124L67.9357 82.5983C68.621 83.2839 68.621 84.3991 67.9357 85.0843ZM73.1837 79.8362C72.4984 80.5218 71.3833 80.5216 70.698 79.8362L68.212 77.3503C67.5267 76.6649 67.5267 75.5497 68.212 74.8644C68.5546 74.5216 69.0048 74.3503 69.455 74.3503C69.905 74.3503 70.3552 74.5216 70.698 74.8642L73.1839 77.3503C73.869 78.0358 73.869 79.1509 73.1837 79.8362ZM74.8052 73.4478L73.4599 72.1025C71.2513 69.8941 67.6579 69.8943 65.4497 72.1025C64.4466 73.1056 63.9007 74.3946 63.8089 75.7097C62.4939 75.8015 61.2048 76.3474 60.2017 77.3505C59.1986 78.3536 58.6527 79.6427 58.5609 80.9577C57.2459 81.0495 55.9568 81.5954 54.9537 82.5985C53.9506 83.6016 53.4047 84.8907 53.3129 86.2057C51.9978 86.2975 50.7088 86.8434 49.7057 87.8465C48.9805 88.5717 48.4949 89.4467 48.2461 90.3727L43.3342 94.7217C43.3172 94.7356 43.3006 94.7498 43.284 94.7643C42.5873 95.3764 41.5221 95.3078 40.9096 94.6108C40.2973 93.9139 40.3661 92.8487 41.0629 92.2364C41.1293 92.178 46.7213 86.7561 46.7213 86.7561C47.4877 85.9971 47.4936 84.7604 46.7344 83.994C45.9754 83.2276 44.7387 83.2216 43.9723 83.9809C43.9723 83.9809 38.9145 88.9961 38.8821 89.0335C38.7422 89.1055 38.6079 89.1934 38.4844 89.302C37.7877 89.9143 36.7225 89.8456 36.11 89.1483C35.4977 88.4514 35.5665 87.3864 36.2633 86.7741C36.4575 86.6034 36.6071 86.4018 36.7167 86.1844L42.0614 80.8284C42.8233 80.0649 42.8221 78.8282 42.0584 78.0663C41.2952 77.3044 40.0584 77.3056 39.2963 78.0692L33.6216 83.7559C33.5294 83.8483 33.4491 83.9477 33.3792 84.0522C33.1024 84.2036 32.7887 84.2751 32.4663 84.2548C32.0178 84.2259 31.6075 84.0237 31.3106 83.686C31.0139 83.3483 30.8665 82.9155 30.8956 82.4671C30.9245 82.0186 31.1262 81.6085 31.4639 81.3118C31.4786 81.2989 31.4911 81.2847 31.5052 81.2714C31.5223 81.2554 31.5405 81.2409 31.5573 81.2241L37.7557 75.0126C38.5176 74.2491 38.5165 73.0124 37.7528 72.2505C36.9893 71.4886 35.7526 71.4898 34.9907 72.2534L28.8573 78.3997C28.1602 78.9862 27.1155 78.9116 26.511 78.2237C25.8987 77.5269 25.9675 76.4616 26.6644 75.8493C26.721 75.7997 32.1169 70.6001 32.1169 70.6001C32.8979 69.8562 32.928 68.6199 32.1841 67.8388C31.4399 67.0576 30.2036 67.0275 29.4227 67.7716C29.4227 67.7716 23.7294 73.253 23.6089 73.3878L18.8829 70.598L32.9048 46.3116H43.9926C45.3662 46.3116 46.6576 46.9174 47.5358 47.9739L55.4406 57.4844C55.8859 58.0201 56.0529 58.717 55.899 59.3963C55.7451 60.0758 55.2937 60.6326 54.6611 60.924C53.831 61.3064 52.866 61.1474 52.2025 60.5185L43.7266 52.4871C42.9436 51.7451 41.7075 51.7783 40.9655 52.5615C40.2235 53.3445 40.2569 54.5807 41.0399 55.3226L41.5868 55.8408C40.0496 58.9029 36.754 60.8105 33.2909 60.547L33.2495 60.5439C32.1739 60.4615 31.2356 61.2677 31.154 62.3433C31.0721 63.4189 31.8778 64.3572 32.9534 64.4388L32.9954 64.4419C33.3051 64.4656 33.6133 64.4771 33.9208 64.4771C38.2249 64.4771 42.2471 62.208 44.5073 58.608L49.516 63.3541C50.6838 64.4605 52.1898 65.0394 53.7223 65.0394C54.5906 65.0394 55.4676 64.8533 56.2953 64.472C58.04 63.6685 59.2843 62.1332 59.7089 60.2597C60.1336 58.3863 59.6728 56.4646 58.4451 54.9875L55.431 51.3611L59.1041 47.6694C59.9627 46.8065 61.1531 46.3116 62.3701 46.3116H67.096L80.5264 69.5736L74.8052 73.4478ZM85.654 70.6443L69.5667 42.7805L79.2913 37.1661L95.3783 65.0298L85.654 70.6443Z" fill="black"/>
<path d="M9.92173 51.9365C10.2295 52.1142 10.5653 52.1986 10.8969 52.1986C11.5717 52.1986 12.2282 51.8486 12.5899 51.222L12.7168 51.0021C13.2563 50.0679 12.9366 48.8734 12.0026 48.3339C11.0684 47.7945 9.87388 48.1142 9.33443 49.0482L9.20748 49.2681C8.66803 50.2025 8.98775 51.397 9.92173 51.9365Z" fill="black"/>
<path d="M87.5 64.4537C88.0137 64.4537 88.5176 64.2447 88.8808 63.8814C89.2441 63.5181 89.4531 63.0142 89.4531 62.5005C89.4531 61.9869 89.2441 61.483 88.8808 61.1197C88.5176 60.7564 88.0137 60.5474 87.5 60.5474C86.9863 60.5474 86.4824 60.7564 86.1191 61.1197C85.7559 61.483 85.5469 61.9869 85.5469 62.5005C85.5469 63.0142 85.7559 63.5181 86.1191 63.8814C86.4824 64.2445 86.9863 64.4537 87.5 64.4537Z" fill="black"/>
<path d="M11.1191 61.1195C10.7559 61.4828 10.5469 61.9867 10.5469 62.5004C10.5469 63.014 10.7559 63.5179 11.1191 63.8812C11.4824 64.2445 11.9863 64.4535 12.5 64.4535C13.0137 64.4535 13.5176 64.2445 13.8808 63.8812C14.2441 63.5179 14.4531 63.014 14.4531 62.5004C14.4531 61.9867 14.2441 61.4828 13.8808 61.1195C13.5176 60.7562 13.0137 60.5472 12.5 60.5472C11.9863 60.5474 11.4824 60.7562 11.1191 61.1195Z" fill="black"/>
<path d="M46.1699 16.604C46.1699 16.0884 45.9609 15.5864 45.5976 15.2212C45.2344 14.8579 44.7305 14.6509 44.2148 14.6509C43.7012 14.6509 43.1973 14.8579 42.834 15.2212C42.4707 15.5845 42.2637 16.0884 42.2637 16.604C42.2637 17.1177 42.4707 17.6216 42.834 17.9849C43.1973 18.3481 43.7012 18.5571 44.2148 18.5571C44.7305 18.5571 45.2324 18.3481 45.5976 17.9849C45.9609 17.6216 46.1699 17.1177 46.1699 16.604Z" fill="black"/>
<path d="M54.9063 15.2212C54.543 15.5864 54.3359 16.0884 54.3359 16.604C54.3359 17.1177 54.543 17.6216 54.9063 17.9848C55.2715 18.3481 55.7734 18.5571 56.2891 18.5571C56.8027 18.5571 57.3066 18.3481 57.6699 17.9848C58.0332 17.6216 58.2422 17.1177 58.2422 16.604C58.2422 16.0884 58.0332 15.5864 57.6699 15.2212C57.3066 14.8579 56.8027 14.6509 56.2891 14.6509C55.7734 14.6509 55.2715 14.8579 54.9063 15.2212Z" fill="black"/>
<path d="M50.0013 39.4798C60.8858 39.4798 69.7409 30.6246 69.7409 19.7402C69.7409 17.4932 69.3659 15.2883 68.6262 13.1866C68.2682 12.169 67.1532 11.6344 66.1356 11.9924C65.118 12.3504 64.5835 13.4657 64.9415 14.483C65.534 16.1672 65.8346 17.9358 65.8346 19.7402C65.8346 28.4709 58.7319 35.5736 50.0013 35.5736C41.2707 35.5736 34.168 28.4707 34.168 19.7402C34.168 11.0098 41.2707 3.90691 50.0013 3.90691C51.7103 3.90691 53.3907 4.17722 54.9956 4.71003C56.0196 5.05026 57.1249 4.49577 57.4647 3.47214C57.8048 2.44832 57.2505 1.34305 56.2269 1.00301C54.2241 0.337779 52.1294 0.000671387 50.0013 0.000671387C39.1168 0.000671387 30.2617 8.85571 30.2617 19.7402C30.2617 30.6248 39.1168 39.4798 50.0013 39.4798Z" fill="black"/>
<path d="M61.4305 8.78679C61.8141 9.18738 62.3272 9.38894 62.8413 9.38894C63.327 9.38894 63.8135 9.20886 64.192 8.84636C64.9709 8.10027 64.9977 6.86395 64.2516 6.08485C64.1993 6.03016 64.1463 5.97567 64.0932 5.92137C63.3387 5.15048 62.1022 5.13739 61.3311 5.89169C60.5602 6.64618 60.5469 7.88269 61.3014 8.65379C61.3448 8.69793 61.3878 8.74226 61.4305 8.78679Z" fill="black"/>
<path d="M50.2501 28.553C52.114 28.553 53.9778 27.8434 55.3968 26.4246C56.1595 25.662 56.1595 24.4252 55.3968 23.6624C54.6341 22.8997 53.3974 22.8997 52.6345 23.6624C51.32 24.9772 49.1804 24.9774 47.8656 23.6624C47.1029 22.8997 45.8662 22.8997 45.1033 23.6624C44.3406 24.425 44.3406 25.6618 45.1033 26.4246C46.5222 27.8434 48.3861 28.553 50.2501 28.553Z" fill="black"/>
<path d="M84.8262 11.7194H86.1658C87.2445 11.7194 88.1189 10.845 88.1189 9.76629C88.1189 8.68758 87.2445 7.81317 86.1658 7.81317H84.8262C83.7475 7.81317 82.873 8.68758 82.873 9.76629C82.873 10.845 83.7475 11.7194 84.8262 11.7194Z" fill="black"/>
<path d="M94.2988 11.7194H95.6385C96.7172 11.7194 97.5916 10.845 97.5916 9.76629C97.5916 8.68758 96.7172 7.81317 95.6385 7.81317H94.2988C93.2201 7.81317 92.3457 8.68758 92.3457 9.76629C92.3457 10.845 93.2201 11.7194 94.2988 11.7194Z" fill="black"/>
<path d="M90.2344 17.1275C91.3131 17.1275 92.1875 16.2531 92.1875 15.1744V13.8347C92.1875 12.756 91.3131 11.8816 90.2344 11.8816C89.1557 11.8816 88.2812 12.756 88.2812 13.8347V15.1744C88.2812 16.2531 89.1557 17.1275 90.2344 17.1275Z" fill="black"/>
<path d="M90.2344 7.65097C91.3131 7.65097 92.1875 6.77656 92.1875 5.69785V4.35821C92.1875 3.2795 91.3131 2.40509 90.2344 2.40509C89.1557 2.40509 88.2812 3.2795 88.2812 4.35821V5.69785C88.2812 6.77656 89.1557 7.65097 90.2344 7.65097Z" fill="black"/>
<path d="M1.95312 26.9942H3.29276C4.37147 26.9942 5.24588 26.1198 5.24588 25.0411C5.24588 23.9624 4.37147 23.088 3.29276 23.088H1.95312C0.874411 23.088 0 23.9624 0 25.0411C0 26.1198 0.874411 26.9942 1.95312 26.9942Z" fill="black"/>
<path d="M11.4277 26.9942H12.7674C13.8461 26.9942 14.7205 26.1198 14.7205 25.0411C14.7205 23.9624 13.8461 23.088 12.7674 23.088H11.4277C10.349 23.088 9.47461 23.9624 9.47461 25.0411C9.47461 26.1198 10.349 26.9942 11.4277 26.9942Z" fill="black"/>
<path d="M7.36132 32.4023C8.44003 32.4023 9.31444 31.5279 9.31444 30.4492V29.1096C9.31444 28.0308 8.44003 27.1564 7.36132 27.1564C6.28261 27.1564 5.4082 28.0308 5.4082 29.1096V30.4492C5.4082 31.5279 6.28261 32.4023 7.36132 32.4023Z" fill="black"/>
<path d="M7.36132 22.9259C8.44003 22.9259 9.31444 22.0515 9.31444 20.9728V19.6331C9.31444 18.5544 8.44003 17.68 7.36132 17.68C6.28261 17.68 5.4082 18.5544 5.4082 19.6331V20.9728C5.4082 22.0515 6.28261 22.9259 7.36132 22.9259Z" fill="black"/>
</g>
<defs>
<clipPath id="clip0_4658_36026">
<rect width="100" height="100" fill="white"/>
</clipPath>
</defs>
</svg>
