<svg width="101" height="100" viewBox="0 0 101 100" fill="none" xmlns="http://www.w3.org/2000/svg">
<path d="M50.4844 37.377H44.4844V53.2786H50.4844V37.377Z" fill="#F9C478"/>
<path d="M56.4922 37.3771H50.4922V51.6394H56.4922V37.3771Z" fill="#F4B867"/>
<path d="M62.3255 22.7869C61.9922 24.2623 61.4922 25.7377 61.4922 26.8853C61.1588 27.0492 60.9922 26.3935 60.8255 25.2459C60.4922 23.6066 60.4922 21.1476 60.4922 21.1476L59.1589 23.6066C59.1589 23.6066 59.1588 21.1476 56.9922 20.8197C55.4922 20.4918 54.6588 18.3607 54.4922 17.705C54.8255 18.8525 52.3255 20.8197 52.3255 20.8197L52.8255 19.1804C52.6588 18.3607 52.4922 17.8689 52.3255 17.541C52.3255 17.705 52.3255 18.0328 52.1589 18.5246C51.8255 19.5082 50.9922 20.164 50.4922 20.4918V41.3115C54.9922 41.3115 58.9922 36.5574 60.6588 31.8033C60.8255 32.2951 60.9922 32.4591 61.1588 32.4591C61.8255 32.623 62.8255 30.4918 62.9922 27.8689C63.4922 25.082 63.1588 22.9508 62.3255 22.7869Z" fill="#F9C478"/>
<path d="M49.6542 17.7049C49.6542 17.8689 49.8209 18.3606 49.6542 19.5082C49.3209 21.4754 46.4875 21.1475 46.4875 21.1475C46.4875 21.1475 47.3209 20.9836 47.6542 19.8361C48.1542 18.6885 46.9875 17.8688 46.9875 17.8688C47.8209 19.5082 44.3209 21.8033 44.3209 21.8033V18.8525C44.3209 18.8525 43.4875 21.8033 43.4875 22.1312C42.9875 23.7705 41.3209 24.918 41.3209 24.918L40.9875 22.2951C40.9875 22.459 40.8209 23.1148 40.3209 24.7541C40.1542 25.2459 39.9875 25.5738 39.9875 25.9016C39.6542 26.3935 39.4875 26.8853 39.1542 27.2131V27.0492C39.1542 25.9016 38.8209 24.4262 38.4875 22.9508H38.3209C37.6542 23.1148 37.3209 25.2459 37.6542 28.0328C37.9875 30.6558 38.8209 32.7869 39.4875 32.6229C39.6542 32.6229 39.9875 32.2951 39.9875 31.9672C41.6542 36.7213 45.6542 41.4754 50.1542 41.4754V20.4918V19.8361V19.0164C50.1542 18.5246 49.8209 18.0328 49.6542 17.7049Z" fill="#FFC988"/>
<path d="M52.1582 17.3771C52.1582 17.3771 52.1582 17.3771 52.3249 17.541C52.3249 17.3771 52.1582 17.3771 52.1582 17.3771Z" fill="#D07100"/>
<path d="M50.3223 19.8362C50.4889 19.5083 50.4889 19.3444 50.3223 19.0165V19.8362Z" fill="#D07100"/>
<path d="M54.4902 17.705C54.3236 17.3771 54.3236 17.3771 54.4902 17.705V17.705Z" fill="#D07100"/>
<path d="M38.3223 20.8197C38.3223 21.4754 38.4889 22.1312 38.4889 22.9508C38.8223 24.4262 39.1556 25.9016 39.1556 27.0492V27.2131C39.4889 26.8853 39.6556 26.5574 39.9889 25.9016C40.1556 25.5738 40.3223 25.2459 40.3223 24.7541C40.8223 23.1148 40.9889 22.459 40.9889 22.2951L41.3223 24.918C41.3223 24.918 42.9889 23.9344 43.4889 22.1312C43.6556 21.8033 44.3223 18.8525 44.3223 18.8525V21.8033C44.3223 21.8033 47.8223 19.5082 46.9889 17.8688C46.9889 17.8688 47.9889 18.6885 47.6556 19.8361C47.1556 20.9836 46.4889 21.1475 46.4889 21.1475C46.4889 21.1475 49.3223 21.4754 49.6556 19.5082C49.8223 18.3607 49.8223 17.8689 49.6556 17.7049C49.8223 17.8689 50.3223 18.3607 50.4889 18.8525V10.3279C43.6556 10.4918 38.3223 15.082 38.3223 20.8197Z" fill="#D07100"/>
<path d="M50.3184 10.4918V20.4918C50.8184 20.1639 51.6517 19.5082 51.985 18.5246C52.1517 18.0328 52.1517 17.7049 52.1517 17.5409C51.985 17.377 52.6517 18.1967 52.485 19.1803C52.485 19.6721 52.1517 20.8196 52.1517 20.8196C52.1517 20.8196 54.485 18.8524 54.3184 17.7049C54.1517 17.377 54.1517 17.377 54.3184 17.7049C54.485 18.3606 55.3184 20.4918 56.8184 20.8196C58.8184 21.1475 58.985 23.6065 58.985 23.6065L60.3184 21.1475C60.3184 21.1475 60.485 23.6065 60.6517 25.2459C60.8184 26.2295 60.985 27.0491 61.3184 26.8852C61.3184 25.7377 61.6517 24.2623 61.985 22.7868C62.1517 22.1311 62.1517 21.3115 62.1517 20.6557C62.485 15.0819 56.985 10.4918 50.3184 10.4918Z" fill="#9B5107"/>
<path d="M75.4831 95.9016H25.3164V99.3442H75.4831V95.9016Z" fill="black"/>
<path d="M83.3177 64.7541C83.3177 64.7541 74.651 54.5901 72.4844 50.8196C70.151 47.0492 66.651 44.0983 61.9844 44.0983H56.651C56.651 47.377 53.9844 50.1639 50.4844 50.1639V60.8197H68.4844L75.8177 70.3278C78.8177 74.2623 77.8177 75.7377 76.651 76.8852L65.3177 84.7541L70.651 92.2951L82.3177 84.2623L82.9844 83.7705C85.9844 80.6557 90.3177 74.0983 83.3177 64.7541Z" fill="#8607DD"/>
<path d="M17.6507 64.7541C17.6507 64.7541 26.3174 54.5901 28.4841 50.8196C30.8174 47.0492 34.3174 44.0983 38.984 44.0983H44.3174C44.3174 47.377 46.984 50.1639 50.484 50.1639V60.8197H32.484L25.1507 70.3278C22.1507 74.2623 23.1507 75.7377 24.3174 76.8852L35.6507 84.7541L30.3174 92.2951L18.6507 84.2623L17.984 83.7705C14.8174 80.6557 10.6507 74.0983 17.6507 64.7541Z" fill="#A435F0"/>
<path d="M73.1497 58.8525H27.8164C26.4831 58.8525 25.3164 60 25.3164 61.3115V95.9017L74.6497 59.3443C74.3164 59.0164 73.6497 58.8525 73.1497 58.8525Z" fill="black"/>
<path d="M74.6497 59.3443L25.3164 95.9017H75.4831V61.1476C75.4831 60.4919 75.1497 59.8361 74.6497 59.3443Z" fill="#252418"/>
<path d="M61.4857 16.5573C54.319 19.0164 46.319 19.0164 39.1523 16.3934C39.1523 12.9508 39.1523 9.34423 39.1523 5.90161C46.6523 5.90161 53.9857 6.06553 61.4857 6.06553C61.6523 9.50815 61.6523 13.1147 61.4857 16.5573Z" fill="black"/>
<path d="M70.9844 6.88524L50.651 12.1311C50.4844 12.1311 50.3177 12.1311 50.3177 12.1311L29.9844 6.72132C29.151 6.55739 29.151 5.40983 29.9844 5.2459L50.3177 0C50.4844 0 50.651 0 50.651 0L70.9844 5.40984C71.8177 5.57378 71.8177 6.72131 70.9844 6.88524Z" fill="#1F1D0D"/>
<path d="M61.9844 16.7213C61.8177 16.7213 61.6511 16.5574 61.6511 16.3934V9.34425L50.3177 6.39343C50.1511 6.39343 49.9844 6.22951 50.1511 5.90165C50.1511 5.73771 50.3177 5.57377 50.651 5.7377L62.4844 8.85244V16.3934C62.4844 16.5574 62.3177 16.7213 61.9844 16.7213Z" fill="#FBB242"/>
<path d="M64.1537 18.3606C62.8203 18.8524 61.3203 18.8524 59.8203 18.3606C59.8203 17.377 59.8203 16.2295 59.8203 15.2459C59.8203 14.0984 60.8203 13.1147 61.987 13.1147C63.1537 13.1147 64.1537 14.0984 64.1537 15.2459C64.1537 16.2295 64.1537 17.377 64.1537 18.3606Z" fill="#FBB242"/>
</svg>
