<svg width="152" height="100" viewBox="0 0 152 100" fill="none" xmlns="http://www.w3.org/2000/svg">
<path d="M108.998 63.0531L101.104 61.9489L93.2098 63.0531L92.625 66.3659H109.583L108.998 63.0531Z" fill="#252418"/>
<path d="M119.812 81.668L118.789 80.0905C117.619 79.3017 111.187 76.6199 111.187 76.6199L109.432 66.2082H92.6205L91.0124 76.7777C91.0124 76.7777 84.58 79.4595 83.4105 80.2482L82.3872 81.8258C81.9486 82.1413 82.3871 82.6145 82.9719 82.6145H101.1H119.227C119.812 82.4568 120.104 81.9835 119.812 81.668Z" fill="black"/>
<path d="M139.546 4.99997H62.65C60.311 4.99997 58.5566 7.05077 58.5566 9.41707V58.7939C58.5566 61.3179 60.4571 63.2109 62.65 63.2109H139.546C141.885 63.2109 143.64 61.1602 143.64 58.7939V9.41707C143.786 6.89301 141.885 4.99997 139.546 4.99997Z" fill="black"/>
<path d="M139.251 8.94397H63.0859V59.2672H139.251V8.94397Z" fill="#252418"/>
<path d="M136.771 11.1525H65.5762V57.532H136.771V11.1525Z" fill="white"/>
<path d="M69.2295 71.0983H17.9165C17.4779 71.0983 17.1855 71.4138 17.1855 71.8871V72.0449C17.1855 72.5181 17.4779 72.8336 17.9165 72.8336H18.5013V88.2934H17.9165C17.4779 88.2934 17.1855 88.609 17.1855 89.0822C17.1855 89.5555 17.4779 89.871 17.9165 89.871H69.2295C70.6914 89.871 71.4224 88.6089 71.4224 86.8737V74.0957C71.4224 72.3604 70.8376 71.0983 69.2295 71.0983Z" fill="#A435F0"/>
<path d="M69.5167 75.0423C69.5167 73.7803 68.4934 72.676 67.3239 72.676H18.4961V80.2482H69.5167V75.0423Z" fill="#D2D8DB"/>
<path d="M18.4961 80.2486V88.1363H67.3239C68.4934 88.1363 69.5167 87.032 69.5167 85.77V80.4064H18.4961V80.2486Z" fill="#E2E6E8"/>
<path d="M45.8379 82.7722C45.8379 82.7722 61.6265 81.0369 68.6437 82.6145C64.5503 83.0877 62.6498 83.7187 45.8379 82.7722Z" fill="#A3AEB2"/>
<path d="M57.6836 82.6147V88.6094L60.315 87.1896L63.0926 88.7671V82.6147H57.6836Z" fill="#FBB242"/>
<path d="M73.6148 58.7941H21.5708C21.1322 58.7941 20.8398 58.9518 20.8398 59.2673C20.8398 59.5828 21.1322 59.7406 21.5708 59.7406H22.1556V69.3635H21.5708C21.1322 69.3635 20.8398 69.5213 20.8398 69.8368C20.8398 70.1523 21.1322 70.31 21.5708 70.31H73.6148C75.0767 70.31 75.8076 69.5213 75.8076 68.417V60.5293C75.9538 59.7406 75.2229 58.7941 73.6148 58.7941Z" fill="#8607DD"/>
<path d="M74.7814 61.3179C74.7814 60.5291 73.758 59.7404 72.4423 59.7404H22.2988V64.473H74.7814V61.3179Z" fill="#D2D8DB"/>
<path d="M22.2988 64.6303V69.5206H72.4423C73.758 69.5206 74.7814 68.8896 74.7814 67.9431V64.6303H22.2988Z" fill="#E2E6E8"/>
<path d="M62.7964 34.0269H10.7524C10.3139 34.0269 10.0215 34.1846 10.0215 34.5001C10.0215 34.8156 10.3139 34.9734 10.7524 34.9734H11.3372V44.5963H10.7524C10.3139 44.5963 10.0215 44.7541 10.0215 45.0696C10.0215 45.3851 10.3139 45.5428 10.7524 45.5428H62.7964C64.2583 45.5428 64.9893 44.7541 64.9893 43.6498V35.7622C65.1355 34.8156 64.4045 34.0269 62.7964 34.0269Z" fill="#8607DD"/>
<path d="M63.963 36.3927C63.963 35.604 62.9397 34.8152 61.6239 34.8152H11.4805V39.5478H63.963V36.3927Z" fill="#D2D8DB"/>
<path d="M11.332 39.7057V44.5961H61.4755C62.7912 44.5961 63.8146 43.9651 63.8146 43.0186V39.7057H11.332Z" fill="#E2E6E8"/>
<path d="M71.4253 46.1738H16.4575C16.0189 46.1738 15.7266 46.3315 15.7266 46.647C15.7266 46.9625 16.0189 47.1203 16.4575 47.1203H17.0423V56.7432H16.4575C16.0189 56.7432 15.7266 56.901 15.7266 57.2165C15.7266 57.532 16.0189 57.6897 16.4575 57.6897H71.4253C73.0334 57.6897 73.7644 56.901 73.7644 55.7967V47.909C73.9106 47.1203 73.0334 46.1738 71.4253 46.1738Z" fill="#A435F0"/>
<path d="M72.5946 48.6976C72.5946 47.9089 71.4251 47.1201 70.1094 47.1201H16.6035V51.8527H72.5946V48.6976Z" fill="#D2D8DB"/>
<path d="M16.6035 52.0102V56.9005H70.1094C71.4251 56.9005 72.5946 56.2695 72.5946 55.323V52.0102H16.6035Z" fill="#E2E6E8"/>
<path d="M103.289 76.4622C103.289 76.62 102.851 76.9355 102.704 77.0932L101.681 78.1975C100.658 79.3018 101.242 79.6173 100.219 80.7216C98.1724 82.9301 95.6872 84.8232 93.6405 87.1895C91.74 89.2402 89.6933 88.6092 87.0619 88.136C82.8224 87.3472 77.7057 87.6627 74.0509 85.1387C72.589 84.0344 70.8347 83.0879 69.6652 81.8258C68.6419 80.7216 67.9109 79.4595 66.5952 78.6708C65.4256 77.7242 62.648 76.62 64.5485 75.2002C64.9871 74.8847 65.8643 74.2537 66.449 74.2537C67.6185 74.0959 69.0804 74.7269 69.9576 75.358C70.6885 75.8312 71.1271 76.7777 72.0043 77.251C73.0276 77.882 74.1971 78.3553 75.3666 78.6708C73.6123 76.1467 71.8581 74.2537 69.6652 72.2029C67.9109 70.3099 66.3028 68.5746 64.5485 66.6815C62.2095 64.1575 59.7242 61.4757 57.3852 58.9516C56.9466 58.4784 56.3618 58.0051 55.9233 57.3741C55.7771 57.2163 55.6309 56.9008 55.6309 56.5853V56.4276C55.6309 56.2698 55.6309 56.1121 55.6309 55.9543C55.7771 54.5345 56.8004 53.4303 58.1161 53.1147C58.2623 53.1147 58.4085 53.1147 58.5547 53.1147C58.7009 53.1147 58.8471 53.1147 59.1395 53.1147C59.2857 53.1147 59.578 53.2725 59.7242 53.4302C60.0166 53.7458 60.1628 53.9035 60.4552 54.219C62.0633 55.9543 63.6714 57.8474 65.4257 59.5826C66.5952 60.8447 67.6185 62.1067 68.788 63.2109C69.8114 64.3152 71.5657 65.8928 72.2967 66.0505C72.0043 65.735 71.8581 65.104 71.5657 64.7885C71.2733 64.473 70.8347 64.1575 70.5423 63.6842C69.9576 63.0532 69.0804 62.4222 68.788 61.4757C68.2033 60.0559 69.6652 58.1628 70.9809 57.8473C72.2966 57.5318 73.6124 58.9516 74.4895 59.7404C74.7819 60.0559 76.0976 60.6869 75.8052 60.0559C75.3667 58.9516 74.0509 57.2163 74.0509 56.4276C73.9047 54.85 75.0743 53.588 76.39 53.4302C78.2905 53.1147 80.0447 55.481 81.2143 56.7431C81.2143 56.2698 80.3372 55.3233 80.3372 54.85C80.3372 54.0613 80.7757 53.2725 81.2143 52.7992C83.2609 50.7485 85.3076 53.7458 86.7695 55.0078C89.5472 57.3741 92.0324 60.2136 94.2253 63.0532C95.2486 64.473 96.4181 66.0505 97.2953 67.628C98.0262 69.0478 98.0262 70.7831 98.9034 72.0451C99.6343 73.1494 100.804 74.0959 101.681 75.0424C102.12 75.5157 102.558 75.989 102.704 76.1467C103.143 76.1467 103.289 76.3045 103.289 76.4622Z" fill="#EAB38B"/>
<path d="M103.436 73.465L88.2324 89.5559L92.9105 93.4997L106.799 77.5666L103.436 73.465Z" fill="#A435F0"/>
<path d="M61.0352 57.2165C60.3043 58.3208 58.6962 58.163 57.5266 57.0587L56.5033 56.1122C56.3571 56.1122 56.3571 55.9544 56.2109 55.7967C56.2109 55.6389 56.2109 55.4812 56.2109 55.3234C56.3571 53.9036 57.3804 52.7994 58.6962 52.4839C58.8423 52.4839 58.9886 52.4839 59.1348 52.4839L59.8657 53.2727C61.3276 54.5347 61.7662 56.27 61.0352 57.2165Z" fill="#F2C4A5"/>
<path d="M103.291 17.1471L80.3393 15.5696C79.1698 15.4119 78.1465 16.5161 78.1465 17.7782V51.2218C78.1465 52.4839 79.1698 53.5881 80.3393 53.4304L103.291 51.8529V17.1471Z" fill="#A435F0"/>
<path d="M103.291 17.1471L126.243 15.5696C127.413 15.4119 128.436 16.5161 128.436 17.7782V51.2218C128.436 52.4839 127.413 53.5881 126.243 53.4304L103.291 51.8529V17.1471Z" fill="#A435F0"/>
<path d="M127.267 16.9892V52.0104L103.73 50.4329H103.292H102.853L79.3164 52.0104V16.9892L102.853 18.5667H103.292H103.73L127.267 16.9892Z" fill="white"/>
<path d="M100.953 19.9867L82.3867 18.8825V20.1445L100.953 21.091V19.9867Z" fill="#97B6C4"/>
<path d="M81.0723 21.2487V21.8797L102.124 22.8262V22.1952L81.0723 21.2487Z" fill="#97B6C4"/>
<path d="M81.0723 23.4568L102.124 24.2456V23.6146L81.0723 22.8258V23.4568Z" fill="#97B6C4"/>
<path d="M81.0723 25.0345L102.124 25.6656V25.1923L81.0723 24.4035V25.0345Z" fill="#97B6C4"/>
<path d="M81.0723 26.6122L102.124 27.2433V26.6122L81.0723 25.9812V26.6122Z" fill="#97B6C4"/>
<path d="M81.0723 28.1898L102.124 28.6631V28.0321L81.0723 27.4011V28.1898Z" fill="#97B6C4"/>
<path d="M81.0723 29.7666L102.124 30.0821V29.4511L81.0723 28.9778V29.7666Z" fill="#97B6C4"/>
<path d="M81.0723 31.3445L102.124 31.5023V30.8712L81.0723 30.5557V31.3445Z" fill="#97B6C4"/>
<path d="M81.0723 32.9223H102.124V32.2913L81.0723 32.1335V32.9223Z" fill="#97B6C4"/>
<path d="M81.0723 34.4999H102.124V33.8689L81.0723 33.7111V34.4999Z" fill="#97B6C4"/>
<path d="M81.0723 36.0768L102.124 35.9191V35.288H81.0723V36.0768Z" fill="#97B6C4"/>
<path d="M81.0723 37.6548L102.124 37.3393V36.7083L81.0723 36.8661V37.6548Z" fill="#97B6C4"/>
<path d="M81.0723 39.2327L102.124 38.7595V38.1285L81.0723 38.444V39.2327Z" fill="#97B6C4"/>
<path d="M81.0723 40.6517L102.124 40.1785V39.5474L81.0723 40.0207V40.6517Z" fill="#97B6C4"/>
<path d="M81.0723 42.2296L102.124 41.7563V41.1253L81.0723 41.5986V42.2296Z" fill="#97B6C4"/>
<path d="M81.0723 43.8075L102.124 43.1765V42.5455L81.0723 43.1765V43.8075Z" fill="#97B6C4"/>
<path d="M81.0723 45.3849L102.124 44.5962V43.9651L81.0723 44.7539V45.3849Z" fill="#97B6C4"/>
<path d="M81.0723 46.9623L102.124 46.0158V45.3848L81.0723 46.3313V46.9623Z" fill="#97B6C4"/>
<path d="M81.0723 48.54L102.124 47.4357V46.8047L81.0723 47.909V48.54Z" fill="#97B6C4"/>
<path d="M81.0723 50.1175L102.124 48.8555V48.3822L81.0723 49.4865V50.1175Z" fill="#97B6C4"/>
<path d="M105.627 19.9867L124.193 18.8825V20.1445L105.627 21.091V19.9867Z" fill="#97B6C4"/>
<path d="M125.512 21.2487V21.8797L104.461 22.8262V22.1952L125.512 21.2487Z" fill="#97B6C4"/>
<path d="M125.512 23.4568L104.461 24.2456V23.6146L125.512 22.8258V23.4568Z" fill="#97B6C4"/>
<path d="M125.512 25.0345L104.461 25.6656V25.1923L125.512 24.4035V25.0345Z" fill="#97B6C4"/>
<path d="M125.512 26.6122L104.461 27.2433V26.6122L125.512 25.9812V26.6122Z" fill="#97B6C4"/>
<path d="M125.512 28.1898L104.461 28.6631V28.0321L125.512 27.4011V28.1898Z" fill="#97B6C4"/>
<path d="M125.512 29.7666L104.461 30.0821V29.4511L125.512 28.9778V29.7666Z" fill="#97B6C4"/>
<path d="M125.512 31.3445L104.461 31.5023V30.8712L125.512 30.5557V31.3445Z" fill="#97B6C4"/>
<path d="M125.512 32.9223H104.461V32.2913L125.512 32.1335V32.9223Z" fill="#97B6C4"/>
<path d="M125.512 34.4999H104.461V33.8689L125.512 33.7111V34.4999Z" fill="#97B6C4"/>
<path d="M125.512 36.0768L104.461 35.9191V35.288H125.512V36.0768Z" fill="#97B6C4"/>
<path d="M125.512 37.6548L104.461 37.3393V36.7083L125.512 36.8661V37.6548Z" fill="#97B6C4"/>
<path d="M125.512 39.2327L104.461 38.7595V38.1285L125.512 38.444V39.2327Z" fill="#97B6C4"/>
<path d="M125.512 40.6517L104.461 40.1785V39.5474L125.512 40.0207V40.6517Z" fill="#97B6C4"/>
<path d="M125.512 42.2296L104.461 41.7563V41.1253L125.512 41.5986V42.2296Z" fill="#97B6C4"/>
<path d="M125.512 43.8075L104.461 43.1765V42.5455L125.512 43.1765V43.8075Z" fill="#97B6C4"/>
<path d="M125.512 45.3849L104.461 44.5962V43.9651L125.512 44.7539V45.3849Z" fill="#97B6C4"/>
<path d="M125.512 46.9623L104.461 46.0158V45.3848L125.512 46.3313V46.9623Z" fill="#97B6C4"/>
<path d="M125.512 48.54L104.461 47.4357V46.8047L125.512 47.909V48.54Z" fill="#97B6C4"/>
<path d="M125.512 50.1175L104.461 48.8555V48.3822L125.512 49.4865V50.1175Z" fill="#97B6C4"/>
<path d="M103.733 18.5662V50.4324H103.294H102.855V18.5662H103.733Z" fill="#97B6C4"/>
<path d="M106.068 16.0424L105.922 23.9301L107.238 22.1948L108.261 23.9301L108.407 15.8846L106.068 16.0424Z" fill="#FBB242"/>
</svg>
