<svg width="113" height="100" viewBox="0 0 113 100" fill="none" xmlns="http://www.w3.org/2000/svg">
<path d="M98.6317 68.9001H14.8616C12.8416 68.9001 11.2969 67.3368 11.2969 65.2926V13.3459C11.2969 11.3017 12.8416 9.73853 14.8616 9.73853H98.6317C100.652 9.73853 102.196 11.3017 102.196 13.3459V65.2926C102.196 67.3368 100.533 68.9001 98.6317 68.9001Z" fill="black"/>
<path d="M14.8616 68.9001H16.2875C35.7744 49.1796 55.2614 29.4591 74.7483 9.73853H14.8616C12.8416 9.73853 11.2969 11.3017 11.2969 13.3459V65.2926C11.2969 67.3368 12.9604 68.9001 14.8616 68.9001Z" fill="#383838"/>
<path d="M98.0328 14.1877H15.332V58.1981H98.0328V14.1877Z" fill="#A435F0"/>
<path d="M98.1515 15.0294V14.1877H15.332V58.1981H16.2826V15.0294H98.1515Z" fill="#8607DD"/>
<path d="M57.6354 12.1435C57.6354 12.6245 57.279 13.1055 56.6849 13.1055C56.2096 13.1055 55.7344 12.7447 55.7344 12.1435C55.7344 11.6625 56.0908 11.1815 56.6849 11.1815C57.279 11.3017 57.6354 11.6625 57.6354 12.1435Z" fill="#383838"/>
<path d="M57.0404 12.0232C57.0404 12.2637 56.8027 12.5042 56.5651 12.5042C56.3275 12.5042 56.0898 12.2637 56.0898 12.0232C56.0898 11.7827 56.3275 11.5422 56.5651 11.5422C56.8027 11.5422 57.0404 11.7827 57.0404 12.0232Z" fill="white"/>
<path d="M59.8937 64.932C59.8937 66.4952 58.7054 67.6977 57.1607 67.6977C55.616 67.6977 54.4277 66.4952 54.4277 64.932C54.4277 63.3687 55.616 62.1663 57.1607 62.1663C58.7054 62.0461 59.8937 63.3687 59.8937 64.932Z" fill="#8F9298"/>
<path d="M59.5342 64.4509C59.5342 66.0141 58.346 67.2166 56.8013 67.2166C55.2566 67.2166 54.0684 66.0141 54.0684 64.4509C54.0684 62.8876 55.2566 61.6852 56.8013 61.6852C58.2272 61.6852 59.5342 62.8876 59.5342 64.4509Z" fill="#E5E3E5"/>
<path d="M58.5824 64.4509C58.5824 65.4128 57.7506 66.2546 56.8 66.2546C55.8493 66.2546 55.0176 65.4128 55.0176 64.4509C55.0176 63.4889 55.8493 62.6472 56.8 62.6472C57.7506 62.6472 58.5824 63.4889 58.5824 64.4509Z" fill="black"/>
<path d="M58.1122 64.451C58.1122 65.1724 57.5181 65.7737 56.8052 65.7737C56.0922 65.7737 55.498 65.1724 55.498 64.451C55.498 63.7295 56.0922 63.1282 56.8052 63.1282C57.5181 63.1282 58.1122 63.7295 58.1122 64.451Z" fill="#E5E3E5"/>
<path d="M57.3972 62.0461H56.209V63.7295H57.3972V62.0461Z" fill="#E5E3E5"/>
<path d="M57.0417 62.6472H56.5664V63.8497H57.0417V62.6472Z" fill="black"/>
<path d="M63.5719 68.9H50.0261L48.8379 87.2979H64.7601L63.5719 68.9ZM59.5319 80.8045C59.5319 82.3677 58.3438 83.5702 56.799 83.5702C55.2544 83.5702 54.0661 82.3677 54.0661 80.8045V75.3934C54.0661 73.8301 55.2544 72.6277 56.799 72.6277C58.3438 72.6277 59.5319 73.8301 59.5319 75.3934V80.8045Z" fill="#454545"/>
<path d="M54.1917 74.4314C54.5481 73.3491 55.6176 72.6277 56.8058 72.6277C58.3505 72.6277 59.5387 73.8301 59.5387 75.3934V79.8425C61.2022 81.526 62.8658 83.2094 64.6481 85.0132L63.5787 69.0203H50.0329L49.9141 70.2228C51.34 71.5454 52.7658 72.9885 54.1917 74.4314Z" fill="black"/>
<path d="M81.8792 89.2219H31.6172V88.5004C31.6172 87.779 32.0925 87.298 32.8053 87.298H80.6911C81.4039 87.298 81.8792 87.779 81.8792 88.5004V89.2219Z" fill="black"/>
<path d="M81.8792 89.2219H31.6172V90.0637H81.8792V89.2219Z" fill="#383838"/>
<path d="M16.8793 61.3243C17.2074 61.3243 17.4734 61.0551 17.4734 60.7231C17.4734 60.391 17.2074 60.1218 16.8793 60.1218C16.5511 60.1218 16.2852 60.391 16.2852 60.7231C16.2852 61.0551 16.5511 61.3243 16.8793 61.3243Z" fill="#383838"/>
<path d="M19.3738 60.7234C19.3738 61.084 19.1361 61.3245 18.7797 61.3245C18.4232 61.3245 18.1855 61.084 18.1855 60.7234C18.1855 60.3626 18.4232 60.1221 18.7797 60.1221C19.1361 60.0019 19.3738 60.3626 19.3738 60.7234Z" fill="#383838"/>
<path d="M21.2761 60.7234C21.2761 61.084 21.0384 61.3245 20.682 61.3245C20.3255 61.3245 20.0879 61.084 20.0879 60.7234C20.0879 60.3626 20.3255 60.1221 20.682 60.1221C20.9197 60.0019 21.2761 60.3626 21.2761 60.7234Z" fill="#383838"/>
<path d="M23.0573 60.7231C23.0573 61.0838 22.8197 61.3243 22.4632 61.3243C22.1068 61.3243 21.8691 61.0838 21.8691 60.7231C21.8691 60.3623 22.1068 60.1218 22.4632 60.1218C22.8197 60.1218 23.0573 60.3623 23.0573 60.7231Z" fill="#383838"/>
<path d="M24.9617 60.7234C24.9617 61.084 24.7241 61.3245 24.3676 61.3245C24.0111 61.3245 23.7734 61.084 23.7734 60.7234C23.7734 60.3626 24.0111 60.1221 24.3676 60.1221C24.6052 60.0019 24.9617 60.3626 24.9617 60.7234Z" fill="#383838"/>
<path d="M26.1448 61.3243C26.473 61.3243 26.7389 61.0551 26.7389 60.7231C26.7389 60.391 26.473 60.1218 26.1448 60.1218C25.8168 60.1218 25.5508 60.391 25.5508 60.7231C25.5508 61.0551 25.8168 61.3243 26.1448 61.3243Z" fill="#383838"/>
<path d="M28.0473 61.3243C28.3754 61.3243 28.6414 61.0551 28.6414 60.7231C28.6414 60.391 28.3754 60.1218 28.0473 60.1218C27.7191 60.1218 27.4531 60.391 27.4531 60.7231C27.4531 61.0551 27.7191 61.3243 28.0473 61.3243Z" fill="#383838"/>
<path d="M29.8285 61.3243C30.1566 61.3243 30.4225 61.0551 30.4225 60.7231C30.4225 60.391 30.1566 60.1218 29.8285 60.1218C29.5004 60.1218 29.2344 60.391 29.2344 60.7231C29.2344 61.0551 29.5004 61.3243 29.8285 61.3243Z" fill="#383838"/>
<path d="M16.6414 62.1662C16.6414 62.527 16.4037 62.7675 16.0472 62.7675C15.6908 62.7675 15.4531 62.527 15.4531 62.1662C15.4531 61.8054 15.6908 61.5649 16.0472 61.5649C16.2849 61.5649 16.6414 61.8054 16.6414 62.1662Z" fill="#383838"/>
<path d="M18.4226 62.1663C18.4226 62.5271 18.185 62.7676 17.8285 62.7676C17.472 62.7676 17.2344 62.5271 17.2344 62.1663C17.2344 61.8055 17.472 61.565 17.8285 61.565C18.185 61.565 18.4226 61.8055 18.4226 62.1663Z" fill="#383838"/>
<path d="M20.3269 62.1663C20.3269 62.5271 20.0893 62.7676 19.7328 62.7676C19.3763 62.7676 19.1387 62.5271 19.1387 62.1663C19.1387 61.8055 19.3763 61.565 19.7328 61.565C20.0893 61.565 20.3269 61.8055 20.3269 62.1663Z" fill="#383838"/>
<path d="M22.1101 62.1662C22.1101 62.527 21.8724 62.7675 21.516 62.7675C21.1595 62.7675 20.9219 62.527 20.9219 62.1662C20.9219 61.8054 21.1595 61.5649 21.516 61.5649C21.8724 61.5649 22.1101 61.8054 22.1101 62.1662Z" fill="#383838"/>
<path d="M24.0085 62.1663C24.0085 62.5271 23.7708 62.7676 23.4144 62.7676C23.0579 62.7676 22.8203 62.5271 22.8203 62.1663C22.8203 61.8055 23.0579 61.565 23.4144 61.565C23.7708 61.565 24.0085 61.8055 24.0085 62.1663Z" fill="#383838"/>
<path d="M25.7897 62.1663C25.7897 62.5271 25.5521 62.7676 25.1956 62.7676C24.8392 62.7676 24.6016 62.5271 24.6016 62.1663C24.6016 61.8055 24.8392 61.565 25.1956 61.565C25.5521 61.565 25.7897 61.8055 25.7897 62.1663Z" fill="#383838"/>
<path d="M27.6921 62.1663C27.6921 62.5271 27.4544 62.7676 27.098 62.7676C26.7415 62.7676 26.5039 62.5271 26.5039 62.1663C26.5039 61.8055 26.7415 61.565 27.098 61.565C27.4544 61.565 27.6921 61.8055 27.6921 62.1663Z" fill="#383838"/>
<path d="M29.5965 62.1662C29.5965 62.527 29.3588 62.7675 29.0023 62.7675C28.6458 62.7675 28.4082 62.527 28.4082 62.1662C28.4082 61.8054 28.6458 61.5649 29.0023 61.5649C29.3588 61.5649 29.5965 61.8054 29.5965 62.1662Z" fill="#383838"/>
<path d="M16.8793 64.2105C17.2074 64.2105 17.4734 63.9413 17.4734 63.6092C17.4734 63.2772 17.2074 63.0081 16.8793 63.0081C16.5511 63.0081 16.2852 63.2772 16.2852 63.6092C16.2852 63.9413 16.5511 64.2105 16.8793 64.2105Z" fill="#383838"/>
<path d="M19.3738 63.6092C19.3738 63.97 19.1361 64.2105 18.7797 64.2105C18.4232 64.2105 18.1855 63.97 18.1855 63.6092C18.1855 63.2485 18.4232 63.0081 18.7797 63.0081C19.1361 63.0081 19.3738 63.2485 19.3738 63.6092Z" fill="#383838"/>
<path d="M21.2761 63.6092C21.2761 63.97 21.0384 64.2105 20.682 64.2105C20.3255 64.2105 20.0879 63.97 20.0879 63.6092C20.0879 63.2485 20.3255 63.0081 20.682 63.0081C20.9197 63.0081 21.2761 63.2485 21.2761 63.6092Z" fill="#383838"/>
<path d="M23.0573 63.6092C23.0573 63.97 22.8197 64.2105 22.4632 64.2105C22.1068 64.2105 21.8691 63.97 21.8691 63.6092C21.8691 63.2485 22.1068 63.0081 22.4632 63.0081C22.8197 63.0081 23.0573 63.2485 23.0573 63.6092Z" fill="#383838"/>
<path d="M24.9617 63.6092C24.9617 63.97 24.7241 64.2105 24.3676 64.2105C24.0111 64.2105 23.7734 63.97 23.7734 63.6092C23.7734 63.2485 24.0111 63.0081 24.3676 63.0081C24.6052 63.0081 24.9617 63.2485 24.9617 63.6092Z" fill="#383838"/>
<path d="M26.1448 64.2105C26.473 64.2105 26.7389 63.9413 26.7389 63.6092C26.7389 63.2772 26.473 63.0081 26.1448 63.0081C25.8168 63.0081 25.5508 63.2772 25.5508 63.6092C25.5508 63.9413 25.8168 64.2105 26.1448 64.2105Z" fill="#383838"/>
<path d="M28.0473 64.2105C28.3754 64.2105 28.6414 63.9413 28.6414 63.6092C28.6414 63.2772 28.3754 63.0081 28.0473 63.0081C27.7191 63.0081 27.4531 63.2772 27.4531 63.6092C27.4531 63.9413 27.7191 64.2105 28.0473 64.2105Z" fill="#383838"/>
<path d="M29.8285 64.2105C30.1566 64.2105 30.4225 63.9413 30.4225 63.6092C30.4225 63.2772 30.1566 63.0081 29.8285 63.0081C29.5004 63.0081 29.2344 63.2772 29.2344 63.6092C29.2344 63.9413 29.5004 64.2105 29.8285 64.2105Z" fill="#383838"/>
<path d="M17.4734 66.6154C17.4734 66.9762 17.2358 67.2167 16.8793 67.2167C16.5228 67.2167 16.2852 66.9762 16.2852 66.6154C16.2852 66.2547 16.5228 66.0142 16.8793 66.0142C17.2358 66.0142 17.4734 66.2547 17.4734 66.6154Z" fill="#383838"/>
<path d="M19.3738 66.6153C19.3738 66.9761 19.1361 67.2166 18.7797 67.2166C18.4232 67.2166 18.1855 66.9761 18.1855 66.6153C18.1855 66.2546 18.4232 66.0142 18.7797 66.0142C19.1361 66.0142 19.3738 66.2546 19.3738 66.6153Z" fill="#383838"/>
<path d="M21.2761 66.6154C21.2761 66.9762 21.0384 67.2167 20.682 67.2167C20.3255 67.2167 20.0879 66.9762 20.0879 66.6154C20.0879 66.2547 20.3255 66.0142 20.682 66.0142C20.9197 66.0142 21.2761 66.2547 21.2761 66.6154Z" fill="#383838"/>
<path d="M23.0573 66.6153C23.0573 66.9761 22.8197 67.2166 22.4632 67.2166C22.1068 67.2166 21.8691 66.9761 21.8691 66.6153C21.8691 66.2546 22.1068 66.0142 22.4632 66.0142C22.8197 66.0142 23.0573 66.2546 23.0573 66.6153Z" fill="#383838"/>
<path d="M24.9617 66.6154C24.9617 66.9762 24.7241 67.2167 24.3676 67.2167C24.0111 67.2167 23.7734 66.9762 23.7734 66.6154C23.7734 66.2547 24.0111 66.0142 24.3676 66.0142C24.6052 66.0142 24.9617 66.2547 24.9617 66.6154Z" fill="#383838"/>
<path d="M26.7389 66.6154C26.7389 66.9762 26.5013 67.2167 26.1448 67.2167C25.7884 67.2167 25.5508 66.9762 25.5508 66.6154C25.5508 66.2547 25.7884 66.0142 26.1448 66.0142C26.5013 66.0142 26.7389 66.2547 26.7389 66.6154Z" fill="#383838"/>
<path d="M28.6414 66.6154C28.6414 66.9762 28.4038 67.2167 28.0473 67.2167C27.6908 67.2167 27.4531 66.9762 27.4531 66.6154C27.4531 66.2547 27.6908 66.0142 28.0473 66.0142C28.2849 66.0142 28.6414 66.2547 28.6414 66.6154Z" fill="#383838"/>
<path d="M30.4225 66.6154C30.4225 66.9762 30.1849 67.2167 29.8285 67.2167C29.472 67.2167 29.2344 66.9762 29.2344 66.6154C29.2344 66.2547 29.472 66.0142 29.8285 66.0142C30.1849 66.0142 30.4225 66.2547 30.4225 66.6154Z" fill="#383838"/>
<path d="M16.6414 65.0522C16.6414 65.4129 16.4037 65.6534 16.0472 65.6534C15.6908 65.6534 15.4531 65.4129 15.4531 65.0522C15.4531 64.6914 15.6908 64.4509 16.0472 64.4509C16.2849 64.4509 16.6414 64.8116 16.6414 65.0522Z" fill="#383838"/>
<path d="M18.4226 65.0522C18.4226 65.4129 18.185 65.6534 17.8285 65.6534C17.472 65.6534 17.2344 65.4129 17.2344 65.0522C17.2344 64.6914 17.472 64.4509 17.8285 64.4509C18.185 64.4509 18.4226 64.8116 18.4226 65.0522Z" fill="#383838"/>
<path d="M20.3269 65.0522C20.3269 65.4129 20.0893 65.6534 19.7328 65.6534C19.3763 65.6534 19.1387 65.4129 19.1387 65.0522C19.1387 64.6914 19.3763 64.4509 19.7328 64.4509C20.0893 64.4509 20.3269 64.8116 20.3269 65.0522Z" fill="#383838"/>
<path d="M22.1101 65.0522C22.1101 65.4129 21.8724 65.6534 21.516 65.6534C21.1595 65.6534 20.9219 65.4129 20.9219 65.0522C20.9219 64.6914 21.1595 64.4509 21.516 64.4509C21.8724 64.4509 22.1101 64.8116 22.1101 65.0522Z" fill="#383838"/>
<path d="M24.0085 65.0522C24.0085 65.4129 23.7708 65.6534 23.4144 65.6534C23.0579 65.6534 22.8203 65.4129 22.8203 65.0522C22.8203 64.6914 23.0579 64.4509 23.4144 64.4509C23.7708 64.4509 24.0085 64.8116 24.0085 65.0522Z" fill="#383838"/>
<path d="M25.7897 65.0522C25.7897 65.4129 25.5521 65.6534 25.1956 65.6534C24.8392 65.6534 24.6016 65.4129 24.6016 65.0522C24.6016 64.6914 24.8392 64.4509 25.1956 64.4509C25.5521 64.4509 25.7897 64.8116 25.7897 65.0522Z" fill="#383838"/>
<path d="M27.098 65.6534C27.4261 65.6534 27.6921 65.3842 27.6921 65.0522C27.6921 64.7201 27.4261 64.4509 27.098 64.4509C26.7699 64.4509 26.5039 64.7201 26.5039 65.0522C26.5039 65.3842 26.7699 65.6534 27.098 65.6534Z" fill="#383838"/>
<path d="M28.8811 65.6534C29.2093 65.6534 29.4753 65.3842 29.4753 65.0522C29.4753 64.7201 29.2093 64.4509 28.8811 64.4509C28.5531 64.4509 28.2871 64.7201 28.2871 65.0522C28.2871 65.3842 28.5531 65.6534 28.8811 65.6534Z" fill="#383838"/>
<path d="M96.0156 60.7231C96.0156 61.0838 96.2534 61.3243 96.6098 61.3243C96.9663 61.3243 97.2039 61.0838 97.2039 60.7231C97.2039 60.3623 96.9663 60.1218 96.6098 60.1218C96.2534 60.1218 96.0156 60.3623 96.0156 60.7231Z" fill="#383838"/>
<path d="M94.1133 60.7231C94.1133 61.0838 94.3509 61.3243 94.7074 61.3243C95.0638 61.3243 95.3015 61.0838 95.3015 60.7231C95.3015 60.3623 95.0638 60.1218 94.7074 60.1218C94.3509 60.1218 94.1133 60.3623 94.1133 60.7231Z" fill="#383838"/>
<path d="M92.332 60.7234C92.332 61.084 92.5697 61.3245 92.9262 61.3245C93.2827 61.3245 93.5203 61.084 93.5203 60.7234C93.5203 60.3626 93.2827 60.1221 92.9262 60.1221C92.5697 60.0019 92.332 60.3626 92.332 60.7234Z" fill="#383838"/>
<path d="M91.0297 61.3243C91.3577 61.3243 91.6238 61.0551 91.6238 60.7231C91.6238 60.391 91.3577 60.1218 91.0297 60.1218C90.7015 60.1218 90.4355 60.391 90.4355 60.7231C90.4355 61.0551 90.7015 61.3243 91.0297 61.3243Z" fill="#383838"/>
<path d="M88.5312 60.7231C88.5312 61.0838 88.7689 61.3243 89.1253 61.3243C89.4818 61.3243 89.7194 61.0838 89.7194 60.7231C89.7194 60.3623 89.4818 60.1218 89.1253 60.1218C88.7689 60.1218 88.5312 60.3623 88.5312 60.7231Z" fill="#383838"/>
<path d="M87.3402 61.3243C87.6683 61.3243 87.9344 61.0551 87.9344 60.7231C87.9344 60.391 87.6683 60.1218 87.3402 60.1218C87.0121 60.1218 86.7461 60.391 86.7461 60.7231C86.7461 61.0551 87.0121 61.3243 87.3402 61.3243Z" fill="#383838"/>
<path d="M85.4379 61.3243C85.7659 61.3243 86.0319 61.0551 86.0319 60.7231C86.0319 60.391 85.7659 60.1218 85.4379 60.1218C85.1097 60.1218 84.8438 60.391 84.8438 60.7231C84.8438 61.0551 85.1097 61.3243 85.4379 61.3243Z" fill="#383838"/>
<path d="M83.6566 61.3243C83.9848 61.3243 84.2508 61.0551 84.2508 60.7231C84.2508 60.391 83.9848 60.1218 83.6566 60.1218C83.3285 60.1218 83.0625 60.391 83.0625 60.7231C83.0625 61.0551 83.3285 61.3243 83.6566 61.3243Z" fill="#383838"/>
<path d="M96.8477 62.1663C96.8477 62.5271 97.0853 62.7676 97.4418 62.7676C97.7982 62.7676 98.0358 62.5271 98.0358 62.1663C98.0358 61.8055 97.7982 61.565 97.4418 61.565C97.2041 61.565 96.8477 61.8055 96.8477 62.1663Z" fill="#383838"/>
<path d="M95.0625 62.1662C95.0625 62.527 95.3001 62.7675 95.6566 62.7675C96.0131 62.7675 96.2508 62.527 96.2508 62.1662C96.2508 61.8054 96.0131 61.5649 95.6566 61.5649C95.3001 61.5649 95.0625 61.8054 95.0625 62.1662Z" fill="#383838"/>
<path d="M93.166 62.1663C93.166 62.5271 93.4036 62.7676 93.7601 62.7676C94.1165 62.7676 94.3542 62.5271 94.3542 62.1663C94.3542 61.8055 94.1165 61.565 93.7601 61.565C93.4036 61.565 93.166 61.8055 93.166 62.1663Z" fill="#383838"/>
<path d="M91.3828 62.1663C91.3828 62.5271 91.6204 62.7676 91.9769 62.7676C92.3334 62.7676 92.5711 62.5271 92.5711 62.1663C92.5711 61.8055 92.3334 61.565 91.9769 61.565C91.6204 61.565 91.3828 61.8055 91.3828 62.1663Z" fill="#383838"/>
<path d="M89.4785 62.1663C89.4785 62.5271 89.7162 62.7676 90.0726 62.7676C90.429 62.7676 90.6668 62.5271 90.6668 62.1663C90.6668 61.8055 90.429 61.565 90.0726 61.565C89.7162 61.565 89.4785 61.8055 89.4785 62.1663Z" fill="#383838"/>
<path d="M87.6953 62.1662C87.6953 62.527 87.9329 62.7675 88.2894 62.7675C88.6459 62.7675 88.8836 62.527 88.8836 62.1662C88.8836 61.8054 88.6459 61.5649 88.2894 61.5649C87.9329 61.5649 87.6953 61.8054 87.6953 62.1662Z" fill="#383838"/>
<path d="M85.7969 62.1663C85.7969 62.5271 86.0345 62.7676 86.3909 62.7676C86.7474 62.7676 86.985 62.5271 86.985 62.1663C86.985 61.8055 86.7474 61.565 86.3909 61.565C86.0345 61.565 85.7969 61.8055 85.7969 62.1663Z" fill="#383838"/>
<path d="M84.0156 62.1662C84.0156 62.527 84.2533 62.7675 84.6098 62.7675C84.9662 62.7675 85.2039 62.527 85.2039 62.1662C85.2039 61.8054 84.9662 61.5649 84.6098 61.5649C84.2533 61.5649 84.0156 61.8054 84.0156 62.1662Z" fill="#383838"/>
<path d="M96.0156 63.6092C96.0156 63.97 96.2534 64.2105 96.6098 64.2105C96.9663 64.2105 97.2039 63.97 97.2039 63.6092C97.2039 63.2485 96.9663 63.0081 96.6098 63.0081C96.2534 63.0081 96.0156 63.2485 96.0156 63.6092Z" fill="#383838"/>
<path d="M94.1133 63.6092C94.1133 63.97 94.3509 64.2105 94.7074 64.2105C95.0638 64.2105 95.3015 63.97 95.3015 63.6092C95.3015 63.2485 95.0638 63.0081 94.7074 63.0081C94.3509 63.0081 94.1133 63.2485 94.1133 63.6092Z" fill="#383838"/>
<path d="M92.332 63.6092C92.332 63.97 92.5697 64.2105 92.9262 64.2105C93.2827 64.2105 93.5203 63.97 93.5203 63.6092C93.5203 63.2485 93.2827 63.0081 92.9262 63.0081C92.5697 63.0081 92.332 63.2485 92.332 63.6092Z" fill="#383838"/>
<path d="M91.0297 64.2105C91.3577 64.2105 91.6238 63.9413 91.6238 63.6092C91.6238 63.2772 91.3577 63.0081 91.0297 63.0081C90.7015 63.0081 90.4355 63.2772 90.4355 63.6092C90.4355 63.9413 90.7015 64.2105 91.0297 64.2105Z" fill="#383838"/>
<path d="M88.5312 63.6092C88.5312 63.97 88.7689 64.2105 89.1253 64.2105C89.4818 64.2105 89.7194 63.97 89.7194 63.6092C89.7194 63.2485 89.4818 63.0081 89.1253 63.0081C88.7689 63.0081 88.5312 63.2485 88.5312 63.6092Z" fill="#383838"/>
<path d="M87.3402 64.2105C87.6683 64.2105 87.9344 63.9413 87.9344 63.6092C87.9344 63.2772 87.6683 63.0081 87.3402 63.0081C87.0121 63.0081 86.7461 63.2772 86.7461 63.6092C86.7461 63.9413 87.0121 64.2105 87.3402 64.2105Z" fill="#383838"/>
<path d="M85.4379 64.2105C85.7659 64.2105 86.0319 63.9413 86.0319 63.6092C86.0319 63.2772 85.7659 63.0081 85.4379 63.0081C85.1097 63.0081 84.8438 63.2772 84.8438 63.6092C84.8438 63.9413 85.1097 64.2105 85.4379 64.2105Z" fill="#383838"/>
<path d="M83.6566 64.2105C83.9848 64.2105 84.2508 63.9413 84.2508 63.6092C84.2508 63.2772 83.9848 63.0081 83.6566 63.0081C83.3285 63.0081 83.0625 63.2772 83.0625 63.6092C83.0625 63.9413 83.3285 64.2105 83.6566 64.2105Z" fill="#383838"/>
<path d="M96.0156 66.6154C96.0156 66.9762 96.2534 67.2167 96.6098 67.2167C96.9663 67.2167 97.2039 66.9762 97.2039 66.6154C97.2039 66.2547 96.9663 66.0142 96.6098 66.0142C96.2534 66.0142 96.0156 66.2547 96.0156 66.6154Z" fill="#383838"/>
<path d="M94.1133 66.6154C94.1133 66.9762 94.3509 67.2167 94.7074 67.2167C95.0638 67.2167 95.3015 66.9762 95.3015 66.6154C95.3015 66.2547 95.0638 66.0142 94.7074 66.0142C94.3509 66.0142 94.1133 66.2547 94.1133 66.6154Z" fill="#383838"/>
<path d="M92.332 66.6154C92.332 66.9762 92.5697 67.2167 92.9262 67.2167C93.2827 67.2167 93.5203 66.9762 93.5203 66.6154C93.5203 66.2547 93.2827 66.0142 92.9262 66.0142C92.5697 66.0142 92.332 66.2547 92.332 66.6154Z" fill="#383838"/>
<path d="M90.4355 66.6154C90.4355 66.9762 90.6732 67.2167 91.0297 67.2167C91.3861 67.2167 91.6238 66.9762 91.6238 66.6154C91.6238 66.2547 91.3861 66.0142 91.0297 66.0142C90.6732 66.0142 90.4355 66.2547 90.4355 66.6154Z" fill="#383838"/>
<path d="M88.5312 66.6154C88.5312 66.9762 88.7689 67.2167 89.1253 67.2167C89.4818 67.2167 89.7194 66.9762 89.7194 66.6154C89.7194 66.2547 89.4818 66.0142 89.1253 66.0142C88.7689 66.0142 88.5312 66.2547 88.5312 66.6154Z" fill="#383838"/>
<path d="M86.7461 66.6154C86.7461 66.9762 86.9837 67.2167 87.3402 67.2167C87.6966 67.2167 87.9344 66.9762 87.9344 66.6154C87.9344 66.2547 87.6966 66.0142 87.3402 66.0142C86.9837 66.0142 86.7461 66.2547 86.7461 66.6154Z" fill="#383838"/>
<path d="M84.8438 66.6154C84.8438 66.9762 85.0814 67.2167 85.4379 67.2167C85.7943 67.2167 86.0319 66.9762 86.0319 66.6154C86.0319 66.2547 85.7943 66.0142 85.4379 66.0142C85.0814 66.0142 84.8438 66.2547 84.8438 66.6154Z" fill="#383838"/>
<path d="M83.0625 66.6154C83.0625 66.9762 83.3001 67.2167 83.6566 67.2167C84.0131 67.2167 84.2508 66.9762 84.2508 66.6154C84.2508 66.2547 84.0131 66.0142 83.6566 66.0142C83.3001 66.0142 83.0625 66.2547 83.0625 66.6154Z" fill="#383838"/>
<path d="M96.8477 65.0523C96.8477 65.413 97.0853 65.6534 97.4418 65.6534C97.7982 65.6534 98.0358 65.413 98.0358 65.0523C98.0358 64.6915 97.7982 64.451 97.4418 64.451C97.2041 64.451 96.8477 64.8117 96.8477 65.0523Z" fill="#383838"/>
<path d="M95.0625 65.0522C95.0625 65.4129 95.3001 65.6534 95.6566 65.6534C96.0131 65.6534 96.2508 65.4129 96.2508 65.0522C96.2508 64.6914 96.0131 64.4509 95.6566 64.4509C95.3001 64.4509 95.0625 64.8116 95.0625 65.0522Z" fill="#383838"/>
<path d="M93.166 65.0522C93.166 65.4129 93.4036 65.6534 93.7601 65.6534C94.1165 65.6534 94.3542 65.4129 94.3542 65.0522C94.3542 64.6914 94.1165 64.4509 93.7601 64.4509C93.4036 64.4509 93.166 64.8116 93.166 65.0522Z" fill="#383838"/>
<path d="M91.3828 65.0522C91.3828 65.4129 91.6204 65.6534 91.9769 65.6534C92.3334 65.6534 92.5711 65.4129 92.5711 65.0522C92.5711 64.6914 92.3334 64.4509 91.9769 64.4509C91.6204 64.4509 91.3828 64.8116 91.3828 65.0522Z" fill="#383838"/>
<path d="M89.4785 65.0522C89.4785 65.4129 89.7162 65.6534 90.0726 65.6534C90.429 65.6534 90.6668 65.4129 90.6668 65.0522C90.6668 64.6914 90.429 64.4509 90.0726 64.4509C89.7162 64.4509 89.4785 64.8116 89.4785 65.0522Z" fill="#383838"/>
<path d="M88.2894 65.6534C88.6176 65.6534 88.8836 65.3842 88.8836 65.0522C88.8836 64.7201 88.6176 64.4509 88.2894 64.4509C87.9613 64.4509 87.6953 64.7201 87.6953 65.0522C87.6953 65.3842 87.9613 65.6534 88.2894 65.6534Z" fill="#383838"/>
<path d="M86.3909 65.6534C86.7191 65.6534 86.985 65.3842 86.985 65.0522C86.985 64.7201 86.7191 64.4509 86.3909 64.4509C86.0629 64.4509 85.7969 64.7201 85.7969 65.0522C85.7969 65.3842 86.0629 65.6534 86.3909 65.6534Z" fill="#383838"/>
<path d="M84.6098 65.6534C84.9378 65.6534 85.2039 65.3842 85.2039 65.0522C85.2039 64.7201 84.9378 64.4509 84.6098 64.4509C84.2816 64.4509 84.0156 64.7201 84.0156 65.0522C84.0156 65.3842 84.2816 65.6534 84.6098 65.6534Z" fill="#383838"/>
<path d="M92.3316 19.5988H20.5625V58.1982H98.1539L92.3316 19.5988Z" fill="#8607DD"/>
<path d="M92.2127 19.5988H20.5625V58.1982H92.2127V19.5988Z" fill="#FDFDFD"/>
<path d="M24.0099 21.8835C24.0099 22.4847 23.5346 22.9658 22.9405 22.9658C22.3464 22.9658 21.8711 22.4847 21.8711 21.8835C21.8711 21.2822 22.3464 20.8013 22.9405 20.8013C23.5346 20.8013 24.0099 21.2822 24.0099 21.8835Z" fill="#A93E13"/>
<path d="M27.2169 21.8835C27.2169 22.4847 26.7416 22.9658 26.1475 22.9658C25.5534 22.9658 25.0781 22.4847 25.0781 21.8835C25.0781 21.2822 25.5534 20.8013 26.1475 20.8013C26.7416 20.8013 27.2169 21.2822 27.2169 21.8835Z" fill="#F2D639"/>
<path d="M30.5471 21.8835C30.5471 22.4847 30.0717 22.9658 29.4776 22.9658C28.8836 22.9658 28.4082 22.4847 28.4082 21.8835C28.4082 21.2822 28.8836 20.8013 29.4776 20.8013C30.0717 20.8013 30.5471 21.2822 30.5471 21.8835Z" fill="#37A902"/>
<path d="M41.4757 25.9718H25.0781V44.4899H41.4757V25.9718Z" fill="#E2B7FF"/>
<path d="M62.8641 25.764H46.3477V31.8966H62.8641V25.764Z" fill="#37A902"/>
<path d="M87.9381 25.9718H64.7676V32.1044H87.9381V25.9718Z" fill="#A435F0"/>
<path d="M87.9357 35.2309H46.3477V37.0346H87.9357V35.2309Z" fill="#9EA5AF"/>
<path d="M87.9357 39.3193H46.3477V41.1231H87.9357V39.3193Z" fill="#9EA5AF"/>
<path d="M87.9357 43.4077H46.3477V45.2114H87.9357V43.4077Z" fill="#9EA5AF"/>
<path d="M87.9357 47.4961H46.3477V49.2998H87.9357V47.4961Z" fill="#9EA5AF"/>
<path d="M87.9357 51.5845H46.3477V53.3883H87.9357V51.5845Z" fill="#9EA5AF"/>
<path d="M31.0192 49.4202H26.3852C25.6723 49.4202 25.0781 48.8189 25.0781 48.0974C25.0781 47.3759 25.6723 46.7747 26.3852 46.7747H31.0192C31.7322 46.7747 32.3264 47.3759 32.3264 48.0974C32.2075 48.8189 31.7322 49.4202 31.0192 49.4202Z" fill="#F2D639"/>
<path d="M40.1697 49.42H35.5356C34.8226 49.42 34.2285 48.8188 34.2285 48.0973C34.2285 47.3758 34.8226 46.7745 35.5356 46.7745H40.1697C40.8826 46.7745 41.4767 47.3758 41.4767 48.0973C41.4767 48.8188 40.8826 49.42 40.1697 49.42Z" fill="#37A902"/>
<path d="M38.8617 41.7243C38.2676 40.7622 34.9406 40.4016 34.9406 39.3193V39.0788C35.0594 38.9586 35.1782 38.8383 35.2971 38.7181C35.5347 38.5978 35.6535 38.3573 35.7723 38.1168C35.7723 37.9965 35.8912 37.9966 35.8912 37.8764C35.8912 37.7561 36.01 37.7561 36.01 37.6359C36.01 37.6359 36.01 37.6359 36.01 37.5156C36.01 37.3954 36.1288 37.3954 36.1288 37.2751V37.1549C36.1288 37.1549 36.1288 37.0346 36.2476 37.0346C36.2476 36.9144 36.3665 36.7941 36.3665 36.6739C36.3665 36.6739 36.3665 36.6739 36.4852 36.6739C37.0794 36.7941 37.317 36.3131 37.5546 35.3512C37.5546 35.1107 37.6735 34.8702 37.6735 34.7499C37.6735 34.6297 37.6735 34.5094 37.6735 34.5094C37.6735 34.2689 37.6735 34.1487 37.5546 34.0284C37.5546 34.0284 37.4359 34.0284 37.4359 33.9082C37.317 33.9082 37.3171 33.7879 37.1982 33.7879H37.0794C37.1982 32.2248 36.9606 30.5413 35.6535 29.6996C34.4653 28.8578 32.8018 28.8578 31.6135 29.3388C31.1383 29.5793 30.663 29.8198 30.4253 30.3008C29.7124 31.1425 29.4747 32.345 29.5936 33.4272C29.5936 33.5474 29.5936 33.6677 29.5936 33.7879C28.8806 33.7879 28.8806 34.3892 29.1182 35.3512C29.3559 36.3131 29.5936 36.7941 30.1876 36.6739C30.1876 36.6739 30.1876 36.6739 30.3065 36.6739C30.6629 37.7561 31.1383 38.4776 31.8511 38.9586V39.1991V39.3193C31.8511 40.4016 28.5241 40.7622 27.93 41.7243C27.8112 41.9648 27.3359 44.49 27.3359 44.49H38.3865H39.6935C39.5746 44.49 39.0994 42.085 38.8617 41.7243Z" fill="#C5C9CF"/>
<path d="M39.6861 44.5592V34.2713C39.6861 33.6778 39.1974 33.1831 38.6109 33.1831H28.0538C27.4673 33.1831 26.9785 33.6778 26.9785 34.2713V44.5592H39.6861Z" fill="#303030"/>
<path d="M36.5624 36.5465C37.3445 33.381 37.9311 30.6111 37.9311 29.4241C37.9311 26.3575 35.8782 23.7856 33.2389 23.7856C30.6974 23.7856 28.5469 26.2586 28.5469 29.4241C28.5469 30.6111 29.2312 33.48 30.111 36.5465H36.5624Z" fill="#8D5C3E"/>
<path d="M37.9302 39.1185C38.1257 39.712 38.3212 40.3056 38.6144 40.8991C38.7122 41.1959 38.8099 41.4926 39.0054 41.8883V41.9872C39.2987 42.7786 39.2987 43.57 39.2987 44.2625C39.2987 44.3615 39.3964 44.5593 39.3964 44.6582H40.9604C41.1559 44.4604 41.3514 44.1636 41.4492 43.57C41.4492 43.3721 41.5469 43.0754 41.5469 42.8775C40.8627 40.0088 40.2762 38.525 39.1032 35.953V35.8541C38.9077 35.3595 38.3212 35.1616 37.8324 35.2606H37.7347C37.6369 35.2606 37.5391 35.3595 37.4414 35.3595C37.0504 35.6563 36.8549 36.1509 36.9526 36.6455C37.0504 36.7444 37.4414 37.7336 37.9302 39.1185Z" fill="#EAB99A"/>
<path d="M28.8375 39.1185C28.642 39.712 28.4465 40.3056 28.1532 40.8991C28.0555 41.1959 27.9577 41.4926 27.7622 41.8883V41.9872C27.469 42.7786 27.469 43.57 27.469 44.2625C27.469 44.3615 27.3712 44.5593 27.3712 44.6582H25.8072C25.6117 44.4604 25.4162 44.1636 25.3185 43.57C25.3185 43.3721 25.2207 43.0754 25.2207 42.8775C25.905 40.0088 26.4915 38.525 27.6645 35.953V35.8541C27.86 35.3595 28.4465 35.1616 28.9352 35.2606H29.033C29.1307 35.2606 29.2285 35.3595 29.3262 35.3595C29.7172 35.6563 29.9127 36.1509 29.815 36.6455C29.7172 36.7444 29.3262 37.7336 28.8375 39.1185Z" fill="#EAB99A"/>
<path d="M36.1715 29.0285C36.1715 31.1058 34.9008 33.5789 33.3368 33.5789C33.2391 33.5789 33.239 33.5789 33.1412 33.5789C31.675 33.3811 30.502 31.0069 30.502 29.0285C30.502 27.05 31.675 25.4673 33.1412 25.2694C33.239 25.2694 33.2391 25.2694 33.3368 25.2694C34.9008 25.2694 36.1715 26.9511 36.1715 29.0285Z" fill="#EAB99A"/>
<path d="M35.675 29.0285C35.675 31.0069 34.502 33.3811 33.0358 33.5789C31.5695 33.3811 30.3965 31.0069 30.3965 29.0285C30.3965 28.9295 30.3965 28.9295 30.3965 28.8306C30.3965 27.4457 31.0807 26.2587 31.9605 25.6651C32.2538 25.4673 32.4493 25.3684 32.7425 25.2694C32.8403 25.2694 32.938 25.2694 33.0358 25.2694C33.2313 25.2694 33.4268 25.3684 33.5245 25.3684C34.5998 25.764 35.3818 26.9511 35.5773 28.4349C35.675 28.6328 35.675 28.8306 35.675 29.0285Z" fill="#F5C4A5"/>
<path d="M30.1035 26.3575C30.1035 26.3575 30.69 27.6435 32.9383 28.0392C35.2843 28.4349 35.6753 29.4242 35.9686 30.1166C35.9686 30.1166 37.2393 27.05 35.2843 25.8629C33.427 24.6759 30.9833 24.3791 30.1035 26.3575Z" fill="#8D5C3E"/>
<path d="M27.5667 41.8884C27.7622 41.4927 27.86 41.1959 27.9577 40.8992C28.0555 41.097 28.3487 41.2948 28.5442 41.4927C28.7397 41.6905 28.9352 41.7895 29.1307 41.8884C29.2285 41.9873 29.3262 41.9873 29.5217 42.0862C29.9127 42.9765 30.1082 43.7679 30.3037 44.5594H36.3643C36.5598 43.7679 36.7553 42.8776 37.1463 41.9873H37.2441C37.3418 41.9873 37.4396 41.8884 37.5373 41.8884C38.0261 41.6905 38.4171 41.3938 38.6126 40.9981C38.7103 41.2949 38.8081 41.5916 39.0036 41.9873V42.0862C39.1013 42.383 39.1991 42.5808 39.1991 42.8776C39.5901 42.7787 39.9811 42.6798 40.3721 42.4819C40.6653 42.2841 40.9586 42.0862 41.2518 41.8884C40.6653 39.811 40.0788 38.4261 39.1991 36.1509V36.052C39.0036 35.5574 38.4171 35.3596 37.9283 35.4585H36.6576C36.1688 35.4585 35.7778 35.3596 35.4845 35.1617L33.2363 37.2391L30.988 35.1617C30.6948 35.3596 30.3037 35.3596 29.815 35.4585H28.642C28.1532 35.3596 27.5667 35.5574 27.3712 36.052C27.3712 36.052 27.3712 36.052 27.3712 36.1509C26.3937 38.4261 25.8072 39.811 25.2207 41.9873C25.8072 42.5808 26.5892 42.7787 27.2735 43.0754C27.3712 42.4819 27.469 42.1851 27.5667 41.8884Z" fill="#FD6D60"/>
<path d="M39.5885 44.5592V39.5141C39.5885 39.2174 39.393 39.0195 39.0997 39.0195H27.3696C27.0764 39.0195 26.8809 39.2174 26.8809 39.5141V44.5592H39.5885Z" fill="#606060"/>
<path d="M51.3892 26.4706C51.6488 26.4706 51.877 26.521 52.0737 26.6217C52.2704 26.7224 52.4218 26.8659 52.5281 27.0524C52.6382 27.2351 52.6933 27.4459 52.6933 27.6845C52.6933 27.9195 52.6363 28.1265 52.5222 28.3055C52.412 28.4845 52.2547 28.6244 52.0501 28.7251C51.8495 28.8221 51.6173 28.8705 51.3538 28.8705H50.5159C50.4961 28.8705 50.4864 28.8798 50.4864 28.8986V30.325C50.4864 30.3437 50.4784 30.3605 50.4627 30.3754C50.451 30.3866 50.4352 30.3922 50.4155 30.3922H49.7251C49.7054 30.3922 49.6877 30.3866 49.672 30.3754C49.6602 30.3605 49.6543 30.3437 49.6543 30.325V26.5378C49.6543 26.5191 49.6602 26.5041 49.672 26.493C49.6877 26.4781 49.7054 26.4706 49.7251 26.4706H51.3892ZM51.2652 28.2384C51.4463 28.2384 51.5918 28.1899 51.7019 28.093C51.812 27.9923 51.8672 27.8617 51.8672 27.7013C51.8672 27.5373 51.812 27.4048 51.7019 27.3041C51.5918 27.2035 51.4463 27.1531 51.2652 27.1531H50.5159C50.4961 27.1531 50.4864 27.1625 50.4864 27.1811V28.2104C50.4864 28.229 50.4961 28.2384 50.5159 28.2384H51.2652Z" fill="white"/>
<path d="M55.5031 30.3921C55.4638 30.3921 55.4382 30.3735 55.4264 30.3362L55.2494 29.7879C55.2415 29.773 55.2317 29.7656 55.2198 29.7656H53.7682C53.7564 29.7656 53.7466 29.773 53.7387 29.7879L53.5676 30.3362C53.5558 30.3735 53.5302 30.3921 53.4909 30.3921H52.7415C52.7179 30.3921 52.7002 30.3866 52.6884 30.3754C52.6766 30.3605 52.6746 30.3399 52.6824 30.3138L53.9571 26.5321C53.9689 26.4948 53.9944 26.4762 54.0338 26.4762H54.9602C54.9996 26.4762 55.0251 26.4948 55.0369 26.5321L56.3115 30.3138C56.3155 30.3213 56.3175 30.3306 56.3175 30.3418C56.3175 30.3754 56.2958 30.3921 56.2526 30.3921H55.5031ZM53.9511 29.1222C53.9472 29.1446 53.9551 29.1558 53.9748 29.1558H55.0134C55.0369 29.1558 55.0448 29.1446 55.0369 29.1222L54.5059 27.4608C54.502 27.4459 54.496 27.4403 54.4882 27.444C54.4803 27.444 54.4744 27.4496 54.4705 27.4608L53.9511 29.1222Z" fill="white"/>
<path d="M57.4331 30.3866C57.4134 30.3866 57.3957 30.381 57.3799 30.3698C57.3682 30.3549 57.3622 30.338 57.3622 30.3194V28.9041C57.3622 28.8892 57.3603 28.8779 57.3564 28.8705L56.1407 26.5545C56.1329 26.5396 56.1289 26.5284 56.1289 26.521C56.1289 26.4911 56.1506 26.4762 56.1938 26.4762H56.9374C56.9767 26.4762 57.0043 26.4929 57.02 26.5266L57.7576 28.0146C57.7695 28.037 57.7812 28.037 57.793 28.0146L58.5306 26.5266C58.5464 26.4929 58.5739 26.4762 58.6132 26.4762H59.3686C59.3961 26.4762 59.4138 26.4836 59.4216 26.4985C59.4335 26.5097 59.4335 26.5284 59.4216 26.5545L58.1943 28.8705C58.1904 28.8779 58.1884 28.8892 58.1884 28.9041V30.3194C58.1884 30.338 58.1805 30.3549 58.1648 30.3698C58.1529 30.381 58.1372 30.3866 58.1176 30.3866H57.4331Z" fill="white"/>
<path d="M52.7891 49.0961V46.7371H59.8454V49.0961" fill="#A435F0"/>
<path d="M52.7891 44.0411H59.8454V46.7372H52.7891V44.0411Z" fill="#ECF0F1"/>
<path d="M59.3397 35.6157C59.117 35.6157 58.9033 35.7046 58.7457 35.8625C58.5882 36.0205 58.4997 36.2349 58.4997 36.4583V35.4472C58.4997 35.2238 58.4112 35.0095 58.2536 34.8515C58.0962 34.6935 57.8825 34.6048 57.6597 34.6048C57.4368 34.6048 57.2231 34.6935 57.0657 34.8515C56.9081 35.0095 56.8196 35.2238 56.8196 35.4472V34.7733C56.8196 34.5498 56.7311 34.3354 56.5736 34.1775C56.416 34.0195 56.2023 33.9307 55.9796 33.9307C55.7568 33.9307 55.5431 34.0195 55.3855 34.1775C55.228 34.3354 55.1395 34.5498 55.1395 34.7733V31.4031C55.1395 31.1797 55.051 30.9653 54.8934 30.8074C54.736 30.6494 54.5223 30.5606 54.2994 30.5606C54.0766 30.5606 53.863 30.6494 53.7055 30.8074C53.5479 30.9653 53.4594 31.1797 53.4594 31.4031V35.9528C53.0138 35.9528 52.5865 36.1303 52.2714 36.4463C51.9563 36.7623 51.7793 37.1909 51.7793 37.6378V39.7879C51.7793 40.5762 52.0549 41.3399 52.5582 41.9454L53.1479 42.6552C53.3492 42.8975 53.4594 43.2029 53.4594 43.5183V44.041H59.1717V43.4674C59.1718 43.1776 59.2184 42.8897 59.3098 42.6148L59.904 40.8269C60.0868 40.2773 60.1798 39.7013 60.1798 39.1217V36.4583C60.1798 36.2349 60.0913 36.0205 59.9338 35.8625C59.7762 35.7046 59.5625 35.6157 59.3397 35.6157Z" fill="#F0C9AE"/>
<path d="M54.4709 31.9094H54.1349C54.0458 31.9094 53.9603 31.8738 53.8973 31.8107C53.8342 31.7474 53.7988 31.6617 53.7988 31.5723V30.7298C53.7988 30.6405 53.8342 30.5547 53.8973 30.4915C53.9603 30.4283 54.0458 30.3928 54.1349 30.3928H54.4709C54.56 30.3928 54.6455 30.4283 54.7085 30.4915C54.7715 30.5547 54.8069 30.6405 54.8069 30.7298V31.5723C54.8069 31.6617 54.7715 31.7474 54.7085 31.8107C54.6455 31.8738 54.56 31.9094 54.4709 31.9094Z" fill="#ECF0F1"/>
<path d="M55.141 37.3008C55.0965 37.3008 55.0538 37.2831 55.0223 37.2514C54.9908 37.2199 54.9731 37.177 54.9731 37.1323V31.4031C54.9731 31.0314 54.6716 30.7292 54.301 30.7292C53.9304 30.7292 53.629 31.0314 53.629 31.4031V37.1323C53.629 37.177 53.6112 37.2199 53.5798 37.2514C53.5483 37.2831 53.5056 37.3008 53.461 37.3008C53.4164 37.3008 53.3737 37.2831 53.3421 37.2514C53.3107 37.2199 53.293 37.177 53.293 37.1323V31.4031C53.293 30.8457 53.7453 30.3921 54.301 30.3921C54.8568 30.3921 55.3091 30.8457 55.3091 31.4031V37.1323C55.3091 37.177 55.2914 37.2199 55.2599 37.2514C55.2283 37.2831 55.1856 37.3008 55.141 37.3008Z" fill="#212E3A"/>
<path d="M56.8227 37.6379C56.7781 37.6379 56.7354 37.6201 56.7038 37.5885C56.6723 37.557 56.6547 37.514 56.6547 37.4694V34.7733C56.6547 34.4016 56.3533 34.0992 55.9826 34.0992C55.6119 34.0992 55.3106 34.4016 55.3106 34.7733V37.4694C55.3106 37.514 55.2929 37.557 55.2614 37.5885C55.2298 37.6201 55.1871 37.6379 55.1425 37.6379C55.098 37.6379 55.0553 37.6201 55.0238 37.5885C54.9923 37.557 54.9746 37.514 54.9746 37.4694V34.7733C54.9746 34.2159 55.4268 33.7623 55.9826 33.7623C56.5384 33.7623 56.9906 34.2159 56.9906 34.7733V37.4694C56.9906 37.514 56.9729 37.557 56.9415 37.5885C56.91 37.6201 56.8673 37.6379 56.8227 37.6379Z" fill="#212E3A"/>
<path d="M58.4985 38.9858C58.4539 38.9858 58.4112 38.9681 58.3797 38.9365C58.3482 38.9049 58.3304 38.862 58.3304 38.8174V35.4472C58.3304 35.0755 58.0291 34.7733 57.6585 34.7733C57.2878 34.7733 56.9864 35.0755 56.9864 35.4472V38.1433C56.9864 38.188 56.9687 38.2309 56.9372 38.2625C56.9057 38.2941 56.863 38.3118 56.8184 38.3118C56.7739 38.3118 56.7311 38.2941 56.6996 38.2625C56.6681 38.2309 56.6504 38.188 56.6504 38.1433V35.4472C56.6504 34.8898 57.1027 34.4362 57.6585 34.4362C58.2142 34.4362 58.6665 34.8898 58.6665 35.4472V38.8174C58.6665 38.862 58.6488 38.9049 58.6173 38.9365C58.5858 38.9681 58.543 38.9858 58.4985 38.9858Z" fill="#212E3A"/>
<path d="M58.5017 38.9859C58.4571 38.9859 58.4144 38.9681 58.3829 38.9365C58.3514 38.905 58.3337 38.862 58.3337 38.8174V36.4583C58.3337 35.9009 58.7859 35.4472 59.3418 35.4472C59.8976 35.4472 60.3499 35.9009 60.3499 36.4583V38.1433C60.3499 38.188 60.3321 38.231 60.3006 38.2625C60.2691 38.2941 60.2264 38.3118 60.1818 38.3118C60.1373 38.3118 60.0945 38.2941 60.063 38.2625C60.0315 38.231 60.0138 38.188 60.0138 38.1433V36.4583C60.0138 36.0865 59.7124 35.7843 59.3418 35.7843C58.9711 35.7843 58.6697 36.0865 58.6697 36.4583V38.8174C58.6697 38.862 58.652 38.905 58.6206 38.9365C58.589 38.9681 58.5463 38.9859 58.5017 38.9859ZM53.4615 39.6599C53.4169 39.6599 53.3742 39.6421 53.3426 39.6106C53.3111 39.579 53.2934 39.5361 53.2934 39.4914V36.1304C52.5384 36.2147 51.9493 36.8583 51.9493 37.6378V39.4914C51.9493 39.5361 51.9317 39.579 51.9002 39.6106C51.8686 39.6421 51.8259 39.6599 51.7813 39.6599C51.7367 39.6599 51.694 39.6421 51.6625 39.6106C51.6311 39.579 51.6133 39.5361 51.6133 39.4914V37.6378C51.6133 36.6161 52.4426 35.7843 53.4615 35.7843C53.506 35.7843 53.5487 35.802 53.5802 35.8336C53.6117 35.8653 53.6295 35.9081 53.6295 35.9528V39.4914C53.6295 39.5361 53.6117 39.579 53.5802 39.6106C53.5487 39.6421 53.506 39.6599 53.4615 39.6599Z" fill="#212E3A"/>
<path d="M59.1737 44.2096H53.4615C53.4169 44.2096 53.3742 44.1918 53.3426 44.1602C53.3111 44.1286 53.2934 44.0858 53.2934 44.0411V43.518C53.2934 43.2426 53.1966 42.9748 53.0209 42.7631L52.4309 42.0537C51.9032 41.4171 51.6141 40.6155 51.6133 39.7876V38.6489C51.6133 38.6042 51.6311 38.5614 51.6625 38.5297C51.694 38.4981 51.7367 38.4804 51.7813 38.4804C51.8259 38.4804 51.8686 38.4981 51.9002 38.5297C51.9317 38.5614 51.9493 38.6042 51.9493 38.6489V39.7879C51.9493 40.5355 52.2121 41.263 52.6889 41.8376L53.279 42.5471C53.5052 42.8198 53.6292 43.1632 53.6295 43.518V43.8725H59.0058V43.4678C59.0058 43.1598 59.0548 42.8551 59.1522 42.562L59.7466 40.7741C59.9238 40.2399 60.0138 39.6845 60.0138 39.1221V37.6378C60.0138 37.5931 60.0315 37.5503 60.063 37.5187C60.0945 37.4872 60.1373 37.4694 60.1818 37.4694C60.2264 37.4694 60.2691 37.4872 60.3006 37.5187C60.3321 37.5503 60.3499 37.5931 60.3499 37.6378V39.1221C60.3499 39.7206 60.2541 40.3121 60.0652 40.8806L59.4708 42.6684C59.3855 42.9261 59.3419 43.1959 59.3418 43.4674V44.0411C59.3418 44.0858 59.3241 44.1286 59.2926 44.1602C59.261 44.1918 59.2183 44.2096 59.1737 44.2096ZM54.3014 32.5689C54.257 32.5689 54.2141 32.5512 54.1827 32.5195C54.1512 32.4879 54.1335 32.4451 54.1335 32.4004V31.5717C54.1335 31.527 54.1512 31.4841 54.1827 31.4525C54.2141 31.421 54.257 31.4031 54.3014 31.4031C54.346 31.4031 54.3888 31.421 54.4203 31.4525C54.4518 31.4841 54.4695 31.527 54.4695 31.5717V32.4004C54.4695 32.4451 54.4518 32.4879 54.4203 32.5195C54.3888 32.5512 54.346 32.5689 54.3014 32.5689Z" fill="#212E3A"/>
<path d="M59.8455 46.9057H52.7891C52.7446 46.9057 52.7018 46.8879 52.6703 46.8563C52.6388 46.8247 52.6211 46.7819 52.6211 46.7372V44.0411C52.6211 43.9964 52.6388 43.9535 52.6703 43.9219C52.7018 43.8903 52.7446 43.8726 52.7891 43.8726H59.8455C59.89 43.8726 59.9328 43.8903 59.9643 43.9219C59.9958 43.9535 60.0135 43.9964 60.0135 44.0411V46.7372C60.0135 46.7819 59.9958 46.8247 59.9643 46.8563C59.9328 46.8879 59.89 46.9057 59.8455 46.9057ZM52.9571 46.5686H59.6774V44.2096H52.9571V46.5686Z" fill="#212E3A"/>
<path d="M59.8455 49.2647C59.8009 49.2647 59.7582 49.2469 59.7267 49.2154C59.6952 49.1837 59.6774 49.1409 59.6774 49.0962V46.9057H52.9571V49.0962C52.9571 49.1409 52.9394 49.1837 52.9079 49.2154C52.8764 49.2469 52.8337 49.2647 52.7891 49.2647C52.7446 49.2647 52.7018 49.2469 52.6703 49.2154C52.6388 49.1837 52.6211 49.1409 52.6211 49.0962V46.7371C52.6211 46.6924 52.6388 46.6496 52.6703 46.6179C52.7018 46.5863 52.7446 46.5686 52.7891 46.5686H59.8455C59.89 46.5686 59.9328 46.5863 59.9643 46.6179C59.9958 46.6496 60.0135 46.6924 60.0135 46.7371V49.0962C60.0135 49.1409 59.9958 49.1837 59.9643 49.2154C59.9328 49.2469 59.89 49.2647 59.8455 49.2647Z" fill="#212E3A"/>
</svg>
