<svg width="137" height="100" viewBox="0 0 137 100" fill="none" xmlns="http://www.w3.org/2000/svg">
<path d="M130.533 71.3547H30.1641V7.14276H130.533C132.453 7.14276 134.007 8.68567 134.007 10.5916V67.906C134.007 69.8119 132.453 71.3547 130.533 71.3547Z" fill="#1F1D0D"/>
<path d="M126.189 71.3548H28.4256C26.7345 71.3548 25.3633 69.9936 25.3633 68.3145V10.1833C25.3633 8.50428 26.7345 7.14288 28.4256 7.14288H126.189C127.881 7.14288 129.252 8.50428 129.252 10.1833V68.3145C129.206 69.9936 127.881 71.3548 126.189 71.3548Z" fill="#454545"/>
<path d="M124.454 12.18H30.1641V60.6454H124.454V12.18Z" fill="white"/>
<path d="M80.078 65.7279C80.078 67.2707 78.8438 68.4961 77.29 68.4961C75.7359 68.4961 74.502 67.2707 74.502 65.7279C74.502 64.185 75.7359 62.9597 77.29 62.9597C78.8438 62.9597 80.078 64.185 80.078 65.7279Z" fill="#1F1D0D"/>
<path d="M96.343 71.3549H58.2246V88.0091H96.343V71.3549Z" fill="#1F1D0D"/>
<path d="M110.608 91.5034H44.0149C43.0551 91.5034 42.2324 90.732 42.2324 89.7336C42.2324 88.7807 43.0094 87.9637 44.0149 87.9637H110.562C111.522 87.9637 112.345 88.7354 112.345 89.7336C112.345 90.6866 111.567 91.5034 110.608 91.5034Z" fill="#454545"/>
<path d="M81.2064 28.9065L79.1582 22.0222H81.0997L81.825 25.0301C81.9246 25.3972 82.01 25.7608 82.0811 26.121C82.1592 26.474 82.2447 26.8376 82.3371 27.2119H82.3798C82.4794 26.8376 82.5646 26.474 82.6357 26.121C82.714 25.7608 82.7993 25.3972 82.8919 25.0301L83.5959 22.0222H85.4732L83.4252 28.9065H81.2064Z" fill="#1F1D0D"/>
<path d="M88.4534 29.0335C87.9342 29.0335 87.4649 28.9242 87.0452 28.7053C86.6329 28.4864 86.3056 28.1721 86.0638 27.7626C85.8222 27.346 85.7012 26.8448 85.7012 26.2587C85.7012 25.6867 85.8222 25.196 86.0638 24.7866C86.3128 24.37 86.6329 24.0487 87.024 23.8226C87.415 23.5967 87.8275 23.4837 88.2613 23.4837C88.7877 23.4837 89.2214 23.6003 89.5628 23.8333C89.9111 24.0592 90.1673 24.3664 90.3308 24.7548C90.5015 25.1432 90.5867 25.5737 90.5867 26.0469C90.5867 26.2023 90.5762 26.3541 90.5548 26.5023C90.5406 26.6435 90.5263 26.7458 90.5122 26.8094H87.1519L87.1307 25.6232H89.0295C89.0295 25.4185 88.976 25.2419 88.8693 25.0937C88.7698 24.9383 88.5814 24.8607 88.304 24.8607C88.1476 24.8607 87.9982 24.903 87.8559 24.9878C87.7138 25.0725 87.5964 25.2173 87.504 25.4219C87.4114 25.6267 87.3653 25.9057 87.3653 26.2587C87.3653 26.633 87.4329 26.9225 87.568 27.1271C87.7031 27.325 87.8738 27.4626 88.0801 27.5403C88.2863 27.618 88.496 27.6567 88.7094 27.6567C88.8944 27.6567 89.072 27.6321 89.2427 27.5826C89.4205 27.5262 89.6055 27.445 89.7975 27.3391L90.3948 28.4192C90.1104 28.6171 89.7903 28.7689 89.4348 28.8748C89.0792 28.9807 88.7521 29.0335 88.4534 29.0335Z" fill="#1F1D0D"/>
<path d="M91.5957 28.9064V23.6107H93.089L93.2171 24.5216H93.2597C93.459 24.1614 93.6936 23.9002 93.9639 23.7379C94.2411 23.5684 94.5113 23.4836 94.7746 23.4836C94.9381 23.4836 95.0697 23.4943 95.1692 23.5154C95.2759 23.5295 95.3647 23.5543 95.4359 23.5897L95.1372 25.1572C95.0448 25.1359 94.9522 25.1182 94.8598 25.1041C94.7674 25.0829 94.6607 25.0723 94.5399 25.0723C94.3478 25.0723 94.1451 25.1395 93.9319 25.2736C93.7256 25.4007 93.5585 25.6302 93.4304 25.962V28.9064H91.5957Z" fill="#1F1D0D"/>
<path d="M96.0601 28.9064V23.6107H97.8949V28.9064H96.0601ZM96.9775 22.954C96.693 22.954 96.4583 22.8692 96.2735 22.6998C96.0885 22.5233 95.9961 22.3044 95.9961 22.0432C95.9961 21.7749 96.0885 21.556 96.2735 21.3865C96.4583 21.2171 96.693 21.1323 96.9775 21.1323C97.269 21.1323 97.5037 21.2171 97.6815 21.3865C97.8663 21.556 97.9589 21.7749 97.9589 22.0432C97.9589 22.3044 97.8663 22.5233 97.6815 22.6998C97.5037 22.8692 97.269 22.954 96.9775 22.954Z" fill="#1F1D0D"/>
<path d="M99.4522 28.9064V23.5471C99.4522 23.1658 99.5162 22.8128 99.6442 22.488C99.7793 22.1632 99.9997 21.9019 100.305 21.7042C100.618 21.5065 101.038 21.4076 101.564 21.4076C101.813 21.4076 102.034 21.4289 102.226 21.4712C102.425 21.5137 102.581 21.556 102.695 21.5983L102.375 22.9328C102.29 22.8976 102.201 22.8728 102.108 22.8587C102.016 22.8374 101.927 22.8269 101.842 22.8269C101.671 22.8269 101.536 22.8764 101.436 22.9753C101.337 23.0671 101.287 23.2365 101.287 23.4835V28.9064H99.4522ZM98.748 25.0299V23.6742L99.5588 23.6107H102.183V25.0299H98.748ZM102.972 28.9064V23.6107H104.807V28.9064H102.972ZM103.89 22.954C103.605 22.954 103.371 22.8692 103.186 22.6998C103.001 22.5233 102.908 22.3044 102.908 22.0432C102.908 21.7749 103.001 21.556 103.186 21.3865C103.371 21.2171 103.605 21.1323 103.89 21.1323C104.181 21.1323 104.416 21.2171 104.594 21.3865C104.779 21.556 104.871 21.7749 104.871 22.0432C104.871 22.3044 104.779 22.5233 104.594 22.6998C104.416 22.8692 104.181 22.954 103.89 22.954Z" fill="#1F1D0D"/>
<path d="M108.522 29.0334C108.003 29.0334 107.533 28.9241 107.114 28.7052C106.701 28.4863 106.374 28.172 106.132 27.7625C105.89 27.3459 105.77 26.8447 105.77 26.2586C105.77 25.6866 105.89 25.1959 106.132 24.7864C106.381 24.3698 106.701 24.0486 107.092 23.8225C107.483 23.5966 107.896 23.4836 108.33 23.4836C108.856 23.4836 109.29 23.6002 109.631 23.8332C109.98 24.0591 110.235 24.3663 110.399 24.7547C110.57 25.143 110.655 25.5736 110.655 26.0468C110.655 26.2022 110.644 26.3539 110.623 26.5022C110.609 26.6434 110.595 26.7457 110.58 26.8093H107.22L107.199 25.623H109.098C109.098 25.4184 109.044 25.2418 108.938 25.0936C108.838 24.9382 108.65 24.8605 108.372 24.8605C108.216 24.8605 108.067 24.9029 107.924 24.9877C107.782 25.0723 107.665 25.2172 107.572 25.4218C107.48 25.6266 107.434 25.9055 107.434 26.2586C107.434 26.6329 107.501 26.9223 107.636 27.127C107.771 27.3248 107.942 27.4625 108.148 27.5402C108.354 27.6179 108.564 27.6566 108.778 27.6566C108.963 27.6566 109.14 27.632 109.311 27.5825C109.489 27.5261 109.674 27.4448 109.866 27.3389L110.463 28.4191C110.179 28.617 109.859 28.7688 109.503 28.8747C109.148 28.9805 108.82 29.0334 108.522 29.0334Z" fill="#1F1D0D"/>
<path d="M113.608 29.0334C112.946 29.0334 112.417 28.7864 112.018 28.2921C111.627 27.7907 111.432 27.1128 111.432 26.2585C111.432 25.6796 111.535 25.1853 111.741 24.7757C111.954 24.3591 112.228 24.0414 112.562 23.8225C112.897 23.5966 113.245 23.4835 113.608 23.4835C113.899 23.4835 114.138 23.533 114.323 23.6319C114.515 23.7237 114.689 23.8509 114.845 24.0132L114.781 23.2507V21.5348H116.616V28.9064H115.123L114.995 28.4191H114.952C114.774 28.5957 114.564 28.7439 114.323 28.8639C114.081 28.9769 113.843 29.0334 113.608 29.0334ZM114.098 27.5507C114.241 27.5507 114.365 27.526 114.472 27.4766C114.586 27.42 114.689 27.3176 114.781 27.1694V25.2205C114.675 25.1218 114.557 25.0546 114.429 25.0194C114.301 24.9841 114.177 24.9664 114.056 24.9664C113.928 24.9664 113.807 25.0087 113.693 25.0935C113.579 25.1712 113.487 25.3053 113.416 25.496C113.345 25.6796 113.309 25.9268 113.309 26.2373C113.309 26.7105 113.38 27.0494 113.522 27.2541C113.665 27.4518 113.857 27.5507 114.098 27.5507Z" fill="#1F1D0D"/>
<path d="M97.7187 34.5522L98.5871 35.8227C98.9528 36.3674 99.5927 36.5941 100.233 36.5034L101.741 36.1858C102.838 35.959 103.843 36.9572 103.615 38.0463L103.295 39.544C103.158 40.1791 103.432 40.8145 103.98 41.1775L105.26 42.0397C106.22 42.675 106.22 44.0365 105.26 44.6718L103.98 45.534C103.432 45.897 103.203 46.5324 103.295 47.1677L103.615 48.6652C103.843 49.7543 102.838 50.7527 101.741 50.5257L100.233 50.2081C99.5927 50.072 98.9528 50.3441 98.5871 50.8888L97.7187 52.1593C97.0788 53.1124 95.7078 53.1124 95.0678 52.1593L94.1995 50.8888C93.8338 50.3441 93.194 50.1174 92.5541 50.2081L91.0458 50.5257C89.9488 50.7527 88.9433 49.7543 89.1719 48.6652L89.4918 47.1677C89.6289 46.5324 89.3547 45.897 88.8062 45.534L87.5265 44.6718C86.5667 44.0365 86.5667 42.675 87.5265 42.0397L88.8062 41.1775C89.3547 40.8145 89.5833 40.1791 89.4918 39.544L89.1719 38.0463C88.9433 36.9572 89.9488 35.959 91.0458 36.1858L92.5541 36.5034C93.194 36.6397 93.8338 36.3674 94.1995 35.8227L95.0678 34.5522C95.6621 33.5991 97.0788 33.5991 97.7187 34.5522Z" fill="#5CD052"/>
<path d="M94.7891 47.7575L91.5439 44.5355C91.0869 44.0818 91.0869 43.3557 91.5439 42.9473C92.0011 42.4935 92.7323 42.4935 93.1437 42.9473L94.7891 44.5809L98.9483 40.4514C99.4053 39.9976 100.137 39.9976 100.548 40.4514C101.005 40.9051 101.005 41.6312 100.548 42.0396L94.7891 47.7575Z" fill="white"/>
<path d="M63.7128 54.5644H6.53527C5.25551 54.5644 4.25 53.566 4.25 52.2955V21.8458C4.25 20.5751 5.25551 19.5767 6.53527 19.5767H63.7128V54.5644Z" fill="#A435F0"/>
<path d="M63.7084 23.5248H4.1543V31.9656H63.7084V23.5248Z" fill="#4F1A85"/>
<path d="M40.7716 34.6428H8.86914V40.7691H40.7716V34.6428Z" fill="white"/>
<path d="M8.86914 42.4026H58.3681" stroke="white" stroke-miterlimit="10"/>
<path d="M8.86914 46.3055H31.4019" stroke="white" stroke-miterlimit="10"/>
<path d="M8.86914 48.8013H31.4019" stroke="white" stroke-miterlimit="10"/>
<path d="M8.86914 51.2971H31.4019" stroke="white" stroke-miterlimit="10"/>
<path d="M58.3611 46.3054H45.3809V51.2971H58.3611V46.3054Z" fill="#A46ECD"/>
<path d="M63.7109 15.175V57.741" stroke="#8607DD" stroke-width="2" stroke-miterlimit="10" stroke-linecap="round"/>
<path opacity="0.32" d="M28.2461 54.5644H21.0703L31.674 19.5314H38.8954L28.2461 54.5644Z" fill="white"/>
<path opacity="0.32" d="M37.7019 54.5644H34.5938L45.1974 19.5314H48.3055L37.7019 54.5644Z" fill="white"/>
</svg>
