<svg width="122" height="100" viewBox="0 0 122 100" fill="none" xmlns="http://www.w3.org/2000/svg">
<path d="M112.037 77.4138H16.8427C14.6089 77.4138 12.8906 75.6897 12.8906 73.4483V10.8621C12.8906 8.62068 14.6089 6.89655 16.8427 6.89655H112.037C114.271 6.89655 115.989 8.62068 115.989 10.8621V73.4483C115.989 75.6897 114.271 77.4138 112.037 77.4138Z" fill="white"/>
<path d="M112.037 79.1379H16.8423C13.7493 79.1379 11.1719 76.5517 11.1719 73.4482V10.862C11.1719 7.75857 13.7493 5.17236 16.8423 5.17236H112.037C115.13 5.17236 117.707 7.75857 117.707 10.862V73.4482C117.707 76.5517 115.13 79.1379 112.037 79.1379ZM16.8423 8.62064C15.6395 8.62064 14.6085 9.65512 14.6085 10.862V73.4482C14.6085 74.6551 15.6395 75.6896 16.8423 75.6896H112.037C113.239 75.6896 114.27 74.6551 114.27 73.4482V10.862C114.27 9.65512 113.239 8.62064 112.037 8.62064H16.8423Z" fill="#383838"/>
<path d="M77.3279 78.9655H53.4434V93.1034H77.3279V78.9655Z" fill="black"/>
<path d="M95.026 89.8275H36.2598V92.931H95.026V89.8275Z" fill="#383838"/>
<path d="M19.9336 46.7241H21.3083V37.931C21.3083 33.4482 25.0886 29.8276 30.0717 29.8276H33.1646C37.9759 29.8276 41.928 33.4482 41.928 37.931V46.7241H43.3026V37.931C43.3026 32.7586 38.835 28.4482 33.3364 28.4482H30.2435C24.573 28.4482 20.2773 32.7586 20.2773 37.931V46.7241H19.9336Z" fill="black"/>
<path d="M43.6433 41.8965V47.931C43.6433 49.3103 40.3785 50.5172 38.832 50.5172V39.4827C40.3785 39.4827 43.6433 40.6896 43.6433 41.8965Z" fill="black"/>
<path d="M19.2461 41.8965V47.931C19.2461 49.3103 22.5109 50.5172 23.8856 50.5172V39.4827C22.5109 39.4827 19.2461 40.6896 19.2461 41.8965Z" fill="black"/>
<path d="M37.1142 54.4827H25.7734V59.6551H37.1142V54.4827Z" fill="#FFBB61"/>
<path d="M49.4886 65.6897L40.5534 61.8965H22.1675L13.2323 65.6897C10.3111 66.8966 8.24917 69.4828 7.9055 72.7586L5.15625 93.1035H57.3929L54.6436 72.7586C54.4717 69.4828 52.4098 66.8966 49.4886 65.6897Z" fill="#8607DD"/>
<path d="M39.5208 51.8965C40.2082 50.1724 41.4109 44.4827 41.4109 44.4827C41.5828 43.6207 41.5828 42.7586 41.5828 42.2414C41.5828 36.0345 37.1152 30.8621 31.6166 30.8621C25.9462 30.8621 21.6504 36.0345 21.6504 42.2414C21.6504 42.931 21.4786 43.7931 21.8222 44.4827C21.8222 44.4827 22.8532 50 23.7124 51.7241C24.2279 53.1034 25.9462 55.3448 27.8363 56.2069C29.8983 57.069 34.0222 57.2414 36.0842 56.3793C37.287 55.3448 38.8335 53.2759 39.5208 51.8965Z" fill="#3C2415"/>
<path d="M37.1114 57.9309H25.4269L22.1621 61.8964H40.7198L37.1114 57.9309Z" fill="#A435F0"/>
<mask id="mask0_4658_35632" style="mask-type:luminance" maskUnits="userSpaceOnUse" x="49" y="6" width="68" height="70">
<path d="M116.844 6.89642H49.8301V75.8619H116.844V6.89642Z" fill="white"/>
</mask>
<g mask="url(#mask0_4658_35632)">
<path d="M57.7347 38.1033C58.9375 39.1378 59.1094 41.0344 58.2502 42.5861L57.2192 44.1378C57.2192 44.1378 52.408 40.3447 52.2361 40.1723C49.315 36.8964 50.0023 34.8275 50.8615 34.4827C51.7206 34.3102 54.1263 36.0344 56.0164 37.0689C56.1882 37.0689 57.2192 37.7585 57.7347 38.1033Z" fill="#FFC988"/>
<path d="M88.66 32.4137L88.1445 32.5861C88.3164 32.5861 88.4882 32.5861 88.66 32.4137Z" fill="#3F3F3F"/>
<path d="M67.7018 46.0344L74.9187 36.3792C76.637 35.6895 78.0116 35.8619 79.3863 36.8964C80.7609 37.7585 80.5891 39.1378 79.3863 40.3447L69.592 52.0688C68.9046 52.7585 68.0455 53.2757 67.0145 53.2757C66.6708 53.2757 66.1553 53.2757 65.8117 53.1033L54.9863 43.2757L58.7666 38.9654L67.7018 46.0344Z" fill="black"/>
<path d="M99.6572 36.3793C100.516 36.2068 101.891 35.6896 102.578 37.7586L112.201 68.4482L106.187 70.3448L96.3924 39.3103C96.0487 37.931 97.9389 36.8965 99.6572 36.3793Z" fill="black"/>
<path d="M57.7356 34.4826C57.5638 36.3792 60.1413 38.4482 58.2511 39.6551C57.7356 39.9999 55.1582 36.3792 57.0483 33.9654C57.2201 33.6206 57.7356 33.9654 57.7356 34.4826Z" fill="#FFC988"/>
<path d="M91.928 31.7241V38.9655H85.3984V35.862L86.6013 37.0689L91.928 31.7241Z" fill="#FFC988"/>
<path d="M88.4933 33.1034C89.868 33.1034 91.0708 32.5862 91.93 31.7241L86.4314 37.2414L85.2285 36.0345V32.0689C86.2595 32.5862 87.2905 33.1034 88.4933 33.1034Z" fill="#FBB242"/>
<path d="M87.2906 72.5861H78.0117V109.31H87.2906V72.5861Z" fill="black"/>
<path d="M92.4482 32.5861L88.6679 34.9998L84.8877 32.5861L80.9355 34.4826L88.6679 44.4826L95.8849 34.4826L92.4482 32.5861Z" fill="#5A7FE5"/>
<path d="M87.1171 35.8619L88.4917 34.9998V46.0343L86.7734 43.4481L87.8044 37.0688L87.1171 35.8619Z" fill="#C4504B"/>
<path d="M88.664 34.9998L89.8668 35.8619L89.3513 37.0688L90.3823 43.4481L88.4922 46.0343V34.9998H88.664Z" fill="#E25454"/>
<path d="M81.7932 33.793L88.6664 44.4826L94.8524 33.793L101.21 36.2068L98.8045 72.5861H89.3538H87.2918H78.0129H77.8411L75.0918 36.3792L81.7932 33.793Z" fill="black"/>
<path d="M79.7324 34.655L81.7944 33.793L88.6676 44.4826L84.2 41.2068L84.3718 39.4826H82.6535L79.7324 34.655Z" fill="#454545"/>
<path d="M97.0877 34.655L94.8539 33.793L88.668 44.4826L93.1356 41.2068L92.9637 39.4826H94.6821L97.0877 34.655Z" fill="#454545"/>
<path d="M98.6363 72.5861H89.3574V109.31H98.6363V72.5861Z" fill="black"/>
<path d="M82.9929 28.1034L83.1648 27.931V28.1034C83.6803 31.0344 85.9141 32.931 88.4915 32.931C91.069 32.931 93.1309 30.862 93.8183 28.1034V27.931H93.9901C93.9901 27.931 93.9901 27.931 94.1619 27.931C94.6774 27.931 95.3647 26.7241 95.5366 25.5172C95.7084 23.9654 95.5366 23.2758 95.3648 23.1034C95.1929 23.1034 95.0211 23.2758 94.6774 23.6206C94.8492 23.1034 94.8492 22.7585 94.8492 22.4137C94.8492 18.793 92.0999 15.6896 88.6633 15.6896C85.2267 15.6896 82.4774 18.6206 82.4774 22.4137C82.4774 22.7585 82.4774 23.2758 82.6492 23.6206C82.4774 23.2758 82.1338 23.1034 82.1338 23.1034C81.9619 23.2758 81.9619 24.1378 81.9619 25.5172C81.7901 26.8965 82.6493 28.1034 82.9929 28.1034Z" fill="#FFC988"/>
<path d="M88.6635 19.6551C87.4607 19.6551 86.6016 19.3103 85.7424 19.1378C84.8833 19.1378 84.196 19.9999 83.8523 21.0344C83.165 22.7585 83.6805 24.8275 82.8213 23.9654C81.9621 23.1034 82.8213 19.1378 82.8213 19.1378C82.8213 19.1378 83.8523 15.6896 86.9452 15.3447C90.0382 14.9999 93.303 15.6896 94.5058 18.793C95.5368 21.8965 95.0213 23.4482 94.6776 23.793C94.334 24.1378 94.1622 23.2758 93.6467 21.3792C93.1312 19.4827 92.6157 18.6206 91.7565 18.793C90.7255 19.1378 90.3819 19.4827 88.6635 19.6551Z" fill="#9B5107"/>
<path d="M107.053 70.3448C107.053 71.0344 107.224 72.0689 107.396 72.931C107.053 72.5862 106.709 72.2413 106.537 71.7241L106.193 70.6896L107.053 70.3448Z" fill="#FFC988"/>
<path d="M110.659 73.4482C111.003 73.4482 111.175 73.2758 111.347 73.1034C111.347 73.4482 111.175 73.6206 111.003 73.9654C110.659 74.6551 109.456 76.5516 108.597 75.3448C108.082 74.6551 107.738 73.793 107.395 72.7585C107.91 73.2758 108.769 73.6206 109.628 73.6206C109.972 73.6206 110.316 73.6206 110.659 73.4482Z" fill="#FFC988"/>
<path d="M111.349 68.9655C111.52 70.5172 111.692 71.7241 111.349 73.2758C111.177 73.4482 110.833 73.4482 110.661 73.6206C110.318 73.6206 109.974 73.793 109.802 73.793C108.943 73.793 108.084 73.4482 107.568 72.931C107.396 72.0689 107.225 71.2068 107.225 70.3448L111.349 68.9655Z" fill="#FFC988"/>
</g>
<path d="M42.2744 25.8619H38.8377C38.6659 25.8619 38.3223 25.6895 38.3223 25.3447V15.3447C38.3223 15.1723 38.4941 14.8275 38.8377 14.8275H42.2744C42.4462 14.8275 42.7899 14.9999 42.7899 15.3447C42.7899 15.5171 42.618 15.8619 42.2744 15.8619H39.3533V24.9999H42.2744C42.4462 24.9999 42.7899 25.1723 42.7899 25.5171C42.7899 25.6895 42.4462 25.8619 42.2744 25.8619Z" fill="#02331E"/>
<path d="M42.2744 20.8619H38.8377C38.6659 20.8619 38.3223 20.6895 38.3223 20.3447C38.3223 20.1723 38.4941 19.8275 38.8377 19.8275H42.2744C42.4462 19.8275 42.7899 19.9999 42.7899 20.3447C42.7899 20.6895 42.4462 20.8619 42.2744 20.8619Z" fill="#02331E"/>
<path d="M48.6299 21.2068H45.537C45.3652 21.2068 45.0215 21.0344 45.0215 20.6895C45.0215 20.5171 45.1933 20.1723 45.537 20.1723H48.6299C48.8018 20.1723 49.1454 20.3447 49.1454 20.6895C49.1454 21.0344 48.9736 21.2068 48.6299 21.2068Z" fill="#02331E"/>
<path d="M48.6299 23.793H45.537C45.3652 23.793 45.0215 23.6206 45.0215 23.2757C45.0215 23.1033 45.1933 22.7585 45.537 22.7585H48.6299C48.8018 22.7585 49.1454 22.9309 49.1454 23.2757C49.1454 23.6206 48.9736 23.793 48.6299 23.793Z" fill="#02331E"/>
<path d="M52.5858 25.8621C52.414 25.8621 52.0703 25.6897 52.0703 25.3448V19.6552C52.0703 19.4828 52.2421 19.1379 52.5858 19.1379C52.7576 19.1379 53.1013 19.3104 53.1013 19.6552V25.3448C52.9295 25.6897 52.7576 25.8621 52.5858 25.8621Z" fill="#02331E"/>
<path d="M55.6748 25.8619C55.503 25.8619 55.1593 25.6895 55.1593 25.3447V20.8619C55.1593 20.5171 54.9875 20.3447 54.8157 20.1723C54.472 19.8274 53.9565 19.8274 53.7847 20.1723L52.7537 21.2067C52.5819 21.3791 52.2382 21.3791 52.0664 21.2067C51.8945 21.0343 51.8945 20.6895 52.0664 20.5171L53.0974 19.4826C53.7847 18.9654 54.6438 18.9654 55.3312 19.4826C55.6748 19.8274 56.0185 20.3447 56.0185 20.8619V25.3447C56.1903 25.6895 56.0185 25.8619 55.6748 25.8619Z" fill="#02331E"/>
<path d="M59.1143 25.8619C58.9425 25.8619 58.5988 25.6895 58.5988 25.3447V20.8619C58.5988 20.6895 58.427 20.3447 58.2551 20.1723C57.9115 19.8274 57.396 19.8274 57.2241 20.1723L56.1931 21.2067C56.0213 21.3791 55.6777 21.3791 55.5058 21.2067C55.334 21.0343 55.334 20.6895 55.5058 20.5171L56.5368 19.4826C57.2241 18.9654 58.0833 18.9654 58.7706 19.4826C59.1143 19.8274 59.4579 20.3447 59.4579 20.8619V25.3447C59.4579 25.6895 59.2861 25.8619 59.1143 25.8619Z" fill="#02331E"/>
<path d="M63.0678 25.862C61.865 25.862 61.0059 24.9999 61.0059 23.793V21.2068C61.0059 20.1723 61.865 19.1378 63.0678 19.1378C64.2706 19.1378 65.1298 19.9999 65.1298 21.2068C65.1298 21.3792 64.9579 21.724 64.6143 21.724C64.4424 21.724 64.0988 21.5516 64.0988 21.3792C64.0988 20.6895 63.5833 20.3447 63.0678 20.3447C62.3805 20.3447 61.865 20.862 61.865 21.3792V23.9654C61.865 24.6551 62.3805 24.9999 62.896 24.9999C63.5833 24.9999 64.0988 24.4826 64.0988 23.9654V23.4482C64.0988 23.2757 64.2706 22.9309 64.6143 22.9309C64.7861 22.9309 65.1298 23.1033 65.1298 23.4482V23.9654C65.1298 24.9999 64.2706 25.862 63.0678 25.862Z" fill="#02331E"/>
<path d="M69.0794 20.8619H66.6738C66.5019 20.8619 66.3301 20.6894 66.3301 20.517C66.3301 20.3446 66.3301 20.1722 66.5019 19.9998L68.5639 17.9308C68.7357 17.7584 68.7358 17.586 68.7358 17.4136V17.0688C68.7358 16.7239 68.3921 16.3791 68.0484 16.3791C67.7047 16.3791 67.3611 16.7239 67.3611 17.0688V17.586C67.3611 17.7584 67.1893 18.1032 66.8456 18.1032C66.6738 18.1032 66.3301 17.9308 66.3301 17.586V17.0688C66.3301 16.2067 67.0174 15.517 67.8766 15.517C68.7358 15.517 69.4231 16.2067 69.4231 17.0688V17.4136C69.4231 17.7584 69.2512 18.2757 68.9075 18.4481L67.7048 19.655H68.9075C69.0794 19.655 69.4231 19.8274 69.4231 20.1722C69.4231 20.6894 69.2512 20.8619 69.0794 20.8619Z" fill="#02331E"/>
</svg>
