<svg width="138" height="100" viewBox="0 0 138 100" fill="none" xmlns="http://www.w3.org/2000/svg">
<path d="M119.033 72.5453H18.6641V8.33331H119.033C120.953 8.33331 122.507 9.87622 122.507 11.7822V69.0965C122.507 71.0024 120.953 72.5453 119.033 72.5453Z" fill="#1F1D0D"/>
<path d="M114.693 72.5453H16.9295C15.2384 72.5453 13.8672 71.184 13.8672 69.5049V11.3737C13.8672 9.69471 15.2384 8.33331 16.9295 8.33331H114.693C116.384 8.33331 117.756 9.69471 117.756 11.3737V69.5049C117.71 71.184 116.384 72.5453 114.693 72.5453Z" fill="#454545"/>
<path d="M112.954 13.3705H18.6641V61.8359H112.954V13.3705Z" fill="white"/>
<path d="M68.574 66.9183C68.574 68.4612 67.3399 69.6865 65.7861 69.6865C64.232 69.6865 62.998 68.4612 62.998 66.9183C62.998 65.3754 64.232 64.1501 65.7861 64.1501C67.3399 64.1501 68.574 65.3754 68.574 66.9183Z" fill="#1F1D0D"/>
<path d="M84.8449 72.5453H46.7266V89.1996H84.8449V72.5453Z" fill="#1F1D0D"/>
<path d="M99.1038 92.6938H32.511C31.5512 92.6938 30.7285 91.9224 30.7285 90.924C30.7285 89.9711 31.5055 89.1542 32.511 89.1542H99.058C100.018 89.1542 100.841 89.9258 100.841 90.924C100.841 91.877 100.064 92.6938 99.1038 92.6938Z" fill="#454545"/>
<g clip-path="url(#clip0_4658_35727)">
<path d="M50.264 50.469C50.519 49.7146 54.8524 46.1937 55.4897 46.3195C55.9995 46.4452 56.3819 46.1937 56.7642 45.9423C58.0388 45.1878 59.1859 44.3076 60.4604 43.4274C61.0977 42.9244 61.7349 42.5472 62.3722 42.17C62.882 41.9185 63.3918 41.2898 63.9016 41.0383C64.284 40.9125 64.9213 41.164 64.9213 41.667C64.9213 42.17 64.5389 42.2957 64.284 42.5472C63.6468 43.1759 63.0095 43.6789 62.3722 44.3076C62.2448 44.4333 61.48 44.9363 61.6075 45.1878C61.7349 46.1937 63.6467 44.8106 63.9016 44.6848C64.6664 44.1818 65.5586 43.6789 66.4507 43.6789C66.5782 43.6789 66.7057 43.6789 66.8331 43.8046C66.9606 43.9303 66.8331 44.1819 66.7057 44.3076C65.9409 45.1878 64.7938 45.8165 64.1566 46.6967C64.0291 46.8225 63.9017 47.0739 64.0291 47.1997C64.284 47.9541 65.686 47.3254 66.1958 47.0739C66.4508 46.9482 66.8331 46.8225 67.088 47.0739C67.2155 47.1997 67.2155 47.4512 67.088 47.7027C66.9605 47.8284 66.8331 48.0799 66.7057 48.2056C66.1958 48.5829 65.8135 49.0859 65.1762 49.3373C64.9213 49.4631 64.1566 49.8403 64.284 50.2175C64.284 50.3433 64.4115 50.3433 64.4115 50.3433C64.6664 50.469 65.0487 50.3433 65.3036 50.3433C65.5586 50.3433 65.9409 50.3433 66.0684 50.5948C66.3233 50.8463 66.0684 51.2235 65.8135 51.6007C64.9213 52.4809 63.6468 53.1096 62.4997 53.7384C61.3526 54.3671 60.078 54.9958 58.8035 55.4988C57.1466 56.2532 55.3622 56.8819 53.7053 57.3849C52.1758 57.8879 50.3915 58.2651 48.862 57.6364C48.4797 57.5106 48.0973 57.1334 47.715 56.8819C47.2051 56.5047 46.6953 56.1275 46.3129 55.6245C45.9306 55.1215 45.6757 54.4928 45.8031 53.8641C45.8031 53.7383 45.8031 53.7384 45.9306 53.6126C46.0581 53.4869 46.058 53.4869 46.1855 53.4869C46.9502 53.2354 47.715 52.8582 48.4797 52.4809C49.117 51.978 49.8817 51.3492 50.264 50.469Z" fill="#CC8B6E"/>
<path d="M23.6271 60.6544C20.6957 62.2891 30.3822 73.4802 34.7156 70.9653C45.9316 64.5524 55.3633 55.7504 55.3633 55.7504L50.9024 49.8405C51.0298 49.9662 32.8039 55.4989 23.6271 60.6544Z" fill="#CC8B6E"/>
<path d="M44.6523 48.9601L54.5938 60.6542L32.2892 77.0009L20.436 59.2711L44.6523 48.9601Z" fill="#8607DD"/>
<path d="M83.4039 49.81C83.149 49.0555 78.8156 45.5347 78.1783 45.6604C77.6685 45.7862 77.2861 45.5347 76.9037 45.2832C75.6292 44.5287 74.4821 43.6485 73.2076 42.7683C72.5703 42.2654 71.933 41.8881 71.2958 41.5109C70.7859 41.2594 70.2761 40.6307 69.7663 40.3792C69.384 40.2535 68.7467 40.505 68.7467 41.0079C68.7467 41.5109 69.129 41.6366 69.3839 41.8881C70.0212 42.5168 70.6585 43.0198 71.2958 43.6485C71.4232 43.7743 72.1879 44.2772 72.0605 44.5287C71.933 45.5347 70.0212 44.1515 69.7663 44.0258C69.0016 43.5228 68.1094 43.0198 67.2172 43.0198C67.0898 43.0198 66.9623 43.0198 66.8349 43.1455C66.7074 43.2713 66.8349 43.5228 66.9623 43.6485C67.727 44.5288 68.8741 45.1575 69.5114 46.0377C69.6389 46.1634 69.7663 46.4149 69.6389 46.5406C69.384 47.2951 67.9819 46.6664 67.4721 46.4149C67.2172 46.2891 66.8349 46.1634 66.58 46.4149C66.4525 46.5406 66.4525 46.7921 66.58 47.0436C66.7074 47.1693 66.8349 47.4208 66.9623 47.5466C67.4721 47.9238 67.8545 48.4268 68.4918 48.6783C68.7467 48.804 69.5114 49.1812 69.3839 49.5585C69.3839 49.6842 69.2565 49.6842 69.2565 49.6842C69.0016 49.81 68.6192 49.6842 68.3643 49.6842C68.1094 49.6842 67.727 49.6842 67.5996 49.9357C67.3447 50.1872 67.5996 50.5644 67.8545 50.9416C68.7467 51.8219 70.0212 52.4506 71.1683 53.0793C72.3154 53.708 73.59 54.3367 74.8645 54.8397C76.5214 55.5942 78.3058 56.2229 79.9627 56.7259C81.4921 57.2288 83.2765 57.606 84.8059 56.9773C85.1883 56.8516 85.5707 56.4744 85.953 56.2229C86.4628 55.8457 86.9727 55.4684 87.355 54.9655C87.7374 54.4625 87.9923 53.8337 87.8648 53.205C87.8648 53.0793 87.8648 53.0793 87.7374 52.9536C87.6099 52.8278 87.6099 52.8278 87.4825 52.8278C86.7178 52.5763 85.953 52.1991 85.1883 51.8219C84.551 51.3189 83.7863 50.6902 83.4039 49.81Z" fill="#CC8B6E"/>
<path d="M110.041 59.9952C112.972 61.6299 103.286 72.821 98.9523 70.3062C87.7363 63.8932 78.3047 55.0912 78.3047 55.0912L82.7656 49.1813C82.6381 49.307 100.864 54.8397 110.041 59.9952Z" fill="#CC8B6E"/>
<path d="M89.0117 48.301L79.0703 59.9952L101.375 76.3418L113.228 58.612L89.0117 48.301Z" fill="#A435F0"/>
<path d="M83.1486 38.493C83.276 47.5465 75.7562 55.0911 66.5795 55.0911C57.4028 55.2169 49.7555 47.798 49.7555 38.7445C49.628 29.691 57.1479 22.1464 66.3246 22.1464C75.6287 22.0206 83.1486 29.3138 83.1486 38.493Z" fill="#FFB21B"/>
<path d="M82.3824 38.493C82.5098 47.1693 75.3724 54.2109 66.578 54.2109C57.7837 54.3367 50.6462 47.295 50.6462 38.6188C50.5188 29.9425 57.6562 22.9008 66.4506 22.9008C75.1175 22.7751 82.2549 29.8167 82.3824 38.493Z" fill="#FFC91D"/>
<path d="M78.942 38.493C78.942 45.2832 73.4615 50.8159 66.579 50.9416C59.6964 50.9416 54.0884 45.5347 53.9609 38.7445C53.9609 31.9544 59.4415 26.4217 66.324 26.2959C73.2066 26.1702 78.942 31.7029 78.942 38.493Z" fill="#FFB21B"/>
<path d="M78.4302 38.996C78.4302 45.5347 73.2045 50.8159 66.5769 50.9416C59.9493 50.9416 54.5962 45.7862 54.4688 39.2475C54.4688 32.7088 59.6944 27.4276 66.322 27.3019C72.9496 27.1761 78.4302 32.4573 78.4302 38.996Z" fill="#FFE984"/>
<path d="M65.5614 46.1634V44.403C64.2868 44.403 63.0123 44.0258 62.375 43.6486L62.8848 41.5109C63.6495 41.8882 64.7966 42.2654 66.0712 42.2654C67.2183 42.2654 67.8556 41.8882 67.8556 41.1337C67.8556 40.3792 67.2183 40.002 65.8163 39.499C63.777 38.8703 62.375 37.8644 62.375 36.104C62.375 34.4693 63.5221 33.2119 65.5614 32.7089V30.9485H67.4732V32.5831C68.7477 32.5831 69.6399 32.8346 70.2772 33.2119L69.7674 35.3495C69.2576 35.098 68.3654 34.7208 66.9634 34.7208C65.6888 34.7208 65.3065 35.2237 65.3065 35.7267C65.3065 36.3554 65.9437 36.7327 67.6006 37.3614C69.8948 38.1159 70.787 39.1218 70.787 40.8822C70.787 42.5169 69.6399 44.0258 67.4732 44.403V46.2892L65.5614 46.1634Z" fill="#FFB21B"/>
<path d="M83.9146 49.8099C83.9146 49.8099 83.0225 46.5406 80.3459 45.5346C77.6694 44.4029 76.6497 42.0138 75.6301 42.6425C74.483 43.2712 74.8654 44.0257 76.0125 45.5346C77.6694 47.798 78.0518 49.5584 77.287 50.4386C76.5223 51.3188 83.1499 54.3367 83.9146 49.8099Z" fill="#CC8B6E"/>
<path d="M49.7533 50.4692C49.7533 50.4692 50.6455 47.1999 53.322 46.1939C55.9986 45.0622 57.0182 42.6731 58.0379 43.3018C59.185 43.9305 58.8026 44.685 57.6555 46.1939C55.9986 48.4573 55.6162 50.2177 56.3809 51.0979C57.1457 51.9781 50.5181 54.996 49.7533 50.4692Z" fill="#CC8B6E"/>
</g>
<defs>
<clipPath id="clip0_4658_35727">
<rect width="94" height="41" fill="white" transform="translate(20 22.1448)"/>
</clipPath>
</defs>
</svg>
