<svg width="137" height="100" viewBox="0 0 137 100" fill="none" xmlns="http://www.w3.org/2000/svg">
<path d="M118.168 72.5453H18.5312V8.33331H118.168C120.073 8.33331 121.616 9.87622 121.616 11.7822V69.0965C121.616 71.0024 120.073 72.5453 118.168 72.5453Z" fill="#1F1D0D"/>
<path d="M113.86 72.5453H16.8095C15.1307 72.5453 13.7695 71.184 13.7695 69.5049V11.3737C13.7695 9.69471 15.1307 8.33331 16.8095 8.33331H113.86C115.538 8.33331 116.9 9.69471 116.9 11.3737V69.5049C116.854 71.184 115.538 72.5453 113.86 72.5453Z" fill="#454545"/>
<path d="M112.133 13.3703H18.5312V61.8357H112.133V13.3703Z" fill="white"/>
<path d="M68.0783 66.9183C68.0783 68.4612 66.8532 69.6865 65.3106 69.6865C63.7679 69.6865 62.543 68.4612 62.543 66.9183C62.543 65.3754 63.7679 64.1501 65.3106 64.1501C66.8532 64.1501 68.0783 65.3754 68.0783 66.9183Z" fill="#1F1D0D"/>
<path d="M84.2327 72.5452H46.3926V89.1994H84.2327V72.5452Z" fill="#1F1D0D"/>
<path d="M98.3879 92.6939H32.2812C31.3284 92.6939 30.5117 91.9225 30.5117 90.9241C30.5117 89.9712 31.283 89.1542 32.2812 89.1542H98.3425C99.2952 89.1542 100.112 89.9258 100.112 90.9241C100.112 91.8771 99.3406 92.6939 98.3879 92.6939Z" fill="#454545"/>
<path d="M89.604 16.719L90.7309 18.3876C91.2054 19.1028 92.0356 19.4006 92.8658 19.2815L94.8229 18.8643C96.2463 18.5665 97.5508 19.8774 97.2544 21.3077L96.8393 23.2745C96.6614 24.1086 97.0172 24.943 97.7289 25.4198L99.3894 26.552C100.635 27.3864 100.635 29.1743 99.3894 30.0087L97.7289 31.1409C97.0172 31.6176 96.7206 32.452 96.8393 33.2864L97.2544 35.253C97.5508 36.6833 96.2463 37.9944 94.8229 37.6964L92.8658 37.2792C92.0356 37.1005 91.2054 37.4579 90.7309 38.1731L89.604 39.8417C88.7738 41.0932 86.9949 41.0932 86.1644 39.8417L85.0378 38.1731C84.5633 37.4579 83.7331 37.16 82.9029 37.2792L80.9458 37.6964C79.5224 37.9944 78.2176 36.6833 78.5143 35.253L78.9294 33.2864C79.1072 32.452 78.7515 31.6176 78.0398 31.1409L76.3793 30.0087C75.134 29.1743 75.134 27.3864 76.3793 26.552L78.0398 25.4198C78.7515 24.943 79.0481 24.1086 78.9294 23.2745L78.5143 21.3077C78.2176 19.8774 79.5224 18.5665 80.9458 18.8643L82.9029 19.2815C83.7331 19.4604 84.5633 19.1028 85.0378 18.3876L86.1644 16.719C86.9355 15.4674 88.7738 15.4674 89.604 16.719Z" fill="#5CD052"/>
<path d="M86.3771 34.1136L82.4888 29.8999C81.9412 29.3065 81.9412 28.357 82.4888 27.8229C83.0366 27.2294 83.9127 27.2294 84.4057 27.8229L86.3771 29.9593L91.3606 24.5587C91.9081 23.9653 92.7842 23.9653 93.2772 24.5587C93.8248 25.1521 93.8248 26.1017 93.2772 26.6358L86.3771 34.1136Z" fill="white"/>
<path d="M38.5877 53.1569C38.5877 53.1569 32.7885 47.1052 35.8368 45.6109C35.8368 45.6109 37.5468 45.3121 38.5877 49.1224C38.5877 49.1224 35.8368 43.1454 37.9929 42.8465C37.9929 42.8465 40.0746 41.2029 40.5951 48.1511C40.5951 48.1511 40.2977 43.8925 42.2307 43.6684C42.2307 43.6684 46.4686 42.3983 42.6025 53.3063L38.5877 53.1569Z" fill="#7EAF2F"/>
<path d="M61.3434 59.1137C79.2051 59.1137 93.6849 58.2774 93.6849 57.2459C93.6849 56.2143 79.2051 55.3781 61.3434 55.3781C43.4817 55.3781 29.002 56.2143 29.002 57.2459C29.002 58.2774 43.4817 59.1137 61.3434 59.1137Z" fill="#A435F0" fill-opacity="0.1"/>
<path d="M72.6445 54.3255V56.1186C72.9419 56.5669 75.6185 57.0152 78.8898 57.0152C82.1611 57.0152 84.8376 56.6416 85.135 56.1186V54.3255H72.6445Z" fill="#F4A517"/>
<path d="M74.9473 54.3254V56.7162C75.5421 56.7909 76.2855 56.8656 77.1034 56.8656V54.3254H74.9473Z" fill="#FFC91D"/>
<path d="M77.4746 54.7739V56.9406C77.6233 56.9406 77.8464 56.9406 77.9951 56.9406V54.7739H77.4746Z" fill="#FFC91D"/>
<path d="M85.135 54.3255C85.135 54.7738 82.3098 55.1473 78.8898 55.1473C75.4698 55.1473 72.6445 54.7738 72.6445 54.3255C72.6445 53.8772 75.4698 53.5037 78.8898 53.5037C82.3098 53.5037 85.135 53.8772 85.135 54.3255Z" fill="#FFC91D"/>
<path d="M83.6494 54.3254C83.6494 54.699 81.4933 54.9231 78.8911 54.9231C76.2889 54.9231 74.1328 54.6243 74.1328 54.3254C74.1328 53.9519 76.2146 53.7277 78.8911 53.7277C81.4933 53.7277 83.6494 54.0266 83.6494 54.3254Z" fill="#F4A517"/>
<path d="M83.128 54.4003C83.128 54.6992 81.195 54.9233 78.8902 54.9233C76.511 54.9233 74.6523 54.6992 74.6523 54.4003C74.6523 54.1015 76.5854 53.8773 78.8902 53.8773C81.2693 53.8773 83.128 54.1015 83.128 54.4003Z" fill="#FFC91D"/>
<path d="M74.5801 51.9346V53.7277C74.8775 54.1759 77.554 54.6242 80.8253 54.6242C84.0966 54.6242 86.7732 54.2507 87.0706 53.7277V51.9346H74.5801Z" fill="#F4A517"/>
<path d="M76.8105 52.0093V54.4002C77.4797 54.4749 78.1488 54.5496 78.9666 54.5496V52.0093H76.8105Z" fill="#FFC91D"/>
<path d="M79.4102 52.4576V54.6243C79.5589 54.6243 79.7819 54.6243 79.9306 54.6243V52.4576H79.4102Z" fill="#FFC91D"/>
<path d="M87.0706 51.9346C87.0706 52.3829 84.2453 52.7564 80.8253 52.7564C77.4053 52.7564 74.5801 52.3829 74.5801 51.9346C74.5801 51.4863 77.4053 51.1127 80.8253 51.1127C84.2453 51.1127 87.0706 51.4863 87.0706 51.9346Z" fill="#FFC91D"/>
<path d="M85.5849 52.0092C85.5849 52.3827 83.4288 52.6069 80.8266 52.6069C78.2245 52.6069 76.0684 52.308 76.0684 52.0092C76.0684 51.6356 78.1501 51.4115 80.8266 51.4115C83.4288 51.3368 85.5849 51.6356 85.5849 52.0092Z" fill="#F4A517"/>
<path d="M85.0636 52.0094C85.0636 52.3082 83.1305 52.5324 80.8257 52.5324C78.4466 52.5324 76.5879 52.3082 76.5879 52.0094C76.5879 51.7105 78.5209 51.4864 80.8257 51.4864C83.2049 51.4864 85.0636 51.7105 85.0636 52.0094Z" fill="#FFC91D"/>
<path d="M72.1289 49.2451V51.0382C72.4263 51.4864 75.1028 51.9347 78.3742 51.9347C81.6455 51.9347 84.322 51.5612 84.6194 51.0382V49.2451H72.1289Z" fill="#F4A517"/>
<path d="M74.3516 49.2451V51.6359C75.0207 51.7106 75.6898 51.7853 76.5077 51.7853V49.2451H74.3516Z" fill="#FFC91D"/>
<path d="M76.9551 49.6934V51.8601C77.1038 51.8601 77.3268 51.8601 77.4755 51.8601V49.6934H76.9551Z" fill="#FFC91D"/>
<path d="M84.6194 49.2452C84.6194 49.6934 81.7942 50.067 78.3742 50.067C74.9541 50.067 72.1289 49.6934 72.1289 49.2452C72.1289 48.7969 74.9541 48.4233 78.3742 48.4233C81.7942 48.4233 84.6194 48.7969 84.6194 49.2452Z" fill="#FFC91D"/>
<path d="M83.0517 49.2451C83.0517 49.6187 80.8956 49.8428 78.2934 49.8428C75.6913 49.8428 73.5352 49.544 73.5352 49.2451C73.5352 48.8715 75.6169 48.6474 78.2934 48.6474C80.97 48.6474 83.0517 48.9463 83.0517 49.2451Z" fill="#F4A517"/>
<path d="M82.6066 49.3197C82.6066 49.6186 80.6735 49.8427 78.3687 49.8427C75.9896 49.8427 74.1309 49.6186 74.1309 49.3197C74.1309 49.0209 76.0639 48.7968 78.3687 48.7968C80.6735 48.7968 82.6066 49.0209 82.6066 49.3197Z" fill="#FFC91D"/>
<path d="M77.8503 54.998C77.9246 54.9233 78.0733 54.6245 78.0733 54.6245C78.0733 54.6245 78.222 54.9233 78.2964 54.998C78.3707 55.0727 78.6681 55.2222 78.6681 55.2222C78.6681 55.2222 78.3707 55.3716 78.2964 55.4463C78.222 55.521 78.0733 55.8199 78.0733 55.8199C78.0733 55.8199 77.9246 55.521 77.8503 55.4463C77.7759 55.3716 77.4785 55.2222 77.4785 55.2222C77.4785 55.2222 77.7759 55.0727 77.8503 54.998Z" fill="#F7F7FC"/>
<path d="M69.673 41.8485C66.8477 37.5152 65.2121 34.7508 64.2456 32.7336C61.1973 25.4117 68.9295 24.814 67.6656 22.4979C66.3273 20.1071 62.6842 25.0382 65.0634 20.1818C67.4425 15.3255 59.0412 15.2508 56.2903 16.3715C53.7625 17.3428 55.3981 20.7795 53.6881 19.8083C51.2346 18.4635 44.0229 22.4979 49.4503 23.9175C57.0338 25.9347 55.5468 30.6416 55.3981 30.9405C55.0264 31.5382 54.5803 32.0612 53.9855 32.6589C50.7142 35.7968 44.3202 43.1933 44.9894 47.8255C45.5098 51.1876 43.9485 53.5037 42.5359 54.1014C40.8259 54.7738 40.2311 57.314 45.7329 57.3887C51.2346 57.4635 64.989 58.2853 69.0782 57.6876C74.1339 57.0152 76.8848 52.7566 69.673 41.8485Z" fill="#A435F0"/>
<path d="M45.8076 57.3887C51.3094 57.4634 65.0638 58.2853 69.1529 57.6876C74.1342 56.9404 76.8851 52.7565 69.6734 41.8485C66.8481 37.5151 65.2125 34.7508 64.2459 32.7335C63.5025 31.0151 63.4281 29.6703 63.6512 28.5496H55.4729C55.6959 29.5956 55.5472 30.4174 55.4729 30.7163C57.7033 30.1933 60.8259 31.1646 61.7181 33.3312C62.9077 36.3197 76.2903 53.4289 62.982 54.7738C51.458 55.8945 44.4693 57.837 41.4954 55.0726C41.1237 56.1186 42.0158 57.3887 45.8076 57.3887Z" fill="#8607DD"/>
<path d="M54.2812 19.8831C54.2812 19.8831 56.9578 25.4866 56.5117 28.1015L62.3852 28.4751C62.3852 28.4751 62.6826 24.3659 64.2439 22.2739V21.9004C64.2439 21.9004 61.6417 24.59 60.8239 27.5038C60.6752 28.1015 58.4448 27.8774 58.2217 27.2797C56.8834 24.2165 55.6195 21.0038 54.2812 19.8831Z" fill="#8607DD"/>
<path d="M55.1026 29.4463C55.1026 29.4463 55.0282 29.8199 56.1435 29.6704C57.6304 29.521 63.727 30.7911 64.0244 29.9693C64.3218 29.2222 61.1248 29.3716 60.1583 29.2969C58.8944 29.2222 55.4 28.6992 55.1026 29.4463Z" fill="#FAC22E"/>
<path d="M55.0264 28.5497C55.0264 28.5497 54.9521 28.9232 56.0673 28.7738C57.6286 28.5497 63.8739 29.6703 64.2456 28.8485C64.543 28.0267 61.2717 28.3255 60.2308 28.2508C58.9669 28.1761 55.3238 27.8025 55.0264 28.5497Z" fill="#FAC22E"/>
<path d="M57.7037 51.1128V49.6186C56.6629 49.5439 55.6963 49.3197 55.1016 48.9462L55.5477 47.1531C56.2168 47.5266 57.109 47.8255 58.0755 47.8255C58.9677 47.8255 59.5625 47.4519 59.5625 46.8542C59.5625 46.2565 59.042 45.8829 57.9268 45.5094C56.2911 44.9864 55.1759 44.1646 55.1016 42.6703C55.1016 41.3255 56.0681 40.2048 57.7037 39.9059V38.4117H59.1907V39.7565C60.2316 39.8312 60.9007 39.9806 61.4212 40.2795L60.9751 41.9979C60.6033 41.8485 59.8598 41.4749 58.7446 41.4749C57.7781 41.4749 57.4064 41.9232 57.4064 42.3715C57.4064 42.8944 57.9268 43.1933 59.2651 43.7163C61.1238 44.3887 61.8672 45.2105 61.8672 46.5554C61.8672 47.9002 60.9007 49.0956 59.1164 49.4692V51.0381L57.7037 51.1128Z" fill="#FAC22E"/>
<path d="M35.6191 55.5955V57.3886C35.9165 57.8369 38.5931 58.2852 41.8644 58.2852C45.1357 58.2852 47.8122 57.9116 48.1096 57.3886V55.5955H35.6191Z" fill="#F4A517"/>
<path d="M37.9219 55.67V58.0608C38.5167 58.1356 39.2601 58.2103 40.078 58.2103V55.67H37.9219Z" fill="#FFC91D"/>
<path d="M40.4492 56.1186V58.2853C40.5979 58.2853 40.821 58.2853 40.9697 58.2853V56.1186H40.4492Z" fill="#FFC91D"/>
<path d="M48.1096 55.5955C48.1096 56.0438 45.2844 56.4174 41.8644 56.4174C38.4444 56.4174 35.6191 56.0438 35.6191 55.5955C35.6191 55.1472 38.4444 54.7737 41.8644 54.7737C45.2844 54.7737 48.1096 55.1472 48.1096 55.5955Z" fill="#FFC91D"/>
<path d="M46.624 55.6701C46.624 56.0437 44.4679 56.2678 41.8657 56.2678C39.2635 56.2678 37.1074 55.9689 37.1074 55.6701C37.1074 55.2965 39.1892 55.0724 41.8657 55.0724C44.4679 55.0724 46.624 55.2965 46.624 55.6701Z" fill="#F4A517"/>
<path d="M46.1026 55.7449C46.1026 56.0437 44.1696 56.2679 41.8648 56.2679C39.4857 56.2679 37.627 56.0437 37.627 55.7449C37.627 55.446 39.56 55.2219 41.8648 55.2219C44.2439 55.1472 46.1026 55.446 46.1026 55.7449Z" fill="#FFC91D"/>
<path d="M37.5508 53.2795V55.0726C37.8482 55.5209 40.5247 55.9692 43.796 55.9692C47.0674 55.9692 49.7439 55.5956 50.0413 55.0726V53.2795H37.5508Z" fill="#F4A517"/>
<path d="M39.8496 53.2794V55.6702C40.5187 55.7449 41.1879 55.8196 42.0057 55.8196V53.2794H39.8496Z" fill="#FFC91D"/>
<path d="M42.3809 53.728V55.8946C42.5296 55.8946 42.7526 55.8946 42.9013 55.8946V53.728H42.3809Z" fill="#FFC91D"/>
<path d="M50.0413 53.2795C50.0413 53.7278 47.216 54.1014 43.796 54.1014C40.376 54.1014 37.5508 53.7278 37.5508 53.2795C37.5508 52.8313 40.376 52.4577 43.796 52.4577C47.216 52.4577 50.0413 52.8313 50.0413 53.2795Z" fill="#FFC91D"/>
<path d="M48.5556 53.2796C48.5556 53.6532 46.3995 53.8773 43.7973 53.8773C41.1952 53.8773 39.0391 53.5785 39.0391 53.2796C39.0391 52.9061 41.1208 52.6819 43.7973 52.6819C46.3995 52.6819 48.5556 52.9808 48.5556 53.2796Z" fill="#F4A517"/>
<path d="M48.0304 53.3543C48.0304 53.6532 46.0973 53.8773 43.7925 53.8773C41.4134 53.8773 39.5547 53.6532 39.5547 53.3543C39.5547 53.0555 41.4877 52.8314 43.7925 52.8314C46.1717 52.8314 48.0304 53.0555 48.0304 53.3543Z" fill="#FFC91D"/>
<path d="M35.0996 50.5151V52.3082C35.397 52.7565 38.0735 53.2047 41.3449 53.2047C44.6162 53.2047 47.2927 52.8312 47.5901 52.3082V50.5151H35.0996Z" fill="#F4A517"/>
<path d="M37.332 50.59V52.9808C38.0012 53.0555 38.6703 53.1303 39.4881 53.1303V50.59H37.332Z" fill="#FFC91D"/>
<path d="M39.9297 51.0383V53.205C40.0784 53.205 40.3014 53.205 40.4501 53.205V51.0383H39.9297Z" fill="#FFC91D"/>
<path d="M47.5901 50.5152C47.5901 50.9635 44.7649 51.337 41.3449 51.337C37.9248 51.337 35.0996 50.9635 35.0996 50.5152C35.0996 50.0669 37.9248 49.6934 41.3449 49.6934C44.7649 49.6934 47.5901 50.0669 47.5901 50.5152Z" fill="#FFC91D"/>
<path d="M46.0283 50.59C46.0283 50.9636 43.8722 51.1877 41.27 51.1877C38.6678 51.1877 36.5117 50.8889 36.5117 50.59C36.5117 50.2164 38.5935 49.9923 41.27 49.9923C43.9465 49.9923 46.0283 50.2164 46.0283 50.59Z" fill="#F4A517"/>
<path d="M45.5792 50.6647C45.5792 50.9635 43.6462 51.1877 41.3414 51.1877C38.9622 51.1877 37.1035 50.9635 37.1035 50.6647C37.1035 50.3658 39.0366 50.1417 41.3414 50.1417C43.6462 50.067 45.5792 50.2911 45.5792 50.6647Z" fill="#FFC91D"/>
<path d="M42.2379 51.3371H41.3457V53.2049H42.2379V51.3371Z" fill="#FFC91D"/>
<path d="M40.8268 56.2681C40.9012 56.1934 41.0499 55.8945 41.0499 55.8945C41.0499 55.8945 41.1986 56.1934 41.2729 56.2681C41.3473 56.3428 41.6446 56.4922 41.6446 56.4922C41.6446 56.4922 41.3473 56.6417 41.2729 56.7164C41.1986 56.7911 41.0499 57.0899 41.0499 57.0899C41.0499 57.0899 40.9012 56.7911 40.8268 56.7164C40.7525 56.6417 40.4551 56.4922 40.4551 56.4922C40.4551 56.4922 40.7525 56.3428 40.8268 56.2681Z" fill="#F7F7FC"/>
</svg>
